<svg width="150" height="114" viewBox="0 0 150 114" fill="none" xmlns="http://www.w3.org/2000/svg">
<g clip-path="url(#clip0_231_82)">
<rect width="150" height="114" fill="white"/>
<path d="M51.153 39.6244C49.617 39.6244 48.465 39.731 47.697 39.9444C47.3557 38.7497 47.185 37.5764 47.185 36.4244C47.185 35.7417 47.4837 35.4004 48.081 35.4004H62.609V70.8564C62.609 72.9897 61.8837 74.6537 60.433 75.8484C58.9823 77.043 57.0197 77.6404 54.545 77.6404C52.113 77.6404 50.1717 77.107 48.721 76.0404C47.2703 74.931 46.545 73.5017 46.545 71.7524V63.8164C46.545 63.0484 47.0997 62.515 48.209 62.2164C48.8063 62.0457 49.4037 61.9604 50.001 61.9604C50.5983 61.9604 51.1957 62.0244 51.793 62.1524C51.665 63.1764 51.601 64.2644 51.601 65.4164V70.8564C51.601 71.667 51.8783 72.307 52.433 72.7764C52.9877 73.203 53.713 73.4164 54.609 73.4164C55.505 73.4164 56.209 73.203 56.721 72.7764C57.2757 72.307 57.553 71.667 57.553 70.8564V39.6244H51.153ZM67.0495 71.1124V41.5444C67.0495 39.411 67.7748 37.747 69.2255 36.5524C70.6762 35.3577 72.6602 34.7604 75.1775 34.7604C77.6948 34.7604 79.6362 35.315 81.0015 36.4244C82.4095 37.5337 83.1135 39.155 83.1135 41.2884V70.8564C83.1135 72.9897 82.3668 74.6537 80.8735 75.8484C79.4228 77.043 77.4388 77.6404 74.9215 77.6404C72.4042 77.6404 70.4628 77.0857 69.0975 75.9764C67.7322 74.867 67.0495 73.2457 67.0495 71.1124ZM72.1055 41.5444V70.8564C72.1055 71.6244 72.3615 72.243 72.8735 72.7124C73.4282 73.1817 74.1535 73.4164 75.0495 73.4164C75.9455 73.4164 76.6708 73.203 77.2255 72.7764C77.7802 72.307 78.0575 71.667 78.0575 70.8564V41.5444C78.0575 40.7337 77.7802 40.115 77.2255 39.6884C76.6708 39.219 75.9455 38.9844 75.0495 38.9844C74.1535 38.9844 73.4282 39.219 72.8735 39.6884C72.3615 40.115 72.1055 40.7337 72.1055 41.5444ZM87.234 50.1844V41.5444C87.234 39.411 87.9593 37.747 89.41 36.5524C90.8607 35.3577 92.802 34.7604 95.234 34.7604C97.7087 34.7604 99.6713 35.315 101.122 36.4244C102.573 37.491 103.298 38.899 103.298 40.6484V48.5844C103.298 49.3524 102.743 49.8857 101.634 50.1844C101.037 50.355 100.439 50.4404 99.842 50.4404C99.2447 50.4404 98.6473 50.3764 98.05 50.2484C98.178 49.2244 98.242 48.1364 98.242 46.9844V41.5444C98.242 40.7337 97.9647 40.115 97.41 39.6884C96.8553 39.219 96.13 38.9844 95.234 38.9844C94.338 38.9844 93.6127 39.219 93.058 39.6884C92.546 40.115 92.29 40.7337 92.29 41.5444V49.0324C92.29 50.5257 92.7807 51.571 93.762 52.1684L100.546 56.5204C102.466 57.715 103.426 59.5497 103.426 62.0244V70.8564C103.426 72.9897 102.679 74.6537 101.186 75.8484C99.6927 77.043 97.7087 77.6404 95.234 77.6404C92.802 77.6404 90.8393 77.107 89.346 76.0404C87.8527 74.931 87.106 73.5017 87.106 71.7524V63.8164C87.106 63.0484 87.6607 62.515 88.77 62.2164C89.3673 62.0457 89.9647 61.9604 90.562 61.9604C91.1593 61.9604 91.7567 62.0244 92.354 62.1524C92.226 63.1764 92.162 64.2644 92.162 65.4164V70.8564C92.162 71.6244 92.4607 72.243 93.058 72.7124C93.6553 73.1817 94.402 73.4164 95.298 73.4164C96.194 73.4164 96.9193 73.1817 97.474 72.7124C98.0713 72.243 98.37 71.6244 98.37 70.8564V63.6244C98.37 61.9604 97.794 60.7657 96.642 60.0404L89.858 55.6244C88.1087 54.515 87.234 52.7017 87.234 50.1844Z" fill="black"/>
<path d="M44.3917 -0.0747762L109.205 52.9533L42.707 53.3806L106.947 -6.81796L125.639 32.4865L67.7117 99.4564L33.3832 13.3744L94.0461 -46.5386L90.228 18.8748" stroke="white" stroke-width="4"/>
</g>
<defs>
<clipPath id="clip0_231_82">
<rect width="150" height="114" fill="white"/>
</clipPath>
</defs>
</svg>
