<svg xmlns="http://www.w3.org/2000/svg" width="233" height="206" fill="none" xmlns:v="https://vecta.io/nano"><path fill-rule="evenodd" d="M215.7 1.424c-.605.629-1.104 1.286-1.109 1.46s-.361.766-.791 1.316-.786 1.321-.791 1.713-.289.82-.632.951-.53.48-.417.775.033.642-.177.772-.383.586-.383 1.013-.253.776-.563.776c-.365 0-.489.28-.353.8.115.44.037.8-.174.8s-.815.855-1.342 1.9l-1.163 2.1c-.537.523-2.005 2.808-2.005 3.12 0 .565-9.992 10.48-10.561 10.48-.283 0-.841.36-1.239.8s-.966.8-1.262.8-.538.15-.538.332-.495.588-1.1.9-1.199.7-1.321.863c-.418.56-9.72 5.105-10.449 5.105-.402 0-.73.18-.73.4s-.349.4-.776.4-.888.18-1.024.4-.599.4-1.029.4a3.88 3.88 0 0 0-1.476.353c-2.14 1.089-2.882 1.305-3.647 1.062-.618-.196-.848-.099-.848.358 0 .354-.338.627-.776.627-.427 0-.899.197-1.047.438s-.691.357-1.204.259c-.583-.112-1.018.043-1.16.413-.164.428-.604.531-1.589.371-1.003-.162-1.424-.058-1.598.395-.154.403-.573.551-1.211.429-.624-.119-1.056.026-1.202.404-.17.445-.611.53-1.778.343-1.214-.194-1.605-.108-1.799.399-.182.473-.56.584-1.406.415-.839-.168-1.225-.057-1.401.402-.189.494-.641.59-2.036.432-1.419-.16-1.793-.076-1.793.4s-.327.55-1.558.353c-1.225-.196-1.611-.11-1.808.402-.199.52-.604.603-2.004.411-1.388-.19-1.805-.107-1.999.398-.184.478-.587.583-1.607.417-1.006-.163-1.424-.059-1.599.399-.183.477-.597.563-1.79.372-1.215-.194-1.605-.108-1.8.4-.197.515-.654.61-2.222.459-1.5-.144-2.028-.048-2.201.401-.165.43-.635.537-1.722.391-1.022-.137-1.673-.012-2.054.397-.41.439-1.062.537-2.463.371-1.504-.178-1.956-.093-2.146.402-.186.485-.593.571-1.792.379-1.216-.194-1.605-.108-1.8.401s-.631.606-2.019.45c-1.337-.151-1.826-.053-2 .4-.167.436-.601.539-1.592.378-1.007-.163-1.424-.059-1.6.4-.183.478-.648.575-2.008.422-1.274-.144-1.829-.046-1.98.349-.116.301-.746.548-1.4.548s-1.311.197-1.459.438-.691.357-1.204.259c-.584-.112-1.018.043-1.16.414-.168.437-.637.537-1.793.382-1.168-.156-1.625-.056-1.798.394-.151.393-.575.539-1.213.417-.54-.103-1.043-.002-1.119.226-.267.8-1.591-.102-1.373-.935.135-.515.01-.795-.354-.795-.31 0-.563-.335-.563-.744 0-.62-1.024-2.978-2.846-6.551-.195-.382-.354-.967-.354-1.3s-.18-.605-.4-.605-.4-.439-.4-.976-.192-1.096-.427-1.241-.337-.501-.226-.79-.056-.626-.372-.747a.96.96 0 0 1-.575-.821c0-.33-.36-1.242-.8-2.025s-.8-1.689-.8-2.012-.135-.589-.3-.591-.498-.407-.74-.9c-1.308-2.671-3.969-7.724-4.158-7.897-.12-.11-.436-.695-.702-1.3s-.667-1.1-.891-1.1-.409-.241-.409-.535-.894-1.51-1.986-2.7-1.992-2.286-2-2.434-.734-.975-1.614-1.838-1.6-1.771-1.6-2.018-.225-.365-.5-.261-1.13-.351-1.9-1.011-1.625-1.202-1.9-1.202-.5-.137-.5-.303-.54-.542-1.2-.834-1.2-.769-1.2-1.06c0-.322-.296-.452-.755-.332-.415.109-.876.002-1.023-.237s-.624-.435-1.058-.435-.882-.243-.997-.541c-.126-.329-.588-.468-1.182-.354-.651.125-1.057-.027-1.222-.456-.172-.449-.535-.571-1.201-.404s-1.029.045-1.205-.412c-.189-.493-.564-.593-1.542-.409-.827.155-1.494.05-1.853-.291-.811-.77-12.72-.762-13.532.008-.353.336-1.062.461-1.868.33-.941-.152-1.365-.041-1.535.404-.165.43-.607.56-1.469.434-.798-.118-1.304.007-1.438.355-.115.3-.793.536-1.539.536-.734 0-1.455.196-1.603.435s-.596.349-.997.244-.825.059-.943.365-.669.556-1.225.556-1.013.18-1.013.4-.272.4-.605.4c-.587 0-.988.158-2.895 1.138-1.992 1.023-2.339 1.193-3.3 1.616-1.112.49-2.163 1.144-3.281 2.046-.41.33-.887.6-1.061.6s-.63.315-1.015.7-.857.7-1.049.7-1.034.629-1.872 1.398-1.659 1.399-1.826 1.4-.887.563-1.6 1.25a64.14 64.14 0 0 1-3.028 2.674C1.381 30.759-.169 34.781 1.8 36.2c.44.317.8.762.801.988.001.244 1.237.422 3.03.437 2.025.017 3.136.198 3.35.544.227.367.8.437 1.969.24 1.284-.217 1.7-.145 1.88.326.17.442.599.545 1.601.382.883-.143 1.369-.061 1.369.231 0 .248.45.452 1 .452s1 .18 1 .4.272.4.605.4c.709 0 2.025.711 3.15 1.7.438.385 1.032.7 1.32.7s.525.18.525.4.236.4.523.4c1.125 0 8.277 7.786 8.277 9.01 0 .147.377.796.837 1.442s.742 1.425.626 1.729.046.652.362.773c.322.124.575.745.575 1.41 0 .654.197 1.311.438 1.459s.357.691.259 1.204c-.112.585.043 1.018.417 1.161.462.178.543.669.364 2.186-.185 1.557-.103 2.007.396 2.199.516.198.58.66.361 2.595-.198 1.756-.135 2.399.249 2.527s.516 1.422.516 5.038c0 2.677.159 4.867.354 4.867s.771.45 1.281 1c1.104 1.192 2.036 1.248 3.294.199 1.148-.957 1.583-11.26.522-12.376-.39-.411-.488-1.238-.34-2.873.165-1.824.083-2.344-.403-2.53-.459-.176-.559-.626-.401-1.8s.057-1.625-.4-1.8-.558-.627-.4-1.8c.15-1.122.051-1.627-.349-1.781-.307-.117-.558-.492-.558-.832s-.159-.93-.353-1.312c-.343-.673-.588-1.245-1.711-3.995-.292-.715-.667-1.3-.834-1.3S37 49.84 37 49.4s-.18-.8-.4-.8-.4-.225-.4-.5c-.001-.773-4.887-6.211-6.914-7.695-.597-.437-1.086-1.022-1.086-1.3s-.318-.505-.707-.505-1.37-.45-2.179-1-1.751-1-2.093-1-.621-.282-.621-.627c0-.445-.232-.553-.8-.373-.577.183-.8.072-.8-.4 0-.462-.225-.583-.766-.411-.422.134-.882.056-1.024-.173s-.609-.416-1.039-.416-1.139-.18-1.576-.4l-1.59-.8c-.437-.22-1.482-.4-2.323-.4-2.835 0-3.337-.87-1.471-2.551.874-.787 1.732-1.435 1.907-1.44s.755-.446 1.289-.98a13.22 13.22 0 0 1 2.182-1.686c.666-.394 1.211-.857 1.211-1.029s.36-.314.8-.314.8-.15.8-.332.495-.588 1.1-.9 1.19-.657 1.3-.767c.476-.478 2.039-1.201 2.595-1.201.333 0 .605-.136.605-.302s.585-.54 1.3-.831a48.72 48.72 0 0 0 2.838-1.297c.846-.424 1.791-.77 2.1-.77s.562-.204.562-.452c0-.292.486-.374 1.369-.231.999.163 1.431.06 1.599-.379.166-.432.555-.531 1.381-.349.865.19 1.214.086 1.408-.422.218-.567.613-.634 2.474-.415 1.705.201 2.353.121 2.82-.346.89-.89 8.07-.876 8.413.016.194.505.643.572 2.382.355 1.764-.22 2.188-.154 2.391.375.172.448.535.57 1.201.403.645-.162 1.029-.046 1.184.358.136.354.539.518.987.401.422-.111 1.231.174 1.828.644.589.463 1.317.842 1.617.842s.546.253.546.563c0 .365.28.489.8.353.454-.119.8-.012.8.246 0 .25.495.675 1.1.944s1.856 1.211 2.779 2.092l2.109 2.002c.999.928 2.688 2.896 3.605 4.2.542.77 1.305 1.749 1.696 2.175s.711.934.711 1.128.506 1.105 1.125 2.025c1.453 2.159 3.48 6.341 3.357 6.926-.053.25.177.56.511.688s.607.492.607.808c0 .496.6 1.882 2.064 4.766.2.394.268.87.152 1.058s.077.453.429.588c.455.174.568.533.39 1.242-.188.748-.092.996.384.996.453 0 .562.229.381.8-.183.577-.072.8.4.8s.583.223.4.8c-.186.585-.072.8.423.8.539 0 .628.245.437 1.2-.184.918-.095 1.2.377 1.2.435 0 .542.236.363.8s-.072.8.373.8c.726 0 .796.704.22 2.219-.297.781-.615 1.016-1.174.87-.459-.12-.86.041-.998.401-.151.393-.575.535-1.226.411-.547-.104-.995-.048-.995.125s-1.035.794-2.3 1.379l-3 1.43-1.5.765c-1.689.844-2.555 1.301-3.855 2.031-.74.415-1.351.623-1.358.462s-.232-.023-.5.307-.982.855-1.587 1.168-1.1.717-1.1.9-.229.332-.509.332-1.495.896-2.7 1.99-2.341 1.995-2.524 2c-.593.018-8.184 8.052-9.952 10.533-.943 1.323-1.985 2.709-2.315 3.079-.637.714-1.38 1.986-3.327 5.698-.664 1.265-1.356 2.3-1.54 2.3s-.333.332-.333.739c0 .902-1.138 3.261-1.574 3.261-.173 0-.229.448-.125.995.129.672-.018 1.075-.452 1.242s-.57.538-.416 1.15c.15.598.021.984-.381 1.138-.451.173-.549.598-.379 1.647.173 1.069.075 1.473-.405 1.657-.469.18-.57.561-.389 1.467.164.819.059 1.37-.317 1.664-.393.307-.562 1.334-.562 3.407 0 2.017-.16 3.02-.5 3.133-.713.238-.713 9.962 0 10.2.347.115.5 1.195.5 3.533 0 2.416.159 3.491.562 3.807.385.302.489.889.33 1.869-.173 1.067-.077 1.488.382 1.664.435.167.566.636.451 1.62-.104.89.023 1.455.357 1.583.285.109.518.644.518 1.188s.18 1.1.4 1.236.4.766.4 1.4.196 1.274.435 1.422.349.596.244.997.059.825.365.943.556.654.556 1.192.135 1.039.3 1.113c.596.265 2.063 3.564 1.841 4.141-.131.343.002.593.316.595.497.003 1.543 1.693 1.543 2.493 0 .186.36.724.8 1.196s.8 1.095.8 1.383.18.525.4.525.4.268.4.595.26.913.578 1.3 1.44 1.875 2.494 3.305 2.235 2.949 2.623 3.375.705.912.705 1.078c0 .445 10.647 11.147 11.089 11.147.206 0 1.284.9 2.396 2s2.188 2 2.393 2 .72.315 1.147.7 1.27.955 1.875 1.268 1.1.817 1.1 1.123.188.44.418.298.634-.082.9.134c.532.432 2.62 1.634 5.682 3.269 5.346 2.855 6.977 3.608 7.814 3.608.406 0 .85.18.986.4s.597.4 1.024.4.776.18.776.4.529.4 1.176.4 1.288.18 1.424.4.676.4 1.2.4 1.064.18 1.2.4.856.4 1.6.4 1.452.16 1.573.356.851.465 1.623.6l2.835.491c.787.136 1.518.475 1.624.752.139.363.897.449 2.692.304s2.661-.046 3.076.348 1.761.549 4.744.549 4.214.143 4.333.5c.236.707 7.964.707 8.2 0 .118-.355 1.316-.5 4.133-.5 2.823 0 4.134-.159 4.547-.551.428-.408 1.281-.493 3.267-.326 2.208.185 2.73.113 2.927-.4.18-.468.592-.568 1.633-.399 1.095.177 1.393.091 1.393-.402 0-.499.321-.584 1.573-.416 1.173.157 1.632.057 1.804-.391.163-.423.642-.554 1.616-.44.939.11 1.454-.02 1.601-.402.136-.356.583-.494 1.208-.375.563.108 1.189-.046 1.444-.354.249-.299.959-.544 1.579-.544s1.239-.18 1.375-.4.687-.4 1.224-.4.976-.18.976-.4.54-.4 1.2-.4 1.2-.192 1.2-.427.337-.32.753-.188c.488.155.841.008 1.005-.419.172-.448.568-.597 1.247-.467.666.127.995.01.995-.354 0-.3.36-.545.8-.545s.8-.18.8-.4.36-.4.8-.4.8-.18.8-.4.405-.404.9-.409 1.35-.361 1.9-.791 1.242-.786 1.538-.791 1.016-.341 1.6-.746 1.647-.99 2.362-1.298 1.3-.696 1.3-.863.36-.302.8-.302.8-.18.8-.4.19-.4.422-.4 1.482-.72 2.778-1.6 2.546-1.6 2.778-1.6.422-.15.422-.332.495-.588 1.1-.9 1.449-.883 1.875-1.268.967-.7 1.202-.7.935-.54 1.558-1.2 1.273-1.2 1.443-1.2 1.181-.81 2.244-1.8 2.089-1.8 2.28-1.8c.485 0 13.478-13.058 14.859-14.932 1.483-2.013 3.311-3.868 3.813-3.868.22 0 .314-.227.207-.504s.35-1.099 1.013-1.825 1.206-1.502 1.206-1.724c0-.553 1.037-1.547 1.614-1.547.259 0 .381-.236.27-.525s.136-.963.549-1.5.753-1.181.758-1.432.305-.571.666-.71.543-.366.404-.506-.095-.45.1-.69c2.112-2.607 2.596-5.68 1.139-7.229-1.022-1.086-5.896-1.62-6.209-.681-.087.26-.582.473-1.101.473s-1.054.18-1.19.4-.676.4-1.2.4-1.069.187-1.21.416-.581.314-.976.188c-.453-.143-.813.016-.973.433-.187.487-.557.6-1.411.429-.807-.161-1.225-.055-1.381.351-.123.321-.669.583-1.213.583s-1.111.197-1.259.438-.691.357-1.204.259c-.585-.112-1.018.043-1.161.416-.174.454-.639.537-1.982.353-1.388-.19-1.805-.107-1.999.398-.187.487-.587.583-1.684.405-1.023-.166-1.622-.051-2.073.4-.519.519-1.197.586-3.771.371-2.595-.216-3.25-.15-3.784.384-.821.821-8.941.712-9.219-.124-.123-.368-.88-.433-2.877-.247-3.139.291-3.817-.175-2.066-1.422.642-.457 1.324-.831 1.516-.831s.61-.36.927-.8.729-.8.916-.8c.323 0 3.862-2.293 4.284-2.776.11-.126.882-.737 1.715-1.358 1.953-1.456 10.685-10.102 10.685-10.579 0-.575 1.442-2.087 1.99-2.087.272 0 .401-.246.286-.547s.315-1.122.957-1.825 1.167-1.536 1.167-1.853.278-.575.618-.575.58-.225.535-.5c-.106-.652.635-2.423 1.314-3.138.725-.764 3.133-5.543 3.133-6.218 0-.299.282-.544.627-.544.445 0 .553-.232.373-.8-.146-.459-.072-.8.173-.8.235 0 .427-.332.427-.739 0-.902 1.138-3.261 1.574-3.261.173 0 .229-.448.125-.995-.129-.672.018-1.075.452-1.242s.57-.537.414-1.161c-.127-.503-.035-1.035.203-1.182s.432-.617.432-1.044.259-.776.575-.776c.429 0 .519-.341.356-1.349-.128-.79-.035-1.463.225-1.624.244-.151.444-.804.444-1.451 0-.743.207-1.176.562-1.176.42 0 .51-.385.357-1.528-.139-1.037-.017-1.717.381-2.115.371-.37.517-1.058.399-1.867-.138-.936-.013-1.348.464-1.531.528-.203.605-.609.403-2.134-.19-1.428-.098-2.035.378-2.512s.572-1.107.387-2.662c-.186-1.574-.109-2.085.342-2.258.465-.178.547-.889.408-3.533-.128-2.45-.031-3.46.375-3.885s.547-1.933.546-5.889c-.001-3.088.166-5.434.398-5.6.564-.403.586-22.59.022-22.972-.263-.178-.433-2.592-.452-6.4-.016-3.363-.196-6.474-.4-6.914s-.358-3.05-.343-5.8c.02-3.826-.107-5.134-.544-5.573-.401-.402-.503-1.078-.34-2.262.18-1.315.092-1.743-.398-1.931-.445-.17-.556-.534-.38-1.238.184-.734.09-.996-.357-.996-.335 0-.608-.18-.608-.4s-.251-.4-.557-.4-.661-.27-.788-.6c-.362-.944-1.95-.63-3.155.624zm1.51 15.276c.16 2.035.264 6.207.233 9.272-.042 4.119.075 5.654.45 5.885.737.456.74 26.799.002 27.045-.387.129-.444 1.173-.244 4.465.212 3.493.152 4.399-.322 4.841-.413.387-.533 1.138-.412 2.596.126 1.52.004 2.218-.471 2.692-.51.511-.589 1.134-.387 3.064.214 2.049.149 2.462-.42 2.68-.543.209-.625.583-.422 1.932.184 1.229.093 1.805-.343 2.167-.419.347-.531.958-.382 2.069.165 1.228.065 1.634-.45 1.831s-.603.561-.407 1.607c.2 1.065.122 1.354-.365 1.354s-.57.305-.394 1.393c.172 1.058.071 1.453-.422 1.642-.454.174-.576.535-.409 1.203.165.658.046 1.029-.385 1.194-.444.171-.561.565-.402 1.356.124.622.028 1.235-.218 1.387s-.44.627-.44 1.061-.28.897-.623 1.028-.526.493-.407.803-.031.658-.333.774c-.332.127-.463.54-.331 1.045a1.22 1.22 0 0 1-.484 1.347c-.386.283-.583.707-.437.943s.004.53-.315.653c-.345.132-.499.538-.379.997.137.525-.002.774-.432.774-.379 0-.547.225-.419.56.118.307.022.678-.213.823s-.427.614-.427 1.041-.146.776-.325.776-.58.649-.892 1.443-.944 1.74-1.406 2.104-.785.839-.716 1.057-.412 1.005-1.068 1.75-1.193 1.567-1.193 1.827-.99 1.537-2.2 2.837-2.2 2.49-2.2 2.645c0 .641-7.491 7.76-10.105 9.603-.712.502-1.644 1.232-2.07 1.623s-1.012.711-1.3.711-.525.15-.525.332-.495.588-1.1.9-1.19.657-1.3.767-.92.575-1.8 1.031l-2.4 1.264c-1.886 1.022-3.608 1.646-3.714 1.346-.063-.178-.555-.239-1.095-.136-.628.12-1.062-.024-1.206-.399s-.578-.519-1.205-.399c-.567.108-.98-.001-.98-.259 0-.246-.272-.447-.605-.447s-.918-.168-1.3-.374-1.28-.609-1.995-.897-1.3-.748-1.3-1.022-.398-.455-.9-.402c-.53.056-.861-.105-.805-.391.058-.292-.157-.388-.54-.241-.35.134-.753.082-.895-.115s-.98-.732-1.86-1.188c-2.605-1.352-3.556-1.935-4.196-2.573-.332-.331-1.099-.857-1.704-1.167s-1.1-.715-1.1-.898-.171-.332-.38-.332c-1.062 0-8.42-6.267-8.42-7.172 0-.221-.258-.304-.574-.183-.553.213-12.226-11.132-12.226-11.882 0-.181-.72-1.086-1.6-2.011s-1.6-1.795-1.6-1.932-.9-1.209-2-2.381-2-2.34-2-2.596-.36-.726-.8-1.043-.8-.762-.8-.988-.468-.952-1.038-1.612-1.295-1.695-1.61-2.3-.748-1.1-.962-1.1-.39-.27-.39-.6-.36-.96-.8-1.4-.8-.946-.8-1.125-.315-.682-.7-1.12a12.26 12.26 0 0 1-1.2-1.675l-1-1.765c-.275-.486-.725-1.129-1-1.428s-.5-.891-.5-1.316c0-.443-.275-.771-.647-.771-.449 0-.583-.244-.437-.8.127-.487.012-.8-.294-.8-.276 0-1.111-1.215-1.854-2.7s-1.445-2.79-1.56-2.9c-.475-.456-1.208-2.031-1.208-2.595 0-.333-.135-.606-.3-.608-.359-.004-1.3-1.941-1.3-2.677 0-.286-.159-.52-.353-.52s-.454-.315-.576-.7-.53-1.24-.907-1.9c-1.819-3.187-1.864-4-.2-3.667.842.168 1.23.059 1.405-.396.159-.415.571-.565 1.216-.442.622.119 1.056-.026 1.2-.4s.536-.504 1.072-.364c.494.129 1.106-.037 1.467-.398.43-.43 1.083-.557 2.134-.416 1.018.137 1.487.052 1.429-.257-.052-.276.474-.46 1.313-.46.77 0 1.598-.253 1.84-.563.324-.413.938-.494 2.321-.304 1.163.159 1.79.111 1.643-.126-.295-.478 1.57-.979 2.425-.651.347.133.92-.048 1.274-.402.476-.476 1.08-.583 2.332-.411 1.324.181 1.742.093 1.934-.408.185-.482.612-.589 1.741-.438 1.022.137 1.673.012 2.054-.397.41-.439 1.062-.537 2.463-.371 1.497.177 1.956.092 2.143-.395.17-.444.633-.574 1.623-.459.924.108 1.454-.021 1.595-.387.135-.352.698-.507 1.566-.433.746.065 1.648-.125 2.004-.421.424-.351 1.262-.468 2.422-.337 1.341.151 1.83.053 2.004-.4.167-.436.601-.539 1.592-.378 1.007.163 1.424.059 1.6-.4.183-.478.648-.575 2.008-.422 1.337.151 1.826.053 2-.4.167-.436.601-.539 1.592-.378.966.156 1.425.055 1.58-.349.139-.361.802-.57 1.808-.57.874 0 1.711-.198 1.861-.44s.765-.342 1.387-.218c.796.16 1.185.042 1.359-.41.182-.474.588-.578 1.605-.413 1.003.162 1.424.058 1.598-.395.156-.407.573-.551 1.231-.425.699.133.995.013.995-.404 0-.448.297-.536 1.2-.355s1.2.092 1.2-.35c0-.386.406-.59 1.176-.59.647 0 1.288-.18 1.424-.4s.687-.4 1.224-.4.976-.203.976-.45c0-.287.436-.363 1.2-.21.931.186 1.2.097 1.2-.397 0-.435.248-.572.785-.431.432.113.994-.046 1.249-.353s.706-.559 1.003-.559 1.203-.373 2.016-.83 1.808-.743 2.212-.637.738-.016.742-.27c.009-.601 3.83-2.411 4.376-2.074.229.142.42.023.424-.265s.904-.948 2-1.466 1.993-1.104 1.993-1.3.36-.358.8-.358.8-.15.8-.332.492-.588 1.094-.9 1.418-.838 1.813-1.168.848-.6 1.006-.6 1.277-.943 2.487-2.096 2.317-2.098 2.46-2.1c.347-.005 3.14-2.81 3.14-3.154 0-.148.9-1.199 2-2.334s2-2.234 2-2.441.257-.59.571-.851c.506-.42 1.956-2.922 3.2-5.521.236-.493.564-.898.729-.9s.3-.333.3-.736c0-.855.334-1.267 1.027-1.267.335 0 .587 1.189.783 3.7zM93.24 67.903l1.35 2.697 1.198 2.4c.315.659.953 1.908 1.685 3.3l1.969 3.794c.822 1.592 1.869 3.419 2.326 4.062s.832 1.365.832 1.606.201.438.447.438.354.353.237.8c-.129.495-.012.8.307.8.284 0 .616.315.738.7.288.909 1.483 2.853 2.371 3.858.385.436.7 1.014.7 1.284s.161.551.358.625.692.693 1.1 1.378c1.268 2.127 4.27 6.348 4.614 6.488.181.074.328.344.329.6s.54 1.097 1.199 1.867 1.199 1.553 1.199 1.74.503.816 1.116 1.4 1.557 1.69 2.096 2.46a26.78 26.78 0 0 0 2.095 2.57c.612.643 1.219 1.588 1.347 2.1s.383.93.565.93c.483 0 14.382 13.953 14.382 14.438 0 .225.183.296.408.157.354-.219 3.563 2.132 6.278 4.6.487.443 1.038.805 1.224.805s.688.315 1.115.7 1.27.955 1.875 1.268 1.1.717 1.1.9.36.332.8.332.8.152.8.337.855.768 1.9 1.295 1.99 1.05 2.1 1.163.92.579 1.8 1.035l2.4 1.253a52.87 52.87 0 0 0 1.9.938c.605.283 1.1.642 1.1.798 0 .489-2.357 1.286-3.171 1.073-.469-.123-.869.034-1.007.396-.171.444-.58.534-1.58.346-1.043-.195-1.407-.103-1.603.41-.205.532-.599.615-2.009.422-1.387-.19-1.806-.107-1.999.397s-.662.597-2.218.448c-1.475-.142-2.029-.045-2.194.383-.182.474-.981.524-4.619.288-3.17-.205-4.4-.159-4.4.167 0 .292-.987.451-2.8.451-1.759 0-2.8-.163-2.8-.437 0-.306-1.13-.353-3.744-.157-3.032.227-3.847.17-4.289-.303-.374-.4-1.067-.526-2.198-.398s-1.825.002-2.2-.4c-.38-.407-1.069-.528-2.251-.395-1.296.146-1.761.044-1.942-.429-.176-.459-.593-.563-1.6-.4s-1.424.06-1.6-.4-.593-.563-1.6-.4c-1.027.167-1.423.062-1.611-.427-.174-.454-.535-.576-1.203-.409-.632.159-1.029.047-1.174-.331s-.62-.512-1.403-.397c-.708.104-1.185-.006-1.185-.272 0-.245-.349-.445-.776-.445s-.888-.18-1.024-.4-.546-.4-.912-.4c-1.004 0-4.473-1.737-4.481-2.245-.004-.257-.427-.364-1.007-.253-.55.105-1 .034-1-.158s-.585-.588-1.3-.88c-2.444-.998-3.1-1.399-3.1-1.894 0-.298-.318-.412-.8-.286-.563.147-.8.012-.8-.455 0-.365-.225-.619-.5-.564-.659.133-3.5-1.256-3.5-1.711 0-.195-.243-.354-.541-.354s-1.105-.54-1.796-1.2-1.403-1.2-1.584-1.2-.677-.32-1.104-.711-1.405-1.153-2.175-1.695-2.39-1.956-3.6-3.144c-3.345-3.286-4.498-4.05-6.111-4.05-2.028 0-3.468 1.926-2.639 3.531.567 1.099 4.603 5.269 5.1 5.269.154 0 1.123.797 2.155 1.772s2.42 2.093 3.085 2.486 1.21.856 1.21 1.028.236.314.525.314.873.315 1.3.7 1.27.955 1.875 1.268 1.1.717 1.1.9.236.332.525.332.873.315 1.3.701 1.63 1.133 2.675 1.662 1.9 1.215 1.9 1.523.184.447.409.308c.461-.285 2.791.636 2.791 1.104 0 .166.272.302.605.302s.963.18 1.4.4l1.59.8c.437.22 1.067.4 1.4.4s.605.18.605.4.265.4.588.4 1.229.36 2.012.8 1.768.8 2.189.8.875.18 1.011.4.687.4 1.224.4.976.18.976.4.619.4 1.376.4 1.488.18 1.624.4.782.4 1.436.4 1.277.229 1.385.51c.127.333.747.457 1.784.358 1.091-.104 1.654.021 1.8.4s.704.505 1.756.404c.85-.081 1.667.05 1.816.29s1.405.438 2.818.438c1.495 0 2.766.207 3.076.502.806.764 22.705.731 23.5-.035.402-.389 1.311-.504 3.088-.391 1.917.122 2.57.025 2.736-.408.161-.419.625-.503 1.77-.32 1.216.195 1.605.108 1.8-.402.193-.503.608-.601 1.842-.436 1.256.169 1.593.084 1.593-.398 0-.462.284-.555 1.164-.379.813.162 1.231.057 1.387-.35.127-.33.741-.583 1.413-.583.654 0 1.31-.196 1.458-.435s.596-.349.997-.244.825-.059.943-.365.551-.556.964-.556 1.302-.275 1.975-.611c1.373-.684 4.435-.422 4.753.407.124.324.833.421 2.159.293 1.533-.147 2.026-.052 2.211.429.188.489.673.573 2.33.402 1.481-.153 2.261-.055 2.669.337.831.796 13.915.792 14.754-.006.407-.386 1.233-.489 2.8-.347 1.643.149 2.366.048 2.772-.387.378-.404 1.155-.545 2.496-.452 1.379.096 2.008-.025 2.157-.414.142-.371.585-.474 1.368-.317.835.167 1.225.057 1.398-.396.168-.435.602-.574 1.421-.454.743.109 1.255-.023 1.383-.356.114-.297.81-.528 1.592-.528.764 0 1.51-.196 1.658-.435s.608-.346 1.024-.237c.435.114.903-.065 1.103-.422.227-.405.703-.551 1.379-.422.649.124 1.109-.003 1.239-.343.233-.606 1.433-.748 1.433-.17 0 .205-.27.642-.6.972s-.6.701-.6.825c0 .244-2.405 3.536-3.531 4.832-.382.44-1.037 1.34-1.454 2s-1.447 1.882-2.287 2.715-1.528 1.663-1.528 1.842c0 .707-10.934 11.277-11.457 11.076-.299-.114-.543-.037-.543.172 0 .531-2.358 2.897-3.8 3.813-.66.419-1.791 1.307-2.513 1.972s-1.446 1.21-1.609 1.21-.731.405-1.263.9-1.187.9-1.457.9-.551.145-.625.323c-.156.38-3.096 2.418-5.235 3.629l-2.798 1.583c-.715.404-1.525.659-1.8.567s-.5.116-.5.465c0 .366-.337.633-.8.633-.44 0-.8.146-.8.325s-.63.573-1.4.875-1.4.696-1.4.875-.253.325-.562.325-1.344.386-2.3.857-2.188 1.032-2.738 1.246a23.12 23.12 0 0 0-1.695.744 3.88 3.88 0 0 1-1.476.353c-.43 0-.903.196-1.051.435s-.608.346-1.023.237c-.497-.13-.755.012-.755.415 0 .463-.284.556-1.164.38-.84-.168-1.23-.059-1.404.393-.165.431-.536.55-1.194.385-.667-.167-1.029-.045-1.202.407-.182.472-.56.583-1.406.414-.838-.168-1.225-.057-1.4.4s-.562.568-1.4.4-1.225-.057-1.398.394c-.17.443-.534.551-1.252.371-.678-.17-1.23-.038-1.668.4-.476.476-1.09.597-2.242.442-1.122-.15-1.768-.032-2.204.404-.463.462-1.108.558-2.584.384-1.38-.164-2.128-.072-2.507.307-.758.758-23.821.693-24.075-.068-.12-.36-.767-.429-2.325-.245-1.755.206-2.204.135-2.401-.378-.193-.503-.64-.584-2.2-.399-1.605.19-2.004.11-2.216-.444-.193-.502-.545-.613-1.371-.431-.62.136-1.226.057-1.373-.18s-.681-.423-1.195-.423-1.036-.267-1.161-.593c-.161-.418-.571-.524-1.394-.36-.669.134-1.283.046-1.439-.207-.15-.242-.627-.44-1.061-.44s-.888-.259-1.01-.575-.485-.473-.809-.348-1.345-.135-2.267-.576c-5.972-2.853-7.293-3.53-7.411-3.799-.074-.166-.479-.302-.9-.302-.438 0-.767-.276-.767-.643 0-.384-.223-.557-.556-.429-.306.117-.891-.089-1.3-.457a10.57 10.57 0 0 0-1.844-1.239c-.605-.312-1.1-.717-1.1-.9s-.225-.332-.5-.333-1.13-.54-1.9-1.199-1.547-1.199-1.727-1.199c-.434-.001-3.073-2.813-3.073-3.274 0-.199-.251-.309-.557-.245-.659.14-5.697-4.555-8.243-7.682-.986-1.21-2.249-2.65-2.808-3.2s-1.591-1.9-2.293-3-1.463-2.217-1.688-2.483-.411-.637-.411-.825-.376-.744-.835-1.237-.735-1.157-.612-1.476c.127-.331-.012-.579-.323-.579-.588 0-1.206-1.091-1.076-1.9.045-.275-.111-.5-.346-.5-.482 0-1.38-1.933-1.255-2.7.045-.275-.097-.5-.317-.5s-.692-.675-1.051-1.5-.817-1.813-1.019-2.195a3.77 3.77 0 0 1-.366-1.476c0-.43-.187-.898-.416-1.039s-.314-.581-.188-.976c.142-.448-.014-.812-.414-.966-.44-.168-.602-.63-.515-1.463.076-.726-.096-1.356-.427-1.56-.339-.21-.464-.69-.321-1.236s-.009-1.136-.386-1.513c-.429-.43-.557-1.083-.416-2.132.129-.966.017-1.667-.311-1.939-1.51-1.253-1.481-19.694.032-20.275.389-.149.47-.686.296-1.96-.19-1.385-.107-1.806.395-1.998.455-.175.573-.563.413-1.36-.124-.622-.028-1.235.218-1.387s.44-.624.44-1.054a3.88 3.88 0 0 1 .353-1.476c.343-.673.588-1.245 1.711-3.995.292-.715.768-1.3 1.057-1.3s.412-.184.273-.409c-.285-.461.636-2.791 1.104-2.791.166 0 .302-.268.302-.595s.258-.913.574-1.3c1.242-1.525 3.426-4.522 3.426-4.702 0-.781 9.779-10.493 12.086-12.003.336-.22 1.705-1.165 3.041-2.1s2.619-1.7 2.851-1.7.422-.18.422-.4.36-.4.8-.4.8-.147.8-.326c0-.359 3.039-2.074 3.676-2.074.22 0 .923-.372 1.562-.827.688-.49 1.469-.73 1.914-.588.476.151.84.013.988-.373.129-.337.601-.612 1.047-.612s.813-.18.813-.4.439-.4.976-.4 1.088-.18 1.224-.4c.454-.735 1.988-.419 2.44.503z" fill="#fbfbfb"/></svg>