<svg width="272" height="246" viewBox="0 0 272 246" fill="none" xmlns="http://www.w3.org/2000/svg">
<g filter="url(#filter0_d_105_611)">
<path fill-rule="evenodd" clip-rule="evenodd" d="M232.759 17.1734C232.154 17.8024 231.655 18.4594 231.65 18.6334C231.645 18.8074 231.289 19.3994 230.859 19.9494C230.429 20.4994 230.073 21.2704 230.068 21.6624C230.063 22.0534 229.779 22.4824 229.436 22.6134C229.093 22.7454 228.906 23.0934 229.019 23.3884C229.132 23.6824 229.052 24.0304 228.842 24.1604C228.631 24.2904 228.459 24.7464 228.459 25.1734C228.459 25.6004 228.206 25.9494 227.896 25.9494C227.531 25.9494 227.407 26.2294 227.543 26.7494C227.658 27.1894 227.58 27.5494 227.369 27.5494C227.157 27.5494 226.554 28.4044 226.027 29.4494C225.501 30.4944 224.977 31.4394 224.864 31.5494C224.327 32.0724 222.859 34.3574 222.859 34.6694C222.859 35.2344 212.867 45.1494 212.298 45.1494C212.015 45.1494 211.457 45.5094 211.059 45.9494C210.661 46.3894 210.093 46.7494 209.797 46.7494C209.501 46.7494 209.259 46.8994 209.259 47.0814C209.259 47.2644 208.764 47.6694 208.159 47.9814C207.554 48.2934 206.96 48.6814 206.838 48.8444C206.42 49.4044 197.118 53.9494 196.389 53.9494C195.987 53.9494 195.659 54.1294 195.659 54.3494C195.659 54.5694 195.31 54.7494 194.883 54.7494C194.456 54.7494 193.995 54.9294 193.859 55.1494C193.723 55.3694 193.26 55.5494 192.83 55.5494C192.4 55.5494 191.736 55.7084 191.354 55.9024C189.214 56.9914 188.472 57.2074 187.707 56.9644C187.089 56.7684 186.859 56.8654 186.859 57.3224C186.859 57.6764 186.521 57.9494 186.083 57.9494C185.656 57.9494 185.184 58.1464 185.036 58.3874C184.887 58.6274 184.345 58.7444 183.832 58.6464C183.249 58.5344 182.814 58.6894 182.672 59.0594C182.508 59.4874 182.068 59.5904 181.083 59.4304C180.08 59.2684 179.659 59.3724 179.485 59.8254C179.331 60.2284 178.912 60.3764 178.274 60.2544C177.65 60.1354 177.218 60.2804 177.072 60.6584C176.902 61.1034 176.461 61.1884 175.294 61.0014C174.08 60.8074 173.689 60.8934 173.495 61.4004C173.313 61.8734 172.935 61.9844 172.089 61.8154C171.25 61.6474 170.864 61.7584 170.688 62.2174C170.499 62.7114 170.047 62.8074 168.652 62.6494C167.233 62.4894 166.859 62.5734 166.859 63.0494C166.859 63.5254 166.532 63.5994 165.301 63.4024C164.076 63.2064 163.69 63.2924 163.493 63.8044C163.294 64.3244 162.889 64.4074 161.489 64.2154C160.101 64.0254 159.684 64.1084 159.49 64.6134C159.306 65.0914 158.903 65.1964 157.883 65.0304C156.877 64.8674 156.459 64.9714 156.284 65.4294C156.101 65.9064 155.687 65.9924 154.494 65.8014C153.279 65.6074 152.889 65.6934 152.694 66.2014C152.497 66.7164 152.04 66.8114 150.472 66.6604C148.972 66.5164 148.444 66.6124 148.271 67.0614C148.106 67.4914 147.636 67.5984 146.549 67.4524C145.527 67.3154 144.876 67.4404 144.495 67.8494C144.085 68.2884 143.433 68.3864 142.032 68.2204C140.528 68.0424 140.076 68.1274 139.886 68.6224C139.7 69.1074 139.293 69.1934 138.094 69.0014C136.878 68.8074 136.489 68.8934 136.294 69.4024C136.099 69.9114 135.663 70.0084 134.275 69.8524C132.938 69.7014 132.449 69.7994 132.275 70.2524C132.108 70.6884 131.674 70.7914 130.683 70.6304C129.676 70.4674 129.259 70.5714 129.083 71.0304C128.9 71.5084 128.435 71.6054 127.075 71.4524C125.801 71.3084 125.246 71.4064 125.095 71.8014C124.979 72.1024 124.349 72.3494 123.695 72.3494C123.041 72.3494 122.384 72.5464 122.236 72.7874C122.087 73.0274 121.545 73.1444 121.032 73.0464C120.448 72.9344 120.014 73.0894 119.872 73.4604C119.704 73.8974 119.235 73.9974 118.079 73.8424C116.911 73.6864 116.454 73.7864 116.281 74.2364C116.13 74.6294 115.706 74.7754 115.068 74.6534C114.528 74.5504 114.025 74.6514 113.949 74.8794C113.682 75.6794 112.358 74.7774 112.576 73.9444C112.711 73.4294 112.586 73.1494 112.222 73.1494C111.912 73.1494 111.659 72.8144 111.659 72.4054C111.659 71.7854 110.635 69.4274 108.813 65.8544C108.618 65.4724 108.459 64.8874 108.459 64.5544C108.459 64.2214 108.279 63.9494 108.059 63.9494C107.839 63.9494 107.659 63.5104 107.659 62.9734C107.659 62.4364 107.467 61.8774 107.232 61.7324C106.997 61.5874 106.895 61.2314 107.006 60.9424C107.118 60.6524 106.95 60.3164 106.634 60.1954C106.318 60.0734 106.059 59.7044 106.059 59.3744C106.059 59.0444 105.699 58.1324 105.259 57.3494C104.819 56.5664 104.459 55.6604 104.459 55.3374C104.459 55.0144 104.324 54.7484 104.159 54.7464C103.994 54.7444 103.661 54.3394 103.419 53.8464C102.111 51.1754 99.4504 46.1224 99.2614 45.9494C99.1414 45.8394 98.8254 45.2544 98.5594 44.6494C98.2944 44.0444 97.8924 43.5494 97.6684 43.5494C97.4434 43.5494 97.2594 43.3084 97.2594 43.0144C97.2594 42.7194 96.3654 41.5044 95.2734 40.3144C94.1814 39.1234 93.2814 38.0284 93.2734 37.8804C93.2654 37.7324 92.5394 36.9054 91.6594 36.0424C90.7794 35.1804 90.0594 34.2714 90.0594 34.0244C90.0594 33.7774 89.8344 33.6594 89.5594 33.7634C89.2844 33.8674 88.4294 33.4124 87.6594 32.7524C86.8894 32.0914 86.0344 31.5504 85.7594 31.5504C85.4844 31.5494 85.2594 31.4134 85.2594 31.2474C85.2594 31.0804 84.7194 30.7054 84.0594 30.4134C83.3994 30.1214 82.8594 29.6444 82.8594 29.3534C82.8594 29.0314 82.5634 28.9014 82.1044 29.0214C81.6894 29.1304 81.2284 29.0234 81.0814 28.7844C80.9334 28.5454 80.4574 28.3494 80.0234 28.3494C79.5894 28.3494 79.1414 28.1064 79.0264 27.8084C78.9004 27.4794 78.4384 27.3404 77.8444 27.4544C77.1934 27.5794 76.7874 27.4274 76.6224 26.9984C76.4504 26.5494 76.0874 26.4274 75.4214 26.5944C74.7524 26.7624 74.3924 26.6394 74.2164 26.1824C74.0274 25.6894 73.6524 25.5894 72.6744 25.7734C71.8474 25.9284 71.1804 25.8234 70.8214 25.4824C70.0104 24.7124 58.1014 24.7204 57.2894 25.4904C56.9364 25.8264 56.2274 25.9514 55.4214 25.8204C54.4804 25.6684 54.0564 25.7794 53.8864 26.2244C53.7214 26.6544 53.2794 26.7844 52.4174 26.6584C51.6194 26.5404 51.1134 26.6654 50.9794 27.0134C50.8644 27.3134 50.1864 27.5494 49.4404 27.5494C48.7064 27.5494 47.9854 27.7454 47.8374 27.9844C47.6904 28.2234 47.2414 28.3334 46.8404 28.2284C46.4384 28.1234 46.0154 28.2874 45.8974 28.5934C45.7804 28.8994 45.2284 29.1494 44.6724 29.1494C44.1154 29.1494 43.6594 29.3294 43.6594 29.5494C43.6594 29.7694 43.3874 29.9494 43.0544 29.9494C42.4674 29.9494 42.0664 30.1074 40.1594 31.0874C38.1674 32.1104 37.8204 32.2804 36.8594 32.7034C35.7474 33.1934 34.6964 33.8474 33.5784 34.7494C33.1684 35.0794 32.6914 35.3494 32.5174 35.3494C32.3444 35.3494 31.8874 35.6644 31.5024 36.0494C31.1174 36.4344 30.6454 36.7494 30.4534 36.7494C30.2614 36.7494 29.4194 37.3784 28.5814 38.1474C27.7444 38.9164 26.9224 39.5464 26.7554 39.5474C26.5884 39.5484 25.8684 40.1104 25.1554 40.7974C24.4424 41.4834 23.0804 42.6864 22.1274 43.4714C18.4404 46.5084 16.8904 50.5304 18.8594 51.9494C19.2994 52.2664 19.6594 52.7114 19.6604 52.9374C19.6614 53.1814 20.8974 53.3594 22.6904 53.3744C24.7154 53.3914 25.8264 53.5724 26.0404 53.9184C26.2674 54.2854 26.8404 54.3554 28.0094 54.1584C29.2934 53.9414 29.7094 54.0134 29.8894 54.4844C30.0594 54.9264 30.4884 55.0294 31.4904 54.8664C32.3734 54.7234 32.8594 54.8054 32.8594 55.0974C32.8594 55.3454 33.3094 55.5494 33.8594 55.5494C34.4094 55.5494 34.8594 55.7294 34.8594 55.9494C34.8594 56.1694 35.1314 56.3494 35.4644 56.3494C36.1734 56.3494 37.4894 57.0604 38.6144 58.0494C39.0524 58.4344 39.6464 58.7494 39.9344 58.7494C40.2234 58.7494 40.4594 58.9294 40.4594 59.1494C40.4594 59.3694 40.6954 59.5494 40.9824 59.5494C42.1074 59.5494 49.2594 67.3354 49.2594 68.5594C49.2594 68.7064 49.6364 69.3554 50.0964 70.0014C50.5574 70.6484 50.8384 71.4264 50.7224 71.7304C50.6054 72.0344 50.7684 72.3824 51.0844 72.5034C51.4064 72.6274 51.6594 73.2484 51.6594 73.9134C51.6594 74.5674 51.8564 75.2244 52.0974 75.3724C52.3374 75.5214 52.4544 76.0634 52.3564 76.5764C52.2444 77.1614 52.3993 77.5944 52.7733 77.7374C53.2353 77.9154 53.3164 78.4064 53.1374 79.9234C52.9524 81.4804 53.0344 81.9304 53.5334 82.1224C54.0494 82.3204 54.1134 82.7824 53.8944 84.7174C53.6964 86.4734 53.7594 87.1164 54.1434 87.2444C54.5274 87.3724 54.6594 88.6664 54.6594 92.2824C54.6594 94.9594 54.8184 97.1494 55.0134 97.1494C55.2084 97.1494 55.7844 97.5994 56.2944 98.1494C57.3984 99.3414 58.3304 99.3974 59.5884 98.3484C60.7364 97.3914 61.1714 87.0884 60.1104 85.9724C59.7204 85.5614 59.6224 84.7344 59.7704 83.0994C59.9354 81.2754 59.8534 80.7554 59.3674 80.5694C58.9084 80.3934 58.8084 79.9434 58.9664 78.7694C59.1234 77.5954 59.0234 77.1444 58.5664 76.9694C58.1094 76.7934 58.0084 76.3424 58.1664 75.1694C58.3164 74.0474 58.2174 73.5424 57.8174 73.3884C57.5104 73.2714 57.2594 72.8964 57.2594 72.5564C57.2594 72.2164 57.1004 71.6264 56.9064 71.2444C56.5634 70.5714 56.3184 69.9994 55.1954 67.2494C54.9034 66.5344 54.5284 65.9494 54.3614 65.9494C54.1954 65.9494 54.0594 65.5894 54.0594 65.1494C54.0594 64.7094 53.8794 64.3494 53.6594 64.3494C53.4394 64.3494 53.2594 64.1244 53.2594 63.8494C53.2584 63.0764 48.3724 57.6384 46.3454 56.1544C45.7484 55.7174 45.2594 55.1324 45.2594 54.8544C45.2594 54.5764 44.9414 54.3494 44.5524 54.3494C44.1634 54.3494 43.1824 53.8994 42.3734 53.3494C41.5644 52.7994 40.6224 52.3494 40.2804 52.3494C39.9394 52.3494 39.6594 52.0674 39.6594 51.7224C39.6594 51.2774 39.4274 51.1694 38.8594 51.3494C38.2824 51.5324 38.0594 51.4214 38.0594 50.9494C38.0594 50.4874 37.8344 50.3664 37.2934 50.5384C36.8714 50.6724 36.4114 50.5944 36.2694 50.3654C36.1284 50.1364 35.6604 49.9494 35.2304 49.9494C34.8004 49.9494 34.0914 49.7694 33.6544 49.5494C33.2174 49.3294 32.5014 48.9694 32.0644 48.7494C31.6274 48.5294 30.5824 48.3494 29.7414 48.3494C26.9064 48.3494 26.4044 47.4794 28.2704 45.7984C29.1444 45.0114 30.0024 44.3634 30.1774 44.3584C30.3524 44.3534 30.9324 43.9124 31.4664 43.3784C32.0004 42.8444 32.9824 42.0854 33.6484 41.6924C34.3144 41.2984 34.8594 40.8354 34.8594 40.6634C34.8594 40.4904 35.2194 40.3494 35.6594 40.3494C36.0994 40.3494 36.4594 40.1994 36.4594 40.0174C36.4594 39.8344 36.9544 39.4294 37.5594 39.1174C38.1644 38.8054 38.7494 38.4604 38.8594 38.3504C39.3354 37.8724 40.8983 37.1494 41.4543 37.1494C41.7873 37.1494 42.0594 37.0134 42.0594 36.8474C42.0594 36.6804 42.6444 36.3074 43.3594 36.0164C44.0744 35.7264 45.3514 35.1424 46.1974 34.7194C47.0434 34.2954 47.9884 33.9494 48.2974 33.9494C48.6064 33.9494 48.8594 33.7454 48.8594 33.4974C48.8594 33.2054 49.3454 33.1234 50.2284 33.2664C51.2274 33.4294 51.6594 33.3264 51.8274 32.8874C51.9934 32.4554 52.3824 32.3564 53.2084 32.5384C54.0734 32.7284 54.4224 32.6244 54.6164 32.1164C54.8344 31.5494 55.2294 31.4824 57.0904 31.7014C58.7954 31.9024 59.4434 31.8224 59.9104 31.3554C60.8004 30.4654 67.9804 30.4794 68.3234 31.3714C68.5174 31.8764 68.9664 31.9434 70.7054 31.7264C72.4694 31.5064 72.8934 31.5724 73.0964 32.1014C73.2684 32.5494 73.6314 32.6714 74.2974 32.5044C74.9424 32.3424 75.3264 32.4584 75.4814 32.8624C75.6174 33.2164 76.0204 33.3804 76.4684 33.2634C76.8904 33.1524 77.6994 33.4374 78.2964 33.9074C78.8854 34.3704 79.6134 34.7494 79.9134 34.7494C80.2134 34.7494 80.4594 35.0024 80.4594 35.3124C80.4594 35.6774 80.7394 35.8014 81.2594 35.6654C81.7134 35.5464 82.0594 35.6534 82.0594 35.9114C82.0594 36.1614 82.5544 36.5864 83.1594 36.8554C83.7644 37.1254 85.0154 38.0664 85.9384 38.9474C86.8614 39.8284 87.8114 40.7294 88.0474 40.9494C89.0464 41.8774 90.7354 43.8454 91.6524 45.1494C92.1944 45.9194 92.9574 46.8984 93.3484 47.3244C93.7394 47.7514 94.0594 48.2584 94.0594 48.4524C94.0594 48.6464 94.5654 49.5574 95.1844 50.4774C96.6374 52.6364 98.6644 56.8184 98.5414 57.4034C98.4884 57.6534 98.7184 57.9634 99.0524 58.0914C99.3864 58.2194 99.6594 58.5834 99.6594 58.8994C99.6594 59.3954 100.259 60.7814 101.723 63.6654C101.923 64.0594 101.991 64.5354 101.875 64.7234C101.759 64.9114 101.952 65.1764 102.304 65.3114C102.759 65.4854 102.872 65.8444 102.694 66.5534C102.506 67.3014 102.602 67.5494 103.078 67.5494C103.531 67.5494 103.64 67.7784 103.459 68.3494C103.276 68.9264 103.387 69.1494 103.859 69.1494C104.331 69.1494 104.442 69.3724 104.259 69.9494C104.073 70.5344 104.187 70.7494 104.682 70.7494C105.221 70.7494 105.31 70.9944 105.119 71.9494C104.935 72.8674 105.024 73.1494 105.496 73.1494C105.931 73.1494 106.038 73.3854 105.859 73.9494C105.679 74.5174 105.787 74.7494 106.232 74.7494C106.958 74.7494 107.028 75.4534 106.452 76.9684C106.155 77.7494 105.837 77.9844 105.278 77.8384C104.819 77.7184 104.418 77.8794 104.28 78.2394C104.129 78.6324 103.705 78.7744 103.054 78.6504C102.507 78.5464 102.059 78.6024 102.059 78.7754C102.059 78.9484 101.024 79.5694 99.7594 80.1544C98.4944 80.7404 97.1444 81.3834 96.7594 81.5844C96.3744 81.7854 95.6994 82.1294 95.2594 82.3494C93.5704 83.1934 92.7044 83.6504 91.4044 84.3804C90.6644 84.7954 90.0534 85.0034 90.0464 84.8424C90.0394 84.6814 89.8144 84.8194 89.5464 85.1494C89.2784 85.4794 88.5644 86.0044 87.9594 86.3174C87.3544 86.6294 86.8594 87.0344 86.8594 87.2174C86.8594 87.3994 86.6304 87.5494 86.3504 87.5494C86.0704 87.5494 84.8554 88.4454 83.6504 89.5394C82.4454 90.6344 81.3094 91.5344 81.1264 91.5394C80.5334 91.5574 72.9424 99.5914 71.1744 102.072C70.2314 103.395 69.1894 104.781 68.8594 105.151C68.2224 105.865 67.4794 107.137 65.5324 110.849C64.8684 112.114 64.1764 113.149 63.9924 113.149C63.8094 113.149 63.6594 113.481 63.6594 113.888C63.6594 114.79 62.5214 117.149 62.0854 117.149C61.9124 117.149 61.8564 117.597 61.9604 118.144C62.0894 118.816 61.9424 119.219 61.5084 119.386C61.0724 119.553 60.9384 119.924 61.0924 120.536C61.2424 121.134 61.1134 121.52 60.7114 121.674C60.2604 121.847 60.1624 122.272 60.3324 123.321C60.5054 124.39 60.4074 124.794 59.9274 124.978C59.4584 125.158 59.3574 125.539 59.5384 126.445C59.7024 127.264 59.5974 127.815 59.2214 128.109C58.8284 128.416 58.6594 129.443 58.6594 131.516C58.6594 133.533 58.4994 134.536 58.1594 134.649C57.4464 134.887 57.4464 144.611 58.1594 144.849C58.5064 144.964 58.6594 146.044 58.6594 148.382C58.6594 150.798 58.8184 151.873 59.2214 152.189C59.6064 152.491 59.7104 153.078 59.5514 154.058C59.3784 155.125 59.4744 155.546 59.9334 155.722C60.3684 155.889 60.4994 156.358 60.3844 157.342C60.2804 158.232 60.4074 158.797 60.7414 158.925C61.0264 159.034 61.2594 159.569 61.2594 160.113C61.2594 160.657 61.4394 161.213 61.6594 161.349C61.8794 161.485 62.0594 162.115 62.0594 162.749C62.0594 163.383 62.2554 164.023 62.4944 164.171C62.7334 164.318 62.8434 164.767 62.7384 165.168C62.6334 165.57 62.7974 165.993 63.1034 166.111C63.4094 166.228 63.6594 166.765 63.6594 167.303C63.6594 167.842 63.7944 168.342 63.9594 168.416C64.5554 168.681 66.0224 171.98 65.8004 172.557C65.6694 172.9 65.8024 173.15 66.1164 173.152C66.6134 173.155 67.6594 174.845 67.6594 175.645C67.6594 175.831 68.0194 176.369 68.4594 176.841C68.8994 177.313 69.2594 177.936 69.2594 178.224C69.2594 178.513 69.4394 178.749 69.6594 178.749C69.8794 178.749 70.0594 179.017 70.0594 179.344C70.0594 179.672 70.3194 180.257 70.6374 180.644C70.9544 181.032 72.0774 182.519 73.1314 183.949C74.1864 185.379 75.3664 186.898 75.7544 187.324C76.1424 187.751 76.4594 188.236 76.4594 188.402C76.4594 188.847 87.1064 199.549 87.5484 199.549C87.7544 199.549 88.8324 200.449 89.9444 201.549C91.0564 202.649 92.1324 203.549 92.3374 203.549C92.5414 203.549 93.0574 203.864 93.4844 204.249C93.9104 204.634 94.7544 205.204 95.3594 205.517C95.9644 205.829 96.4594 206.334 96.4594 206.64C96.4594 206.946 96.6473 207.08 96.8773 206.938C97.1063 206.796 97.5114 206.856 97.7774 207.072C98.3094 207.504 100.397 208.706 103.459 210.341C108.805 213.196 110.436 213.949 111.273 213.949C111.679 213.949 112.123 214.129 112.259 214.349C112.395 214.569 112.856 214.749 113.283 214.749C113.71 214.749 114.059 214.929 114.059 215.149C114.059 215.369 114.588 215.549 115.235 215.549C115.882 215.549 116.523 215.729 116.659 215.949C116.795 216.169 117.335 216.349 117.859 216.349C118.383 216.349 118.923 216.529 119.059 216.749C119.195 216.969 119.915 217.149 120.659 217.149C121.403 217.149 122.111 217.309 122.232 217.505C122.353 217.7 123.083 217.97 123.855 218.105C124.627 218.239 125.903 218.46 126.69 218.596C127.477 218.732 128.208 219.071 128.314 219.348C128.453 219.711 129.211 219.797 131.006 219.652C132.803 219.508 133.667 219.606 134.082 220C134.495 220.393 135.843 220.549 138.826 220.549C141.804 220.549 143.04 220.692 143.159 221.049C143.395 221.756 151.123 221.756 151.359 221.049C151.477 220.694 152.675 220.549 155.492 220.549C158.315 220.549 159.626 220.39 160.039 219.998C160.467 219.59 161.32 219.505 163.306 219.672C165.514 219.857 166.036 219.785 166.233 219.272C166.413 218.804 166.825 218.704 167.866 218.873C168.961 219.05 169.259 218.964 169.259 218.471C169.259 217.972 169.58 217.887 170.832 218.055C172.005 218.212 172.464 218.112 172.636 217.664C172.799 217.241 173.278 217.11 174.252 217.224C175.191 217.334 175.706 217.204 175.853 216.822C175.989 216.466 176.436 216.328 177.061 216.447C177.624 216.555 178.25 216.401 178.505 216.093C178.754 215.794 179.464 215.549 180.084 215.549C180.704 215.549 181.323 215.369 181.459 215.149C181.595 214.929 182.146 214.749 182.683 214.749C183.22 214.749 183.659 214.569 183.659 214.349C183.659 214.129 184.199 213.949 184.859 213.949C185.519 213.949 186.059 213.757 186.059 213.522C186.059 213.286 186.396 213.202 186.812 213.334C187.3 213.489 187.653 213.342 187.817 212.915C187.989 212.467 188.385 212.318 189.064 212.448C189.73 212.575 190.059 212.458 190.059 212.094C190.059 211.794 190.419 211.549 190.859 211.549C191.299 211.549 191.659 211.369 191.659 211.149C191.659 210.929 192.019 210.749 192.459 210.749C192.899 210.749 193.259 210.569 193.259 210.349C193.259 210.129 193.664 209.945 194.159 209.94C194.654 209.935 195.509 209.579 196.059 209.149C196.609 208.719 197.301 208.363 197.597 208.358C197.893 208.353 198.613 208.017 199.197 207.612C199.781 207.206 200.844 206.622 201.559 206.314C202.274 206.006 202.859 205.618 202.859 205.451C202.859 205.285 203.219 205.149 203.659 205.149C204.099 205.149 204.459 204.969 204.459 204.749C204.459 204.529 204.649 204.349 204.881 204.349C205.113 204.349 206.363 203.629 207.659 202.749C208.955 201.869 210.205 201.149 210.437 201.149C210.669 201.149 210.859 200.999 210.859 200.817C210.859 200.634 211.354 200.229 211.959 199.917C212.564 199.604 213.408 199.034 213.834 198.649C214.261 198.264 214.801 197.949 215.036 197.949C215.27 197.949 215.971 197.409 216.594 196.749C217.217 196.089 217.867 195.549 218.037 195.549C218.208 195.549 219.218 194.739 220.281 193.749C221.344 192.759 222.37 191.949 222.561 191.949C223.046 191.949 236.039 178.891 237.42 177.017C238.903 175.004 240.731 173.149 241.233 173.149C241.453 173.149 241.547 172.922 241.44 172.645C241.334 172.367 241.79 171.546 242.453 170.82C243.116 170.094 243.659 169.318 243.659 169.096C243.659 168.543 244.696 167.549 245.273 167.549C245.532 167.549 245.654 167.313 245.543 167.024C245.433 166.736 245.679 166.061 246.092 165.524C246.504 164.988 246.845 164.343 246.85 164.092C246.855 163.84 247.155 163.521 247.516 163.382C247.878 163.244 248.059 163.016 247.92 162.876C247.78 162.737 247.825 162.426 248.02 162.186C250.132 159.579 250.616 156.506 249.159 154.957C248.137 153.871 243.263 153.337 242.95 154.276C242.863 154.536 242.368 154.749 241.849 154.749C241.331 154.749 240.795 154.929 240.659 155.149C240.523 155.369 239.983 155.549 239.459 155.549C238.935 155.549 238.39 155.736 238.249 155.965C238.107 156.194 237.668 156.279 237.273 156.153C236.82 156.01 236.46 156.169 236.3 156.586C236.113 157.073 235.743 157.186 234.889 157.015C234.082 156.854 233.664 156.96 233.508 157.366C233.385 157.687 232.839 157.949 232.295 157.949C231.751 157.949 231.184 158.146 231.036 158.387C230.887 158.627 230.345 158.744 229.832 158.646C229.247 158.534 228.814 158.689 228.671 159.062C228.497 159.516 228.032 159.599 226.689 159.415C225.301 159.225 224.884 159.308 224.69 159.813C224.503 160.3 224.103 160.396 223.006 160.218C221.983 160.052 221.384 160.167 220.933 160.618C220.414 161.137 219.736 161.204 217.162 160.989C214.567 160.773 213.912 160.839 213.378 161.373C212.557 162.194 204.437 162.085 204.159 161.249C204.036 160.881 203.279 160.816 201.282 161.002C198.143 161.293 197.465 160.827 199.216 159.58C199.858 159.123 200.54 158.749 200.732 158.749C200.925 158.749 201.342 158.389 201.659 157.949C201.976 157.509 202.388 157.149 202.575 157.149C202.898 157.149 206.437 154.856 206.859 154.373C206.969 154.247 207.741 153.636 208.574 153.015C210.527 151.559 219.259 142.913 219.259 142.436C219.259 141.861 220.701 140.349 221.249 140.349C221.521 140.349 221.65 140.103 221.535 139.802C221.419 139.501 221.85 138.68 222.492 137.977C223.134 137.275 223.659 136.441 223.659 136.124C223.659 135.808 223.937 135.549 224.277 135.549C224.616 135.549 224.857 135.324 224.812 135.049C224.706 134.397 225.447 132.626 226.126 131.911C226.851 131.147 229.259 126.368 229.259 125.693C229.259 125.394 229.541 125.149 229.886 125.149C230.331 125.149 230.439 124.917 230.259 124.349C230.113 123.89 230.187 123.549 230.432 123.549C230.667 123.549 230.859 123.217 230.859 122.81C230.859 121.908 231.997 119.549 232.433 119.549C232.606 119.549 232.662 119.101 232.558 118.554C232.429 117.882 232.576 117.479 233.01 117.312C233.449 117.144 233.58 116.775 233.424 116.151C233.297 115.648 233.389 115.116 233.627 114.969C233.864 114.822 234.059 114.352 234.059 113.925C234.059 113.498 234.318 113.149 234.634 113.149C235.063 113.149 235.153 112.808 234.99 111.8C234.862 111.01 234.955 110.337 235.215 110.176C235.459 110.025 235.659 109.372 235.659 108.725C235.659 107.982 235.866 107.549 236.221 107.549C236.641 107.549 236.731 107.164 236.578 106.021C236.439 104.984 236.561 104.304 236.959 103.906C237.33 103.536 237.476 102.848 237.358 102.039C237.22 101.103 237.345 100.691 237.822 100.508C238.35 100.305 238.427 99.8994 238.225 98.3744C238.035 96.9464 238.127 96.3394 238.603 95.8624C239.083 95.3824 239.175 94.7554 238.99 93.2004C238.804 91.6264 238.881 91.1154 239.332 90.9424C239.797 90.7644 239.879 90.0534 239.74 87.4094C239.612 84.9594 239.709 83.9494 240.115 83.5244C240.523 83.0964 240.662 81.5914 240.661 77.6354C240.66 74.5474 240.827 72.2014 241.059 72.0354C241.623 71.6324 241.645 49.4454 241.081 49.0634C240.818 48.8854 240.648 46.4714 240.629 42.6634C240.613 39.3004 240.433 36.1894 240.229 35.7494C240.026 35.3094 239.871 32.6994 239.886 29.9494C239.906 26.1234 239.779 24.8154 239.342 24.3764C238.941 23.9744 238.839 23.2984 239.002 22.1144C239.182 20.7994 239.094 20.3714 238.604 20.1834C238.159 20.0134 238.048 19.6494 238.224 18.9454C238.408 18.2114 238.314 17.9494 237.867 17.9494C237.532 17.9494 237.259 17.7694 237.259 17.5494C237.259 17.3294 237.008 17.1494 236.702 17.1494C236.395 17.1494 236.041 16.8794 235.914 16.5494C235.552 15.6054 233.964 15.9194 232.759 17.1734ZM234.269 32.4494C234.429 34.4844 234.533 38.6564 234.502 41.7214C234.46 45.8404 234.577 47.3754 234.952 47.6064C235.689 48.0624 235.692 74.4054 234.954 74.6514C234.567 74.7804 234.51 75.8244 234.71 79.1164C234.922 82.6094 234.862 83.5154 234.388 83.9574C233.975 84.3444 233.855 85.0954 233.976 86.5534C234.102 88.0734 233.98 88.7714 233.505 89.2454C232.995 89.7564 232.916 90.3794 233.118 92.3094C233.332 94.3584 233.267 94.7714 232.698 94.9894C232.155 95.1984 232.073 95.5724 232.276 96.9214C232.46 98.1504 232.369 98.7264 231.933 99.0884C231.514 99.4354 231.402 100.046 231.551 101.157C231.716 102.385 231.616 102.791 231.101 102.988C230.59 103.184 230.498 103.549 230.694 104.595C230.894 105.66 230.816 105.949 230.329 105.949C229.845 105.949 229.759 106.254 229.935 107.342C230.107 108.4 230.006 108.795 229.513 108.984C229.059 109.158 228.937 109.519 229.104 110.187C229.269 110.845 229.15 111.216 228.719 111.381C228.275 111.552 228.158 111.946 228.317 112.737C228.441 113.359 228.345 113.972 228.099 114.124C227.857 114.274 227.659 114.751 227.659 115.185C227.659 115.619 227.379 116.082 227.036 116.213C226.693 116.345 226.51 116.706 226.629 117.016C226.748 117.326 226.598 117.674 226.296 117.79C225.964 117.917 225.833 118.33 225.965 118.835C226.104 119.363 225.926 119.857 225.481 120.182C225.095 120.465 224.898 120.889 225.044 121.125C225.19 121.361 225.048 121.655 224.729 121.778C224.384 121.91 224.23 122.316 224.35 122.775C224.487 123.3 224.348 123.549 223.918 123.549C223.539 123.549 223.371 123.774 223.499 124.109C223.617 124.416 223.521 124.787 223.286 124.932C223.051 125.077 222.859 125.546 222.859 125.973C222.859 126.4 222.713 126.749 222.534 126.749C222.355 126.749 221.954 127.398 221.642 128.192C221.331 128.986 220.698 129.932 220.236 130.296C219.773 130.66 219.451 131.135 219.52 131.353C219.589 131.571 219.108 132.358 218.452 133.103C217.796 133.848 217.259 134.67 217.259 134.93C217.259 135.19 216.269 136.467 215.059 137.767C213.849 139.067 212.859 140.257 212.859 140.412C212.859 141.053 205.368 148.172 202.754 150.015C202.042 150.517 201.11 151.247 200.684 151.638C200.257 152.029 199.672 152.349 199.384 152.349C199.095 152.349 198.859 152.499 198.859 152.681C198.859 152.864 198.364 153.269 197.759 153.581C197.154 153.893 196.569 154.238 196.459 154.348C196.349 154.459 195.539 154.923 194.659 155.379C193.779 155.836 192.699 156.404 192.259 156.643C190.373 157.665 188.651 158.289 188.545 157.989C188.482 157.811 187.99 157.75 187.45 157.853C186.822 157.973 186.388 157.829 186.244 157.454C186.1 157.079 185.666 156.935 185.039 157.055C184.472 157.163 184.059 157.054 184.059 156.796C184.059 156.55 183.787 156.349 183.454 156.349C183.121 156.349 182.536 156.181 182.154 155.975C181.772 155.77 180.874 155.366 180.159 155.078C179.444 154.789 178.859 154.33 178.859 154.056C178.859 153.778 178.461 153.601 177.959 153.654C177.429 153.71 177.098 153.549 177.154 153.263C177.212 152.971 176.997 152.875 176.614 153.022C176.264 153.156 175.861 153.104 175.719 152.907C175.576 152.71 174.739 152.175 173.859 151.719C171.254 150.367 170.303 149.784 169.663 149.146C169.331 148.815 168.564 148.289 167.959 147.979C167.354 147.668 166.859 147.264 166.859 147.081C166.859 146.899 166.688 146.749 166.479 146.749C165.417 146.749 158.059 140.482 158.059 139.577C158.059 139.356 157.801 139.273 157.485 139.394C156.932 139.607 145.259 128.262 145.259 127.512C145.259 127.331 144.539 126.426 143.659 125.501C142.779 124.576 142.059 123.706 142.059 123.569C142.059 123.431 141.159 122.36 140.059 121.188C138.959 120.017 138.059 118.848 138.059 118.592C138.059 118.335 137.699 117.866 137.259 117.549C136.819 117.232 136.459 116.787 136.459 116.561C136.458 116.334 135.991 115.609 135.421 114.949C134.85 114.289 134.126 113.254 133.811 112.649C133.496 112.044 133.063 111.549 132.849 111.549C132.634 111.549 132.459 111.279 132.459 110.949C132.459 110.619 132.099 109.989 131.659 109.549C131.219 109.109 130.859 108.603 130.859 108.424C130.859 108.246 130.544 107.742 130.159 107.304C129.774 106.866 129.234 106.112 128.959 105.629C128.684 105.145 128.234 104.351 127.959 103.864C127.684 103.378 127.234 102.735 126.959 102.436C126.684 102.137 126.459 101.545 126.459 101.12C126.459 100.677 126.184 100.349 125.812 100.349C125.363 100.349 125.229 100.105 125.375 99.5494C125.502 99.0624 125.387 98.7494 125.081 98.7494C124.805 98.7494 123.97 97.5344 123.227 96.0494C122.483 94.5644 121.782 93.2594 121.667 93.1494C121.192 92.6934 120.459 91.1184 120.459 90.5544C120.459 90.2214 120.324 89.9484 120.159 89.9464C119.8 89.9424 118.859 88.0054 118.859 87.2694C118.859 86.9834 118.7 86.7494 118.506 86.7494C118.311 86.7494 118.052 86.4344 117.93 86.0494C117.808 85.6644 117.4 84.8094 117.023 84.1494C115.204 80.9624 115.159 80.1494 116.823 80.4824C117.665 80.6504 118.053 80.5414 118.228 80.0864C118.387 79.6714 118.799 79.5214 119.444 79.6444C120.066 79.7634 120.5 79.6184 120.644 79.2444C120.786 78.8744 121.18 78.7404 121.716 78.8804C122.21 79.0094 122.822 78.8434 123.183 78.4824C123.613 78.0524 124.266 77.9254 125.317 78.0664C126.335 78.2034 126.804 78.1184 126.746 77.8094C126.694 77.5334 127.22 77.3494 128.059 77.3494C128.829 77.3494 129.657 77.0964 129.899 76.7864C130.223 76.3734 130.837 76.2924 132.22 76.4824C133.383 76.6414 134.01 76.5934 133.863 76.3564C133.568 75.8784 135.433 75.3774 136.288 75.7054C136.635 75.8384 137.208 75.6574 137.562 75.3034C138.038 74.8274 138.642 74.7204 139.894 74.8924C141.218 75.0734 141.636 74.9854 141.828 74.4844C142.013 74.0024 142.44 73.8954 143.569 74.0464C144.591 74.1834 145.242 74.0584 145.623 73.6494C146.033 73.2104 146.685 73.1124 148.086 73.2784C149.583 73.4554 150.042 73.3704 150.229 72.8834C150.399 72.4394 150.862 72.3094 151.852 72.4244C152.776 72.5324 153.306 72.4034 153.447 72.0374C153.582 71.6854 154.145 71.5304 155.013 71.6044C155.759 71.6694 156.661 71.4794 157.017 71.1834C157.441 70.8324 158.279 70.7154 159.439 70.8464C160.78 70.9974 161.269 70.8994 161.443 70.4464C161.61 70.0104 162.044 69.9074 163.035 70.0684C164.042 70.2314 164.459 70.1274 164.635 69.6684C164.818 69.1904 165.283 69.0934 166.643 69.2464C167.98 69.3974 168.469 69.2994 168.643 68.8464C168.81 68.4104 169.244 68.3074 170.235 68.4684C171.201 68.6244 171.66 68.5234 171.815 68.1194C171.954 67.7584 172.617 67.5494 173.623 67.5494C174.497 67.5494 175.334 67.3514 175.484 67.1094C175.636 66.8634 176.249 66.7674 176.871 66.8914C177.667 67.0514 178.056 66.9334 178.23 66.4814C178.412 66.0074 178.818 65.9034 179.835 66.0684C180.838 66.2304 181.259 66.1264 181.433 65.6734C181.589 65.2664 182.006 65.1224 182.664 65.2484C183.363 65.3814 183.659 65.2614 183.659 64.8444C183.659 64.3964 183.956 64.3084 184.859 64.4894C185.758 64.6694 186.059 64.5814 186.059 64.1394C186.059 63.7534 186.465 63.5494 187.235 63.5494C187.882 63.5494 188.523 63.3694 188.659 63.1494C188.795 62.9294 189.346 62.7494 189.883 62.7494C190.42 62.7494 190.859 62.5464 190.859 62.2994C190.859 62.0124 191.295 61.9364 192.059 62.0894C192.99 62.2754 193.259 62.1864 193.259 61.6924C193.259 61.2574 193.507 61.1204 194.044 61.2614C194.476 61.3744 195.038 61.2154 195.293 60.9084C195.548 60.6004 195.999 60.3494 196.296 60.3494C196.592 60.3494 197.499 59.9764 198.312 59.5194C199.124 59.0634 200.12 58.7764 200.524 58.8824C200.928 58.9884 201.262 58.8664 201.266 58.6124C201.275 58.0114 205.096 56.2014 205.642 56.5384C205.871 56.6804 206.062 56.5614 206.066 56.2734C206.07 55.9854 206.97 55.3254 208.066 54.8074C209.162 54.2884 210.059 53.7034 210.059 53.5074C210.059 53.3104 210.419 53.1494 210.859 53.1494C211.299 53.1494 211.659 52.9994 211.659 52.8174C211.659 52.6344 212.151 52.2294 212.753 51.9174C213.355 51.6044 214.171 51.0794 214.566 50.7494C214.962 50.4194 215.414 50.1494 215.572 50.1494C215.73 50.1494 216.849 49.2064 218.059 48.0534C219.269 46.9004 220.376 45.9554 220.519 45.9534C220.866 45.9484 223.659 43.1434 223.659 42.7994C223.659 42.6514 224.559 41.6004 225.659 40.4654C226.759 39.3304 227.659 38.2314 227.659 38.0244C227.659 37.8174 227.916 37.4344 228.23 37.1734C228.736 36.7534 230.186 34.2514 231.43 31.6524C231.666 31.1594 231.994 30.7544 232.159 30.7524C232.324 30.7504 232.459 30.4194 232.459 30.0164C232.459 29.1614 232.793 28.7494 233.486 28.7494C233.821 28.7494 234.073 29.9384 234.269 32.4494ZM110.299 83.6524C110.542 84.1454 111.149 85.3594 111.649 86.3494C112.15 87.3394 112.689 88.4194 112.847 88.7494C113.162 89.4084 113.8 90.6574 114.532 92.0494C114.792 92.5444 115.678 94.2514 116.501 95.8434C117.323 97.4354 118.37 99.2624 118.827 99.9054C119.285 100.547 119.659 101.27 119.659 101.511C119.659 101.752 119.86 101.949 120.106 101.949C120.355 101.949 120.46 102.302 120.343 102.749C120.214 103.244 120.331 103.549 120.65 103.549C120.934 103.549 121.266 103.864 121.388 104.249C121.676 105.158 122.871 107.102 123.759 108.107C124.144 108.543 124.459 109.121 124.459 109.391C124.459 109.661 124.62 109.942 124.817 110.016C125.014 110.089 125.509 110.709 125.917 111.394C127.185 113.521 130.187 117.742 130.531 117.882C130.712 117.956 130.859 118.226 130.86 118.482C130.86 118.739 131.4 119.579 132.059 120.349C132.718 121.119 133.258 121.902 133.258 122.089C133.259 122.275 133.761 122.905 134.374 123.489C134.988 124.072 135.931 125.179 136.47 125.949C137.009 126.719 137.952 127.875 138.565 128.519C139.177 129.162 139.784 130.107 139.912 130.619C140.041 131.13 140.295 131.549 140.477 131.549C140.96 131.549 154.859 145.502 154.859 145.987C154.859 146.212 155.042 146.283 155.267 146.144C155.621 145.925 158.83 148.276 161.545 150.744C162.032 151.187 162.583 151.549 162.769 151.549C162.956 151.549 163.457 151.864 163.884 152.249C164.31 152.634 165.154 153.204 165.759 153.517C166.364 153.829 166.859 154.234 166.859 154.417C166.859 154.599 167.219 154.749 167.659 154.749C168.099 154.749 168.459 154.901 168.459 155.086C168.459 155.272 169.314 155.854 170.359 156.381C171.404 156.907 172.349 157.431 172.459 157.544C172.569 157.657 173.379 158.123 174.259 158.579C175.139 159.036 176.219 159.6 176.659 159.832C177.099 160.065 177.954 160.487 178.559 160.77C179.164 161.053 179.659 161.412 179.659 161.568C179.659 162.057 177.302 162.854 176.488 162.641C176.019 162.518 175.619 162.675 175.481 163.037C175.31 163.481 174.901 163.571 173.901 163.383C172.858 163.188 172.494 163.28 172.298 163.793C172.093 164.325 171.699 164.408 170.289 164.215C168.902 164.025 168.483 164.108 168.29 164.612C168.097 165.115 167.628 165.209 166.072 165.06C164.597 164.918 164.043 165.015 163.878 165.443C163.696 165.917 162.897 165.967 159.259 165.731C156.089 165.526 154.859 165.572 154.859 165.898C154.859 166.19 153.872 166.349 152.059 166.349C150.3 166.349 149.259 166.186 149.259 165.912C149.259 165.606 148.129 165.559 145.515 165.755C142.483 165.982 141.668 165.925 141.226 165.452C140.852 165.052 140.159 164.926 139.028 165.054C137.895 165.181 137.203 165.056 136.828 164.654C136.448 164.247 135.759 164.126 134.577 164.259C133.281 164.405 132.816 164.303 132.635 163.83C132.459 163.371 132.042 163.267 131.035 163.43C130.028 163.594 129.611 163.49 129.435 163.03C129.259 162.571 128.842 162.467 127.835 162.63C126.808 162.797 126.412 162.692 126.224 162.203C126.05 161.749 125.689 161.627 125.021 161.794C124.389 161.953 123.992 161.841 123.847 161.463C123.703 161.085 123.227 160.951 122.444 161.066C121.736 161.17 121.259 161.06 121.259 160.794C121.259 160.549 120.91 160.349 120.483 160.349C120.056 160.349 119.595 160.169 119.459 159.949C119.323 159.729 118.913 159.549 118.547 159.549C117.543 159.549 114.074 157.812 114.066 157.304C114.062 157.047 113.639 156.94 113.059 157.051C112.509 157.156 112.059 157.085 112.059 156.893C112.059 156.701 111.474 156.305 110.759 156.013C108.315 155.015 107.659 154.614 107.659 154.119C107.659 153.821 107.341 153.707 106.859 153.833C106.296 153.98 106.059 153.845 106.059 153.378C106.059 153.013 105.834 152.759 105.559 152.814C104.9 152.947 102.059 151.558 102.059 151.103C102.059 150.908 101.816 150.749 101.518 150.749C101.221 150.749 100.413 150.209 99.7224 149.549C99.0314 148.889 98.3194 148.349 98.1384 148.349C97.9584 148.349 97.4614 148.029 97.0344 147.638C96.6084 147.247 95.6294 146.485 94.8594 145.943C94.0894 145.402 92.4694 143.987 91.2594 142.799C87.9144 139.513 86.7614 138.749 85.1484 138.749C83.1204 138.749 81.6804 140.675 82.5094 142.28C83.0764 143.379 87.1124 147.549 87.6094 147.549C87.7634 147.549 88.7324 148.346 89.7644 149.321C90.7954 150.295 92.1843 151.414 92.8493 151.807C93.5153 152.2 94.0594 152.663 94.0594 152.835C94.0594 153.008 94.2954 153.149 94.5844 153.149C94.8724 153.149 95.4574 153.464 95.8844 153.849C96.3104 154.234 97.1544 154.804 97.7594 155.117C98.3644 155.429 98.8594 155.834 98.8594 156.017C98.8594 156.199 99.0954 156.349 99.3844 156.349C99.6724 156.349 100.257 156.664 100.684 157.05C101.11 157.435 102.314 158.183 103.359 158.712C104.404 159.242 105.259 159.927 105.259 160.235C105.259 160.544 105.443 160.682 105.668 160.543C106.129 160.258 108.459 161.179 108.459 161.647C108.459 161.813 108.731 161.949 109.064 161.949C109.397 161.949 110.027 162.129 110.464 162.349C110.901 162.569 111.617 162.929 112.054 163.149C112.491 163.369 113.121 163.549 113.454 163.549C113.787 163.549 114.059 163.729 114.059 163.949C114.059 164.169 114.324 164.349 114.647 164.349C114.97 164.349 115.876 164.709 116.659 165.149C117.442 165.589 118.427 165.949 118.848 165.949C119.268 165.949 119.723 166.129 119.859 166.349C119.995 166.569 120.546 166.749 121.083 166.749C121.62 166.749 122.059 166.929 122.059 167.149C122.059 167.369 122.678 167.549 123.435 167.549C124.192 167.549 124.923 167.729 125.059 167.949C125.195 168.169 125.841 168.349 126.495 168.349C127.149 168.349 127.772 168.578 127.88 168.859C128.007 169.192 128.627 169.316 129.664 169.217C130.755 169.113 131.318 169.238 131.464 169.617C131.608 169.993 132.168 170.122 133.22 170.021C134.07 169.94 134.887 170.071 135.036 170.311C135.186 170.554 136.441 170.749 137.854 170.749C139.349 170.749 140.62 170.956 140.93 171.251C141.736 172.015 163.635 171.982 164.43 171.216C164.832 170.827 165.741 170.712 167.518 170.825C169.435 170.947 170.088 170.85 170.254 170.417C170.415 169.998 170.879 169.914 172.024 170.097C173.24 170.292 173.629 170.205 173.824 169.695C174.017 169.192 174.432 169.094 175.666 169.259C176.922 169.428 177.259 169.343 177.259 168.861C177.259 168.399 177.543 168.306 178.423 168.482C179.236 168.644 179.654 168.539 179.81 168.132C179.937 167.802 180.551 167.549 181.223 167.549C181.877 167.549 182.533 167.353 182.681 167.114C182.828 166.875 183.277 166.765 183.678 166.87C184.08 166.975 184.503 166.811 184.621 166.505C184.738 166.199 185.172 165.949 185.585 165.949C185.998 165.949 186.887 165.674 187.56 165.338C188.933 164.654 191.995 164.916 192.313 165.745C192.437 166.069 193.146 166.166 194.472 166.038C196.005 165.891 196.498 165.986 196.683 166.467C196.871 166.956 197.356 167.04 199.013 166.869C200.494 166.716 201.274 166.814 201.682 167.206C202.513 168.002 215.597 167.998 216.436 167.2C216.843 166.814 217.669 166.711 219.236 166.853C220.879 167.002 221.602 166.901 222.008 166.466C222.386 166.062 223.163 165.921 224.504 166.014C225.883 166.11 226.512 165.989 226.661 165.6C226.803 165.229 227.246 165.126 228.029 165.283C228.864 165.45 229.254 165.34 229.427 164.887C229.595 164.452 230.029 164.313 230.848 164.433C231.591 164.542 232.103 164.41 232.231 164.077C232.345 163.78 233.041 163.549 233.823 163.549C234.587 163.549 235.333 163.353 235.481 163.114C235.628 162.875 236.089 162.768 236.505 162.877C236.94 162.991 237.408 162.812 237.608 162.455C237.835 162.05 238.311 161.904 238.987 162.033C239.636 162.157 240.096 162.03 240.226 161.69C240.459 161.084 241.659 160.942 241.659 161.52C241.659 161.725 241.389 162.162 241.059 162.492C240.729 162.822 240.459 163.193 240.459 163.317C240.459 163.561 238.054 166.853 236.928 168.149C236.546 168.589 235.891 169.489 235.474 170.149C235.056 170.809 234.027 172.031 233.187 172.864C232.346 173.698 231.659 174.527 231.659 174.706C231.659 175.413 220.725 185.983 220.202 185.782C219.903 185.668 219.659 185.745 219.659 185.954C219.659 186.485 217.301 188.851 215.859 189.767C215.199 190.186 214.068 191.074 213.346 191.739C212.624 192.405 211.9 192.949 211.737 192.949C211.574 192.949 211.006 193.354 210.474 193.849C209.943 194.344 209.287 194.749 209.017 194.749C208.747 194.749 208.466 194.894 208.392 195.072C208.236 195.452 205.296 197.49 203.157 198.701C202.333 199.167 201.074 199.88 200.359 200.284C199.644 200.688 198.834 200.943 198.559 200.851C198.284 200.758 198.059 200.967 198.059 201.316C198.059 201.682 197.722 201.949 197.259 201.949C196.819 201.949 196.459 202.095 196.459 202.274C196.459 202.453 195.829 202.847 195.059 203.149C194.289 203.451 193.659 203.845 193.659 204.024C193.659 204.203 193.406 204.349 193.097 204.349C192.788 204.349 191.753 204.735 190.797 205.206C189.841 205.677 188.609 206.238 188.059 206.452C187.509 206.667 186.746 207.001 186.364 207.196C185.982 207.39 185.318 207.549 184.888 207.549C184.458 207.549 183.985 207.745 183.837 207.984C183.69 208.223 183.229 208.33 182.814 208.221C182.317 208.091 182.059 208.233 182.059 208.636C182.059 209.099 181.775 209.192 180.895 209.016C180.055 208.848 179.665 208.957 179.491 209.409C179.326 209.84 178.955 209.959 178.297 209.794C177.63 209.627 177.268 209.749 177.095 210.201C176.913 210.673 176.535 210.784 175.689 210.615C174.851 210.447 174.464 210.558 174.289 211.015C174.114 211.472 173.727 211.583 172.889 211.415C172.055 211.248 171.664 211.358 171.491 211.809C171.321 212.252 170.957 212.36 170.239 212.18C169.561 212.01 169.009 212.142 168.571 212.58C168.095 213.056 167.481 213.177 166.329 213.022C165.207 212.872 164.561 212.99 164.125 213.426C163.662 213.888 163.017 213.984 161.541 213.81C160.161 213.646 159.413 213.738 159.034 214.117C158.276 214.875 135.213 214.81 134.959 214.049C134.839 213.689 134.192 213.62 132.634 213.804C130.879 214.01 130.43 213.939 130.233 213.426C130.04 212.923 129.593 212.842 128.033 213.027C126.428 213.217 126.029 213.137 125.817 212.583C125.624 212.081 125.272 211.97 124.446 212.152C123.826 212.288 123.22 212.209 123.073 211.972C122.93 211.74 122.392 211.549 121.878 211.549C121.365 211.549 120.842 211.282 120.717 210.956C120.556 210.538 120.146 210.432 119.323 210.596C118.654 210.73 118.04 210.642 117.884 210.389C117.734 210.147 117.257 209.949 116.823 209.949C116.389 209.949 115.935 209.69 115.813 209.374C115.692 209.058 115.328 208.901 115.004 209.026C114.679 209.15 113.659 208.891 112.737 208.45C106.765 205.597 105.444 204.92 105.326 204.651C105.252 204.485 104.847 204.349 104.426 204.349C103.988 204.349 103.659 204.073 103.659 203.706C103.659 203.322 103.436 203.149 103.103 203.277C102.797 203.394 102.212 203.188 101.803 202.82C101.394 202.451 100.564 201.894 99.9594 201.581C99.3544 201.269 98.8594 200.864 98.8594 200.681C98.8594 200.499 98.6344 200.349 98.3594 200.348C98.0844 200.348 97.2294 199.808 96.4594 199.149C95.6894 198.49 94.9124 197.95 94.7324 197.95C94.2984 197.949 91.6594 195.137 91.6594 194.676C91.6594 194.477 91.4084 194.367 91.1024 194.431C90.4434 194.571 85.4054 189.876 82.8594 186.749C81.8734 185.539 80.6104 184.099 80.0514 183.549C79.4924 182.999 78.4604 181.649 77.7584 180.549C77.0554 179.449 76.2954 178.332 76.0704 178.066C75.8444 177.8 75.6594 177.429 75.6594 177.241C75.6594 177.054 75.2834 176.497 74.8244 176.004C74.3654 175.511 74.0894 174.847 74.2124 174.528C74.3394 174.197 74.2004 173.949 73.8894 173.949C73.3014 173.949 72.6834 172.858 72.8134 172.049C72.8584 171.774 72.7024 171.549 72.4674 171.549C71.9854 171.549 71.0874 169.616 71.2124 168.849C71.2574 168.574 71.1154 168.349 70.8954 168.349C70.6764 168.349 70.2034 167.674 69.8444 166.849C69.4854 166.024 69.0274 165.036 68.8254 164.654C68.6244 164.272 68.4594 163.608 68.4594 163.178C68.4594 162.748 68.2724 162.28 68.0434 162.139C67.8144 161.997 67.7294 161.558 67.8554 161.163C67.9974 160.715 67.8414 160.351 67.4414 160.197C67.0014 160.029 66.8394 159.567 66.9264 158.734C67.0024 158.008 66.8304 157.378 66.4994 157.174C66.1604 156.964 66.0354 156.484 66.1784 155.938C66.3204 155.395 66.1694 154.802 65.7924 154.425C65.3634 153.995 65.2354 153.342 65.3764 152.293C65.5054 151.327 65.3934 150.626 65.0654 150.354C63.5554 149.101 63.5844 130.66 65.0974 130.079C65.4864 129.93 65.5674 129.393 65.3934 128.119C65.2034 126.734 65.2864 126.313 65.7884 126.121C66.2434 125.946 66.3614 125.558 66.2014 124.761C66.0774 124.139 66.1734 123.526 66.4194 123.374C66.6614 123.224 66.8594 122.75 66.8594 122.32C66.8594 121.89 67.0184 121.226 67.2124 120.844C67.5554 120.171 67.8004 119.599 68.9234 116.849C69.2154 116.134 69.6914 115.549 69.9804 115.549C70.2704 115.549 70.3924 115.365 70.2534 115.14C69.9684 114.679 70.8894 112.349 71.3574 112.349C71.5234 112.349 71.6594 112.081 71.6594 111.754C71.6594 111.426 71.9174 110.841 72.2334 110.454C73.4754 108.929 75.6594 105.932 75.6594 105.752C75.6594 104.971 85.4384 95.2594 87.7454 93.7494C88.0814 93.5294 89.4504 92.5844 90.7864 91.6494C92.1224 90.7144 93.4054 89.9494 93.6374 89.9494C93.8694 89.9494 94.0594 89.7694 94.0594 89.5494C94.0594 89.3294 94.4194 89.1494 94.8594 89.1494C95.2994 89.1494 95.6594 89.0024 95.6594 88.8234C95.6594 88.4644 98.6984 86.7494 99.3354 86.7494C99.5554 86.7494 100.258 86.3774 100.897 85.9224C101.585 85.4324 102.366 85.1924 102.811 85.3344C103.287 85.4854 103.651 85.3474 103.799 84.9614C103.928 84.6244 104.4 84.3494 104.846 84.3494C105.293 84.3494 105.659 84.1694 105.659 83.9494C105.659 83.7294 106.098 83.5494 106.635 83.5494C107.172 83.5494 107.723 83.3694 107.859 83.1494C108.313 82.4144 109.847 82.7304 110.299 83.6524Z" fill="#FBFBFB"/>
</g>
<defs>
<filter id="filter0_d_105_611" x="0" y="0" width="271.997" height="245.58" filterUnits="userSpaceOnUse" color-interpolation-filters="sRGB">
<feFlood flood-opacity="0" result="BackgroundImageFix"/>
<feColorMatrix in="SourceAlpha" type="matrix" values="0 0 0 0 0 0 0 0 0 0 0 0 0 0 0 0 0 0 127 0" result="hardAlpha"/>
<feOffset dx="2" dy="4"/>
<feGaussianBlur stdDeviation="10"/>
<feComposite in2="hardAlpha" operator="out"/>
<feColorMatrix type="matrix" values="0 0 0 0 0 0 0 0 0 0 0 0 0 0 0 0 0 0 0.18 0"/>
<feBlend mode="normal" in2="BackgroundImageFix" result="effect1_dropShadow_105_611"/>
<feBlend mode="normal" in="SourceGraphic" in2="effect1_dropShadow_105_611" result="shape"/>
</filter>
</defs>
</svg>
