<?xml version="1.0" encoding="UTF-8"?>
<svg fill="none" viewBox="0 0 233 206" xmlns="http://www.w3.org/2000/svg">
<path d="m215.7 1.4239c-0.605 0.629-1.104 1.286-1.109 1.46s-0.361 0.76599-0.791 1.316-0.786 1.321-0.791 1.713c-5e-3 0.391-0.289 0.81999-0.632 0.95099-0.343 0.132-0.53 0.48001-0.417 0.77501 0.113 0.294 0.033 0.642-0.177 0.772-0.211 0.13-0.383 0.586-0.383 1.013s-0.253 0.77601-0.563 0.77601c-0.365 0-0.489 0.28-0.353 0.8 0.115 0.44 0.037 0.8-0.174 0.8-0.212 0-0.815 0.855-1.342 1.9-0.526 1.045-1.05 1.99-1.163 2.1-0.537 0.523-2.005 2.808-2.005 3.12 0 0.565-9.992 10.48-10.561 10.48-0.283 0-0.841 0.36-1.239 0.8s-0.966 0.8-1.262 0.8-0.538 0.15-0.538 0.332c0 0.183-0.495 0.588-1.1 0.9s-1.199 0.7-1.321 0.863c-0.418 0.56-9.72 5.105-10.449 5.105-0.402 0-0.73 0.18-0.73 0.4s-0.349 0.4-0.776 0.4-0.888 0.18-1.024 0.4-0.599 0.4-1.029 0.4-1.094 0.159-1.476 0.353c-2.14 1.089-2.882 1.305-3.647 1.062-0.618-0.196-0.848-0.099-0.848 0.358 0 0.354-0.338 0.627-0.776 0.627-0.427 0-0.899 0.197-1.047 0.438-0.149 0.24-0.691 0.357-1.204 0.259-0.583-0.112-1.018 0.043-1.16 0.413-0.164 0.428-0.604 0.531-1.589 0.371-1.003-0.162-1.424-0.058-1.598 0.395-0.154 0.403-0.573 0.551-1.211 0.429-0.624-0.119-1.056 0.026-1.202 0.404-0.17 0.445-0.611 0.53-1.778 0.343-1.214-0.194-1.605-0.108-1.799 0.399-0.182 0.473-0.56 0.584-1.406 0.415-0.839-0.168-1.225-0.057-1.401 0.402-0.189 0.494-0.641 0.59-2.036 0.432-1.419-0.16-1.793-0.076-1.793 0.4s-0.327 0.55-1.558 0.353c-1.225-0.196-1.611-0.11-1.808 0.402-0.199 0.52-0.604 0.603-2.004 0.411-1.388-0.19-1.805-0.107-1.999 0.398-0.184 0.478-0.587 0.583-1.607 0.417-1.006-0.163-1.424-0.059-1.599 0.399-0.183 0.477-0.597 0.563-1.79 0.372-1.215-0.194-1.605-0.108-1.8 0.4-0.197 0.515-0.654 0.61-2.222 0.459-1.5-0.144-2.028-0.048-2.201 0.401-0.165 0.43-0.635 0.537-1.722 0.391-1.022-0.137-1.673-0.012-2.054 0.397-0.41 0.439-1.062 0.537-2.463 0.371-1.504-0.178-1.956-0.093-2.146 0.402-0.186 0.485-0.593 0.571-1.792 0.379-1.216-0.194-1.605-0.108-1.8 0.401s-0.631 0.606-2.019 0.45c-1.337-0.151-1.826-0.053-2 0.4-0.167 0.436-0.601 0.539-1.592 0.378-1.007-0.163-1.424-0.059-1.6 0.4-0.183 0.478-0.648 0.575-2.008 0.422-1.274-0.144-1.829-0.046-1.98 0.349-0.116 0.301-0.746 0.548-1.4 0.548s-1.311 0.197-1.459 0.438c-0.149 0.24-0.691 0.357-1.204 0.259-0.584-0.112-1.018 0.043-1.16 0.414-0.168 0.437-0.637 0.537-1.793 0.382-1.1682-0.156-1.6252-0.056-1.7982 0.394-0.151 0.393-0.575 0.539-1.213 0.417-0.54-0.103-1.043-2e-3 -1.119 0.226-0.267 0.8-1.591-0.102-1.373-0.935 0.135-0.515 0.01-0.795-0.354-0.795-0.31 0-0.563-0.335-0.563-0.744 0-0.62-1.024-2.978-2.846-6.551-0.195-0.382-0.354-0.967-0.354-1.3s-0.18-0.605-0.4-0.605-0.4-0.439-0.4-0.976-0.192-1.096-0.427-1.241-0.337-0.501-0.226-0.79c0.112-0.29-0.056-0.626-0.372-0.747-0.316-0.122-0.575-0.491-0.575-0.821s-0.36-1.242-0.8-2.025-0.8-1.689-0.8-2.012-0.135-0.589-0.3-0.591-0.498-0.407-0.74-0.9c-1.308-2.671-3.969-7.724-4.158-7.897-0.12-0.11-0.436-0.695-0.702-1.3-0.265-0.605-0.667-1.1-0.891-1.1-0.225 0-0.409-0.241-0.409-0.535 0-0.295-0.894-1.51-1.986-2.7-1.092-1.191-1.992-2.286-2-2.434s-0.734-0.975-1.614-1.838c-0.88-0.862-1.6-1.771-1.6-2.018s-0.225-0.365-0.5-0.261-1.13-0.351-1.9-1.011c-0.77-0.661-1.625-1.202-1.9-1.202-0.275-1e-3 -0.5-0.137-0.5-0.303 0-0.167-0.54-0.542-1.2-0.834s-1.2-0.769-1.2-1.06c0-0.322-0.296-0.452-0.755-0.332-0.415 0.109-0.876 2e-3 -1.023-0.237-0.148-0.239-0.624-0.435-1.058-0.435s-0.882-0.243-0.997-0.541c-0.126-0.329-0.588-0.468-1.182-0.354-0.651 0.125-1.057-0.027-1.222-0.456-0.172-0.449-0.535-0.571-1.201-0.404-0.669 0.168-1.029 0.045-1.205-0.412-0.189-0.49302-0.564-0.59301-1.542-0.409-0.827 0.155-1.494 0.05-1.853-0.29101-0.811-0.77-12.72-0.76201-13.532 0.00799-0.353 0.33602-1.062 0.46102-1.868 0.33002-0.941-0.15202-1.365-0.041-1.535 0.404-0.165 0.43-0.607 0.56-1.469 0.434-0.798-0.118-1.304 7e-3 -1.438 0.355-0.115 0.3-0.793 0.536-1.539 0.536-0.734 0-1.455 0.196-1.603 0.435-0.147 0.239-0.596 0.349-0.997 0.244-0.402-0.105-0.825 0.059-0.943 0.365-0.117 0.306-0.669 0.556-1.225 0.556-0.557 0-1.013 0.18-1.013 0.4s-0.272 0.4-0.605 0.4c-0.587 0-0.988 0.158-2.895 1.138-1.992 1.023-2.339 1.193-3.3 1.616-1.112 0.49-2.163 1.144-3.281 2.046-0.41 0.33-0.887 0.6-1.061 0.6-0.173 0-0.63 0.315-1.015 0.7s-0.857 0.7-1.049 0.7-1.034 0.629-1.872 1.398c-0.837 0.769-1.659 1.399-1.826 1.4s-0.887 0.563-1.6 1.25c-0.713 0.686-2.075 1.889-3.028 2.674-3.687 3.037-5.237 7.059-3.268 8.478 0.44 0.317 0.8 0.762 0.801 0.988 1e-3 0.244 1.237 0.422 3.03 0.437 2.025 0.017 3.136 0.198 3.35 0.544 0.227 0.367 0.8 0.437 1.969 0.24 1.284-0.217 1.7-0.145 1.88 0.326 0.17 0.442 0.599 0.545 1.601 0.382 0.883-0.143 1.369-0.061 1.369 0.231 0 0.248 0.45 0.452 1 0.452s1 0.18 1 0.4 0.272 0.4 0.605 0.4c0.709 0 2.025 0.711 3.15 1.7 0.438 0.385 1.032 0.7 1.32 0.7 0.289 0 0.525 0.18 0.525 0.4s0.236 0.4 0.523 0.4c1.125 0 8.277 7.786 8.277 9.01 0 0.147 0.377 0.796 0.837 1.442 0.461 0.647 0.742 1.425 0.626 1.729-0.117 0.304 0.046 0.652 0.362 0.773 0.322 0.124 0.575 0.745 0.575 1.41 0 0.654 0.197 1.311 0.438 1.459 0.24 0.149 0.357 0.691 0.259 1.204-0.112 0.585 0.043 1.018 0.417 1.161 0.462 0.178 0.543 0.669 0.364 2.186-0.185 1.557-0.103 2.007 0.396 2.199 0.516 0.198 0.58 0.66 0.361 2.595-0.198 1.756-0.135 2.399 0.249 2.527s0.516 1.422 0.516 5.038c0 2.677 0.159 4.867 0.354 4.867s0.771 0.45 1.281 1c1.104 1.192 2.036 1.248 3.294 0.199 1.148-0.957 1.583-11.26 0.522-12.376-0.39-0.411-0.488-1.238-0.34-2.873 0.165-1.824 0.083-2.344-0.403-2.53-0.459-0.176-0.559-0.626-0.401-1.8 0.157-1.174 0.057-1.625-0.4-1.8-0.457-0.176-0.558-0.627-0.4-1.8 0.15-1.122 0.051-1.627-0.349-1.781-0.307-0.117-0.558-0.492-0.558-0.832s-0.159-0.93-0.353-1.312c-0.343-0.673-0.588-1.245-1.711-3.995-0.292-0.715-0.667-1.3-0.834-1.3-0.166 0-0.302-0.36-0.302-0.8s-0.18-0.8-0.4-0.8-0.4-0.225-0.4-0.5c-1e-3 -0.773-4.887-6.211-6.914-7.695-0.597-0.437-1.086-1.022-1.086-1.3s-0.318-0.505-0.707-0.505-1.37-0.45-2.179-1-1.751-1-2.093-1c-0.341 0-0.621-0.282-0.621-0.627 0-0.445-0.232-0.553-0.8-0.373-0.577 0.183-0.8 0.072-0.8-0.4 0-0.462-0.225-0.583-0.766-0.411-0.422 0.134-0.882 0.056-1.024-0.173-0.141-0.229-0.609-0.416-1.039-0.416s-1.139-0.18-1.576-0.4-1.153-0.58-1.59-0.8-1.482-0.4-2.323-0.4c-2.835 0-3.337-0.87-1.471-2.551 0.874-0.787 1.732-1.435 1.907-1.44s0.755-0.446 1.289-0.98 1.516-1.293 2.182-1.686c0.666-0.394 1.211-0.857 1.211-1.029 0-0.173 0.36-0.314 0.8-0.314s0.8-0.15 0.8-0.332c0-0.183 0.495-0.588 1.1-0.9s1.19-0.657 1.3-0.767c0.476-0.478 2.039-1.201 2.595-1.201 0.333 0 0.605-0.136 0.605-0.302 0-0.167 0.585-0.54 1.3-0.831 0.715-0.29 1.992-0.874 2.838-1.297 0.846-0.424 1.791-0.77 2.1-0.77s0.562-0.204 0.562-0.452c0-0.292 0.486-0.374 1.369-0.231 0.999 0.163 1.431 0.06 1.599-0.379 0.166-0.432 0.555-0.531 1.381-0.349 0.865 0.19 1.214 0.086 1.408-0.422 0.218-0.567 0.613-0.634 2.474-0.415 1.705 0.201 2.353 0.121 2.82-0.346 0.89-0.89 8.07-0.876 8.413 0.016 0.194 0.505 0.643 0.572 2.382 0.355 1.764-0.22 2.188-0.154 2.391 0.375 0.172 0.448 0.535 0.57 1.201 0.403 0.645-0.162 1.029-0.046 1.184 0.358 0.136 0.354 0.539 0.518 0.987 0.401 0.422-0.111 1.231 0.174 1.828 0.644 0.589 0.463 1.317 0.842 1.617 0.842s0.546 0.253 0.546 0.563c0 0.365 0.28 0.489 0.8 0.353 0.454-0.119 0.8-0.012 0.8 0.246 0 0.25 0.495 0.675 1.1 0.944 0.605 0.27 1.856 1.211 2.779 2.092s1.873 1.782 2.109 2.002c0.999 0.928 2.688 2.896 3.605 4.2 0.542 0.77 1.305 1.749 1.696 2.175 0.391 0.427 0.711 0.934 0.711 1.128s0.506 1.105 1.125 2.025c1.453 2.159 3.48 6.341 3.357 6.926-0.053 0.25 0.177 0.56 0.511 0.688s0.607 0.492 0.607 0.808c0 0.496 0.6 1.882 2.064 4.766 0.2 0.394 0.268 0.87 0.152 1.058s0.077 0.453 0.429 0.588c0.455 0.174 0.568 0.533 0.39 1.242-0.188 0.748-0.092 0.996 0.384 0.996 0.453 0 0.562 0.229 0.381 0.8-0.183 0.577-0.072 0.8 0.4 0.8s0.583 0.223 0.4 0.8c-0.186 0.585-0.072 0.8 0.423 0.8 0.539 0 0.628 0.245 0.437 1.2-0.184 0.918-0.095 1.2 0.377 1.2 0.435 0 0.542 0.236 0.363 0.8-0.18 0.568-0.072 0.8 0.373 0.8 0.726 0 0.796 0.704 0.22 2.219-0.297 0.781-0.615 1.016-1.174 0.87-0.459-0.12-0.86 0.041-0.998 0.401-0.151 0.393-0.575 0.535-1.226 0.411-0.547-0.104-0.995-0.048-0.995 0.125s-1.035 0.794-2.3 1.379c-1.265 0.586-2.615 1.229-3 1.43s-1.06 0.545-1.5 0.765c-1.689 0.844-2.555 1.301-3.855 2.031-0.74 0.415-1.351 0.623-1.358 0.462s-0.232-0.023-0.5 0.307-0.982 0.855-1.587 1.168c-0.605 0.312-1.1 0.717-1.1 0.9 0 0.182-0.229 0.332-0.509 0.332s-1.495 0.896-2.7 1.99c-1.205 1.095-2.341 1.995-2.524 2-0.593 0.018-8.184 8.052-9.952 10.533-0.943 1.323-1.985 2.709-2.315 3.079-0.637 0.714-1.38 1.986-3.327 5.698-0.664 1.265-1.356 2.3-1.54 2.3-0.183 0-0.333 0.332-0.333 0.739 0 0.902-1.138 3.2611-1.574 3.2611-0.173 0-0.229 0.448-0.125 0.995 0.129 0.672-0.018 1.075-0.452 1.242-0.436 0.167-0.57 0.538-0.416 1.15 0.15 0.598 0.021 0.984-0.381 1.138-0.451 0.173-0.549 0.598-0.379 1.647 0.173 1.069 0.075 1.473-0.405 1.657-0.469 0.18-0.57 0.561-0.389 1.467 0.164 0.819 0.059 1.37-0.317 1.664-0.393 0.307-0.562 1.334-0.562 3.407 0 2.017-0.16 3.02-0.5 3.133-0.713 0.238-0.713 9.962 0 10.2 0.347 0.115 0.5 1.195 0.5 3.533 0 2.416 0.159 3.491 0.562 3.807 0.385 0.302 0.489 0.889 0.33 1.869-0.173 1.067-0.077 1.488 0.382 1.664 0.435 0.167 0.566 0.636 0.451 1.62-0.104 0.89 0.023 1.455 0.357 1.583 0.285 0.109 0.518 0.644 0.518 1.188s0.18 1.1 0.4 1.236 0.4 0.766 0.4 1.4 0.196 1.274 0.435 1.422c0.239 0.147 0.349 0.596 0.244 0.997-0.105 0.402 0.059 0.825 0.365 0.943 0.306 0.117 0.556 0.654 0.556 1.192 0 0.539 0.135 1.039 0.3 1.113 0.596 0.265 2.063 3.564 1.841 4.141-0.131 0.343 2e-3 0.593 0.316 0.595 0.497 3e-3 1.543 1.693 1.543 2.493 0 0.186 0.36 0.724 0.8 1.196s0.8 1.095 0.8 1.383c0 0.289 0.18 0.525 0.4 0.525s0.4 0.268 0.4 0.595c0 0.328 0.26 0.913 0.578 1.3 0.317 0.388 1.44 1.875 2.494 3.305 1.055 1.43 2.235 2.949 2.623 3.375 0.388 0.427 0.705 0.912 0.705 1.078 0 0.445 10.647 11.147 11.089 11.147 0.206 0 1.284 0.9 2.396 2s2.188 2 2.393 2c0.204 0 0.72 0.315 1.147 0.7 0.426 0.385 1.27 0.955 1.875 1.268 0.605 0.312 1.1 0.817 1.1 1.123s0.188 0.44 0.418 0.298c0.229-0.142 0.634-0.082 0.9 0.134 0.532 0.432 2.62 1.634 5.682 3.269 5.346 2.855 6.977 3.608 7.814 3.608 0.406 0 0.85 0.18 0.986 0.4s0.597 0.4 1.024 0.4 0.776 0.18 0.776 0.4 0.529 0.4 1.176 0.4 1.288 0.18 1.424 0.4 0.6762 0.4 1.2002 0.4 1.064 0.18 1.2 0.4 0.856 0.4 1.6 0.4 1.452 0.16 1.573 0.356c0.121 0.195 0.851 0.465 1.623 0.6 0.772 0.134 2.048 0.355 2.835 0.491s1.518 0.475 1.624 0.752c0.139 0.363 0.897 0.449 2.692 0.304 1.797-0.144 2.661-0.046 3.076 0.348 0.413 0.393 1.761 0.549 4.744 0.549 2.978 0 4.214 0.143 4.333 0.5 0.236 0.707 7.964 0.707 8.2 0 0.118-0.355 1.316-0.5 4.133-0.5 2.823 0 4.134-0.159 4.547-0.551 0.428-0.408 1.281-0.493 3.267-0.326 2.208 0.185 2.73 0.113 2.927-0.4 0.18-0.468 0.592-0.568 1.633-0.399 1.095 0.177 1.393 0.091 1.393-0.402 0-0.499 0.321-0.584 1.573-0.416 1.173 0.157 1.632 0.057 1.804-0.391 0.163-0.423 0.642-0.554 1.616-0.44 0.939 0.11 1.454-0.02 1.601-0.402 0.136-0.356 0.583-0.494 1.208-0.375 0.563 0.108 1.189-0.046 1.444-0.354 0.249-0.299 0.959-0.544 1.579-0.544s1.239-0.18 1.375-0.4 0.687-0.4 1.224-0.4 0.976-0.18 0.976-0.4 0.54-0.4 1.2-0.4 1.2-0.192 1.2-0.427c0-0.236 0.337-0.32 0.753-0.188 0.488 0.155 0.841 8e-3 1.005-0.419 0.172-0.448 0.568-0.597 1.247-0.467 0.666 0.127 0.995 0.01 0.995-0.354 0-0.3 0.36-0.545 0.8-0.545s0.8-0.18 0.8-0.4 0.36-0.4 0.8-0.4 0.8-0.18 0.8-0.4 0.405-0.404 0.9-0.409 1.35-0.361 1.9-0.791 1.242-0.786 1.538-0.791 1.016-0.341 1.6-0.746c0.584-0.406 1.647-0.99 2.362-1.298s1.3-0.696 1.3-0.863c0-0.166 0.36-0.302 0.8-0.302s0.8-0.18 0.8-0.4 0.19-0.4 0.422-0.4 1.482-0.72 2.778-1.6 2.546-1.6 2.778-1.6 0.422-0.15 0.422-0.332c0-0.183 0.495-0.588 1.1-0.9 0.605-0.313 1.449-0.883 1.875-1.268 0.427-0.385 0.967-0.7 1.202-0.7 0.234 0 0.935-0.54 1.558-1.2s1.273-1.2 1.443-1.2c0.171 0 1.181-0.81 2.244-1.8s2.089-1.8 2.28-1.8c0.485 0 13.478-13.058 14.859-14.932 1.483-2.013 3.311-3.868 3.813-3.868 0.22 0 0.314-0.227 0.207-0.504-0.106-0.278 0.35-1.099 1.013-1.825s1.206-1.502 1.206-1.724c0-0.553 1.037-1.547 1.614-1.547 0.259 0 0.381-0.236 0.27-0.525-0.11-0.288 0.136-0.963 0.549-1.5 0.412-0.536 0.753-1.181 0.758-1.432 5e-3 -0.252 0.305-0.571 0.666-0.71 0.362-0.138 0.543-0.366 0.404-0.506-0.14-0.139-0.095-0.45 0.1-0.69 2.112-2.607 2.596-5.68 1.139-7.229-1.022-1.086-5.896-1.62-6.209-0.681-0.087 0.26-0.582 0.473-1.101 0.473-0.518 0-1.054 0.18-1.19 0.4s-0.676 0.4-1.2 0.4-1.069 0.187-1.21 0.416c-0.142 0.229-0.581 0.314-0.976 0.188-0.453-0.143-0.813 0.016-0.973 0.433-0.187 0.487-0.557 0.6-1.411 0.429-0.807-0.161-1.225-0.055-1.381 0.351-0.123 0.321-0.669 0.583-1.213 0.583s-1.111 0.197-1.259 0.438c-0.149 0.24-0.691 0.357-1.204 0.259-0.585-0.112-1.018 0.043-1.161 0.416-0.174 0.454-0.639 0.537-1.982 0.353-1.388-0.19-1.805-0.107-1.999 0.398-0.187 0.487-0.587 0.583-1.684 0.405-1.023-0.166-1.622-0.051-2.073 0.4-0.519 0.519-1.197 0.586-3.771 0.371-2.595-0.216-3.25-0.15-3.784 0.384-0.821 0.821-8.941 0.712-9.219-0.124-0.123-0.368-0.88-0.433-2.877-0.247-3.139 0.291-3.817-0.175-2.066-1.422 0.642-0.457 1.324-0.831 1.516-0.831 0.193 0 0.61-0.36 0.927-0.8s0.729-0.8 0.916-0.8c0.323 0 3.862-2.293 4.284-2.776 0.11-0.126 0.882-0.737 1.715-1.358 1.953-1.456 10.685-10.102 10.685-10.579 0-0.575 1.442-2.087 1.99-2.087 0.272 0 0.401-0.246 0.286-0.547-0.116-0.301 0.315-1.122 0.957-1.825 0.642-0.702 1.167-1.536 1.167-1.853 0-0.316 0.278-0.575 0.618-0.575 0.339 0 0.58-0.225 0.535-0.5-0.106-0.652 0.635-2.423 1.314-3.138 0.725-0.764 3.133-5.543 3.133-6.218 0-0.299 0.282-0.544 0.627-0.544 0.445 0 0.553-0.232 0.373-0.8-0.146-0.459-0.072-0.8 0.173-0.8 0.235 0 0.427-0.332 0.427-0.739 0-0.902 1.138-3.261 1.574-3.261 0.173 0 0.229-0.448 0.125-0.995-0.129-0.672 0.018-1.075 0.452-1.242 0.439-0.168 0.57-0.537 0.414-1.161-0.127-0.5031-0.035-1.0351 0.203-1.1821 0.237-0.147 0.432-0.617 0.432-1.044s0.259-0.776 0.575-0.776c0.429 0 0.519-0.341 0.356-1.349-0.128-0.79-0.035-1.463 0.225-1.624 0.244-0.151 0.444-0.804 0.444-1.451 0-0.743 0.207-1.176 0.562-1.176 0.42 0 0.51-0.385 0.357-1.528-0.139-1.037-0.017-1.717 0.381-2.115 0.371-0.37 0.517-1.058 0.399-1.867-0.138-0.936-0.013-1.348 0.464-1.531 0.528-0.203 0.605-0.609 0.403-2.134-0.19-1.428-0.098-2.035 0.378-2.512 0.48-0.48 0.572-1.107 0.387-2.662-0.186-1.574-0.109-2.085 0.342-2.258 0.465-0.178 0.547-0.889 0.408-3.533-0.128-2.45-0.031-3.46 0.375-3.885 0.408-0.428 0.547-1.933 0.546-5.889-1e-3 -3.088 0.166-5.434 0.398-5.6 0.564-0.403 0.586-22.59 0.022-22.972-0.263-0.178-0.433-2.592-0.452-6.4-0.016-3.363-0.196-6.474-0.4-6.914-0.203-0.44-0.358-3.05-0.343-5.8 0.02-3.826-0.107-5.134-0.544-5.573-0.401-0.402-0.503-1.078-0.34-2.262 0.18-1.315 0.092-1.743-0.398-1.931-0.445-0.17-0.556-0.534-0.38-1.238 0.184-0.734 0.09-0.996-0.357-0.996-0.335 0-0.608-0.17999-0.608-0.39999s-0.251-0.4-0.557-0.4c-0.307 0-0.661-0.27-0.788-0.6-0.362-0.944-1.95-0.63-3.155 0.624zm1.51 15.276c0.16 2.035 0.264 6.207 0.233 9.272-0.042 4.119 0.075 5.654 0.45 5.885 0.737 0.456 0.74 26.799 2e-3 27.045-0.387 0.129-0.444 1.173-0.244 4.465 0.212 3.493 0.152 4.399-0.322 4.841-0.413 0.387-0.533 1.138-0.412 2.596 0.126 1.52 4e-3 2.218-0.471 2.692-0.51 0.511-0.589 1.134-0.387 3.064 0.214 2.049 0.149 2.462-0.42 2.68-0.543 0.209-0.625 0.583-0.422 1.932 0.184 1.229 0.093 1.805-0.343 2.167-0.419 0.347-0.531 0.958-0.382 2.069 0.165 1.228 0.065 1.634-0.45 1.831-0.511 0.196-0.603 0.561-0.407 1.607 0.2 1.065 0.122 1.354-0.365 1.354-0.484 0-0.57 0.305-0.394 1.393 0.172 1.058 0.071 1.453-0.422 1.642-0.454 0.174-0.576 0.535-0.409 1.203 0.165 0.658 0.046 1.029-0.385 1.194-0.444 0.171-0.561 0.565-0.402 1.356 0.124 0.622 0.028 1.235-0.218 1.387-0.242 0.15-0.44 0.627-0.44 1.061s-0.28 0.8971-0.623 1.0281c-0.343 0.132-0.526 0.493-0.407 0.803s-0.031 0.658-0.333 0.774c-0.332 0.127-0.463 0.54-0.331 1.045 0.139 0.528-0.039 1.022-0.484 1.347-0.386 0.283-0.583 0.707-0.437 0.943s4e-3 0.53-0.315 0.653c-0.345 0.132-0.499 0.538-0.379 0.997 0.137 0.525-2e-3 0.774-0.432 0.774-0.379 0-0.547 0.225-0.419 0.56 0.118 0.307 0.022 0.678-0.213 0.823s-0.427 0.614-0.427 1.041-0.146 0.776-0.325 0.776-0.58 0.649-0.892 1.443c-0.311 0.794-0.944 1.74-1.406 2.104-0.463 0.364-0.785 0.839-0.716 1.057s-0.412 1.005-1.068 1.75-1.193 1.567-1.193 1.827-0.99 1.537-2.2 2.837-2.2 2.49-2.2 2.645c0 0.641-7.491 7.76-10.105 9.603-0.712 0.502-1.644 1.232-2.07 1.623-0.427 0.391-1.012 0.711-1.3 0.711-0.289 0-0.525 0.15-0.525 0.332 0 0.183-0.495 0.588-1.1 0.9s-1.19 0.657-1.3 0.767c-0.11 0.111-0.92 0.575-1.8 1.031-0.88 0.457-1.96 1.025-2.4 1.264-1.886 1.022-3.608 1.646-3.714 1.346-0.063-0.178-0.555-0.239-1.095-0.136-0.628 0.12-1.062-0.024-1.206-0.399s-0.578-0.519-1.205-0.399c-0.567 0.108-0.98-1e-3 -0.98-0.259 0-0.246-0.272-0.447-0.605-0.447s-0.918-0.168-1.3-0.374c-0.382-0.205-1.28-0.609-1.995-0.897-0.715-0.289-1.3-0.748-1.3-1.022 0-0.278-0.398-0.455-0.9-0.402-0.53 0.056-0.861-0.105-0.805-0.391 0.058-0.292-0.157-0.388-0.54-0.241-0.35 0.134-0.753 0.082-0.895-0.115-0.143-0.197-0.98-0.732-1.86-1.188-2.605-1.352-3.556-1.935-4.196-2.573-0.332-0.331-1.099-0.857-1.704-1.167-0.605-0.311-1.1-0.715-1.1-0.898 0-0.182-0.171-0.332-0.38-0.332-1.062 0-8.42-6.267-8.42-7.172 0-0.221-0.258-0.304-0.574-0.183-0.553 0.213-12.226-11.132-12.226-11.882 0-0.181-0.72-1.086-1.6-2.011s-1.6-1.795-1.6-1.932c0-0.138-0.9-1.209-2-2.381-1.1-1.171-2-2.34-2-2.596 0-0.257-0.36-0.726-0.8-1.043s-0.8-0.762-0.8-0.988c-1e-3 -0.227-0.468-0.9521-1.038-1.6121-0.571-0.66-1.295-1.695-1.61-2.3s-0.748-1.1-0.962-1.1c-0.215 0-0.39-0.27-0.39-0.6s-0.36-0.96-0.8-1.4-0.8-0.946-0.8-1.125c0-0.178-0.315-0.682-0.7-1.12s-0.925-1.192-1.2-1.675c-0.275-0.484-0.725-1.278-1-1.765-0.275-0.486-0.725-1.129-1-1.428s-0.5-0.891-0.5-1.316c0-0.443-0.275-0.771-0.647-0.771-0.449 0-0.583-0.244-0.437-0.8 0.127-0.487 0.012-0.8-0.294-0.8-0.276 0-1.111-1.215-1.854-2.7-0.744-1.485-1.445-2.79-1.56-2.9-0.475-0.456-1.208-2.031-1.208-2.595 0-0.333-0.135-0.606-0.3-0.608-0.359-4e-3 -1.3-1.941-1.3-2.677 0-0.286-0.159-0.52-0.353-0.52-0.195 0-0.454-0.315-0.576-0.7s-0.53-1.24-0.9072-1.9c-1.819-3.187-1.864-4-0.2-3.667 0.8422 0.168 1.2302 0.059 1.4052-0.396 0.159-0.415 0.571-0.565 1.216-0.442 0.622 0.119 1.056-0.026 1.2-0.4 0.142-0.37 0.536-0.504 1.072-0.364 0.494 0.129 1.106-0.037 1.467-0.398 0.43-0.43 1.083-0.557 2.134-0.416 1.018 0.137 1.487 0.052 1.429-0.257-0.052-0.276 0.474-0.46 1.313-0.46 0.77 0 1.598-0.253 1.84-0.563 0.324-0.413 0.938-0.494 2.321-0.304 1.163 0.159 1.79 0.111 1.643-0.126-0.295-0.478 1.57-0.979 2.425-0.651 0.347 0.133 0.92-0.048 1.274-0.402 0.476-0.476 1.08-0.583 2.332-0.411 1.324 0.181 1.742 0.093 1.934-0.408 0.185-0.482 0.612-0.589 1.741-0.438 1.022 0.137 1.673 0.012 2.054-0.397 0.41-0.439 1.062-0.537 2.463-0.371 1.497 0.177 1.956 0.092 2.143-0.395 0.17-0.444 0.633-0.574 1.623-0.459 0.924 0.108 1.454-0.021 1.595-0.387 0.135-0.352 0.698-0.507 1.566-0.433 0.746 0.065 1.648-0.125 2.004-0.421 0.424-0.351 1.262-0.468 2.422-0.337 1.341 0.151 1.83 0.053 2.004-0.4 0.167-0.436 0.601-0.539 1.592-0.378 1.007 0.163 1.424 0.059 1.6-0.4 0.183-0.478 0.648-0.575 2.008-0.422 1.337 0.151 1.826 0.053 2-0.4 0.167-0.436 0.601-0.539 1.592-0.378 0.966 0.156 1.425 0.055 1.58-0.349 0.139-0.361 0.802-0.57 1.808-0.57 0.874 0 1.711-0.198 1.861-0.44 0.152-0.246 0.765-0.342 1.387-0.218 0.796 0.16 1.185 0.042 1.359-0.41 0.182-0.474 0.588-0.578 1.605-0.413 1.003 0.162 1.424 0.058 1.598-0.395 0.156-0.407 0.573-0.551 1.231-0.425 0.699 0.133 0.995 0.013 0.995-0.404 0-0.448 0.297-0.536 1.2-0.355 0.899 0.18 1.2 0.092 1.2-0.35 0-0.386 0.406-0.59 1.176-0.59 0.647 0 1.288-0.18 1.424-0.4s0.687-0.4 1.224-0.4 0.976-0.203 0.976-0.45c0-0.287 0.436-0.363 1.2-0.21 0.931 0.186 1.2 0.097 1.2-0.397 0-0.435 0.248-0.572 0.785-0.431 0.432 0.113 0.994-0.046 1.249-0.353 0.255-0.308 0.706-0.559 1.003-0.559 0.296 0 1.203-0.373 2.016-0.83 0.812-0.456 1.808-0.743 2.212-0.637s0.738-0.016 0.742-0.27c9e-3 -0.601 3.83-2.411 4.376-2.074 0.229 0.142 0.42 0.023 0.424-0.265s0.904-0.948 2-1.466c1.096-0.519 1.993-1.104 1.993-1.3 0-0.197 0.36-0.358 0.8-0.358s0.8-0.15 0.8-0.332c0-0.183 0.492-0.588 1.094-0.9 0.602-0.313 1.418-0.838 1.813-1.168 0.396-0.33 0.848-0.6 1.006-0.6s1.277-0.943 2.487-2.096 2.317-2.098 2.46-2.1c0.347-5e-3 3.14-2.81 3.14-3.154 0-0.148 0.9-1.199 2-2.334s2-2.234 2-2.441 0.257-0.59 0.571-0.851c0.506-0.42 1.956-2.922 3.2-5.521 0.236-0.493 0.564-0.898 0.729-0.9s0.3-0.333 0.3-0.736c0-0.855 0.334-1.267 1.027-1.267 0.335 0 0.587 1.189 0.783 3.7zm-123.97 51.203c0.243 0.493 0.85 1.707 1.35 2.697 0.501 0.99 1.04 2.07 1.198 2.4 0.315 0.659 0.953 1.908 1.685 3.3 0.26 0.495 1.146 2.202 1.969 3.794 0.8222 1.592 1.8692 3.419 2.3262 4.062 0.458 0.642 0.832 1.365 0.832 1.606s0.201 0.438 0.447 0.438c0.249 0 0.354 0.353 0.237 0.8-0.129 0.495-0.012 0.8 0.307 0.8 0.284 0 0.616 0.315 0.738 0.7 0.288 0.909 1.483 2.853 2.371 3.858 0.385 0.436 0.7 1.014 0.7 1.284s0.161 0.551 0.358 0.625c0.197 0.073 0.692 0.693 1.1 1.378 1.268 2.127 4.27 6.3481 4.614 6.4881 0.181 0.074 0.328 0.344 0.329 0.6 0 0.257 0.54 1.097 1.199 1.867s1.199 1.553 1.199 1.74c1e-3 0.186 0.503 0.816 1.116 1.4 0.614 0.583 1.557 1.69 2.096 2.46s1.482 1.926 2.095 2.57c0.612 0.643 1.219 1.588 1.347 2.1 0.129 0.511 0.383 0.93 0.565 0.93 0.483 0 14.382 13.953 14.382 14.438 0 0.225 0.183 0.296 0.408 0.157 0.354-0.219 3.563 2.132 6.278 4.6 0.487 0.443 1.038 0.805 1.224 0.805 0.187 0 0.688 0.315 1.115 0.7 0.426 0.385 1.27 0.955 1.875 1.268 0.605 0.312 1.1 0.717 1.1 0.9 0 0.182 0.36 0.332 0.8 0.332s0.8 0.152 0.8 0.337c0 0.186 0.855 0.768 1.9 1.295 1.045 0.526 1.99 1.05 2.1 1.163s0.92 0.579 1.8 1.035c0.88 0.457 1.96 1.021 2.4 1.253 0.44 0.233 1.295 0.655 1.9 0.938s1.1 0.642 1.1 0.798c0 0.489-2.357 1.286-3.171 1.073-0.469-0.123-0.869 0.034-1.007 0.396-0.171 0.444-0.58 0.534-1.58 0.346-1.043-0.195-1.407-0.103-1.603 0.41-0.205 0.532-0.599 0.615-2.009 0.422-1.387-0.19-1.806-0.107-1.999 0.397-0.193 0.503-0.662 0.597-2.218 0.448-1.475-0.142-2.029-0.045-2.194 0.383-0.182 0.474-0.981 0.524-4.619 0.288-3.17-0.205-4.4-0.159-4.4 0.167 0 0.292-0.987 0.451-2.8 0.451-1.759 0-2.8-0.163-2.8-0.437 0-0.306-1.13-0.353-3.744-0.157-3.032 0.227-3.847 0.17-4.289-0.303-0.374-0.4-1.067-0.526-2.198-0.398-1.133 0.127-1.825 2e-3 -2.2-0.4-0.38-0.407-1.069-0.528-2.251-0.395-1.296 0.146-1.761 0.044-1.942-0.429-0.176-0.459-0.593-0.563-1.6-0.4-1.007 0.164-1.424 0.06-1.6-0.4-0.176-0.459-0.593-0.563-1.6-0.4-1.027 0.167-1.423 0.062-1.611-0.427-0.174-0.454-0.535-0.576-1.203-0.409-0.632 0.159-1.029 0.047-1.174-0.331-0.144-0.378-0.62-0.512-1.403-0.397-0.708 0.104-1.185-6e-3 -1.185-0.272 0-0.245-0.349-0.445-0.776-0.445s-0.888-0.18-1.024-0.4-0.546-0.4-0.912-0.4c-1.004 0-4.4732-1.737-4.4812-2.245-4e-3 -0.257-0.427-0.364-1.007-0.253-0.55 0.105-1 0.034-1-0.158s-0.585-0.588-1.3-0.88c-2.444-0.998-3.1-1.399-3.1-1.894 0-0.298-0.318-0.412-0.8-0.286-0.563 0.147-0.8 0.012-0.8-0.455 0-0.365-0.225-0.619-0.5-0.564-0.659 0.133-3.5-1.256-3.5-1.711 0-0.195-0.243-0.354-0.541-0.354-0.297 0-1.105-0.54-1.796-1.2s-1.403-1.2-1.584-1.2c-0.18 0-0.677-0.32-1.104-0.711-0.426-0.391-1.405-1.153-2.175-1.695-0.77-0.541-2.39-1.956-3.6-3.144-3.345-3.286-4.498-4.05-6.111-4.05-2.028 0-3.468 1.926-2.639 3.531 0.567 1.099 4.603 5.269 5.1 5.269 0.154 0 1.123 0.797 2.155 1.772 1.031 0.974 2.42 2.093 3.085 2.486 0.666 0.393 1.21 0.856 1.21 1.028 0 0.173 0.236 0.314 0.525 0.314 0.288 0 0.873 0.315 1.3 0.7 0.426 0.385 1.27 0.955 1.875 1.268 0.605 0.312 1.1 0.717 1.1 0.9 0 0.182 0.236 0.332 0.525 0.332 0.288 0 0.873 0.315 1.3 0.701 0.426 0.385 1.63 1.133 2.675 1.662 1.045 0.53 1.9 1.215 1.9 1.523 0 0.309 0.184 0.447 0.409 0.308 0.461-0.285 2.791 0.636 2.791 1.104 0 0.166 0.272 0.302 0.605 0.302s0.963 0.18 1.4 0.4 1.153 0.58 1.59 0.8 1.067 0.4 1.4 0.4 0.605 0.18 0.605 0.4 0.265 0.4 0.588 0.4 1.229 0.36 2.012 0.8c0.7832 0.44 1.7682 0.8 2.1892 0.8 0.42 0 0.875 0.18 1.011 0.4s0.687 0.4 1.224 0.4 0.976 0.18 0.976 0.4 0.619 0.4 1.376 0.4 1.488 0.18 1.624 0.4 0.782 0.4 1.436 0.4 1.277 0.229 1.385 0.51c0.127 0.333 0.747 0.457 1.784 0.358 1.091-0.104 1.654 0.021 1.8 0.4 0.144 0.376 0.704 0.505 1.756 0.404 0.85-0.081 1.667 0.05 1.816 0.29 0.15 0.243 1.405 0.438 2.818 0.438 1.495 0 2.766 0.207 3.076 0.502 0.806 0.764 22.705 0.731 23.5-0.035 0.402-0.389 1.311-0.504 3.088-0.391 1.917 0.122 2.57 0.025 2.736-0.408 0.161-0.419 0.625-0.503 1.77-0.32 1.216 0.195 1.605 0.108 1.8-0.402 0.193-0.503 0.608-0.601 1.842-0.436 1.256 0.169 1.593 0.084 1.593-0.398 0-0.462 0.284-0.555 1.164-0.379 0.813 0.162 1.231 0.057 1.387-0.35 0.127-0.33 0.741-0.583 1.413-0.583 0.654 0 1.31-0.196 1.458-0.435 0.147-0.239 0.596-0.349 0.997-0.244 0.402 0.105 0.825-0.059 0.943-0.365 0.117-0.306 0.551-0.556 0.964-0.556s1.302-0.275 1.975-0.611c1.373-0.684 4.435-0.422 4.753 0.407 0.124 0.324 0.833 0.421 2.159 0.293 1.533-0.147 2.026-0.052 2.211 0.429 0.188 0.489 0.673 0.573 2.33 0.402 1.481-0.153 2.261-0.055 2.669 0.337 0.831 0.796 13.915 0.792 14.754-6e-3 0.407-0.386 1.233-0.489 2.8-0.347 1.643 0.149 2.366 0.048 2.772-0.387 0.378-0.404 1.155-0.545 2.496-0.452 1.379 0.096 2.008-0.025 2.157-0.414 0.142-0.371 0.585-0.474 1.368-0.317 0.835 0.167 1.225 0.057 1.398-0.396 0.168-0.435 0.602-0.574 1.421-0.454 0.743 0.109 1.255-0.023 1.383-0.356 0.114-0.297 0.81-0.528 1.592-0.528 0.764 0 1.51-0.196 1.658-0.435 0.147-0.239 0.608-0.346 1.024-0.237 0.435 0.114 0.903-0.065 1.103-0.422 0.227-0.405 0.703-0.551 1.379-0.422 0.649 0.124 1.109-3e-3 1.239-0.343 0.233-0.606 1.433-0.748 1.433-0.17 0 0.205-0.27 0.642-0.6 0.972s-0.6 0.701-0.6 0.825c0 0.244-2.405 3.536-3.531 4.832-0.382 0.44-1.037 1.34-1.454 2-0.418 0.66-1.447 1.882-2.287 2.715-0.841 0.834-1.528 1.663-1.528 1.842 0 0.707-10.934 11.277-11.457 11.076-0.299-0.114-0.543-0.037-0.543 0.172 0 0.531-2.358 2.897-3.8 3.813-0.66 0.419-1.791 1.307-2.513 1.972-0.722 0.666-1.446 1.21-1.609 1.21s-0.731 0.405-1.263 0.9c-0.531 0.495-1.187 0.9-1.457 0.9s-0.551 0.145-0.625 0.323c-0.156 0.38-3.096 2.418-5.235 3.629-0.824 0.466-2.083 1.179-2.798 1.583s-1.525 0.659-1.8 0.567c-0.275-0.093-0.5 0.116-0.5 0.465 0 0.366-0.337 0.633-0.8 0.633-0.44 0-0.8 0.146-0.8 0.325s-0.63 0.573-1.4 0.875-1.4 0.696-1.4 0.875-0.253 0.325-0.562 0.325-1.344 0.386-2.3 0.857-2.188 1.032-2.738 1.246c-0.55 0.215-1.313 0.549-1.695 0.744-0.382 0.194-1.046 0.353-1.476 0.353s-0.903 0.196-1.051 0.435c-0.147 0.239-0.608 0.346-1.023 0.237-0.497-0.13-0.755 0.012-0.755 0.415 0 0.463-0.284 0.556-1.164 0.38-0.84-0.168-1.23-0.059-1.404 0.393-0.165 0.431-0.536 0.55-1.194 0.385-0.667-0.167-1.029-0.045-1.202 0.407-0.182 0.472-0.56 0.583-1.406 0.414-0.838-0.168-1.225-0.057-1.4 0.4s-0.562 0.568-1.4 0.4c-0.834-0.167-1.225-0.057-1.398 0.394-0.17 0.443-0.534 0.551-1.252 0.371-0.678-0.17-1.23-0.038-1.668 0.4-0.476 0.476-1.09 0.597-2.242 0.442-1.122-0.15-1.768-0.032-2.204 0.404-0.463 0.462-1.108 0.558-2.584 0.384-1.38-0.164-2.128-0.072-2.507 0.307-0.758 0.758-23.821 0.693-24.075-0.068-0.12-0.36-0.767-0.429-2.325-0.245-1.755 0.206-2.204 0.135-2.401-0.378-0.193-0.503-0.64-0.584-2.2-0.399-1.605 0.19-2.004 0.11-2.216-0.444-0.193-0.502-0.545-0.613-1.371-0.431-0.62 0.136-1.226 0.057-1.373-0.18-0.143-0.232-0.681-0.423-1.195-0.423-0.513 0-1.036-0.267-1.161-0.593-0.161-0.418-0.571-0.524-1.394-0.36-0.669 0.134-1.283 0.046-1.439-0.207-0.15-0.242-0.627-0.44-1.0612-0.44-0.434 0-0.888-0.259-1.01-0.575-0.121-0.316-0.485-0.473-0.809-0.348-0.325 0.124-1.345-0.135-2.267-0.576-5.972-2.853-7.293-3.53-7.411-3.799-0.074-0.166-0.479-0.302-0.9-0.302-0.438 0-0.767-0.276-0.767-0.643 0-0.384-0.223-0.557-0.556-0.429-0.306 0.117-0.891-0.089-1.3-0.457-0.409-0.369-1.239-0.926-1.844-1.239-0.605-0.312-1.1-0.717-1.1-0.9 0-0.182-0.225-0.332-0.5-0.333-0.275 0-1.13-0.54-1.9-1.199s-1.547-1.199-1.727-1.199c-0.434-1e-3 -3.073-2.813-3.073-3.274 0-0.199-0.251-0.309-0.557-0.245-0.659 0.14-5.697-4.555-8.243-7.682-0.986-1.21-2.249-2.65-2.808-3.2s-1.591-1.9-2.293-3c-0.703-1.1-1.463-2.217-1.688-2.483-0.226-0.266-0.411-0.637-0.411-0.825 0-0.187-0.376-0.744-0.835-1.237s-0.735-1.157-0.612-1.476c0.127-0.331-0.012-0.579-0.323-0.579-0.588 0-1.206-1.091-1.076-1.9 0.045-0.275-0.111-0.5-0.346-0.5-0.482 0-1.38-1.933-1.255-2.7 0.045-0.275-0.097-0.5-0.317-0.5-0.219 0-0.692-0.675-1.051-1.5s-0.817-1.813-1.019-2.195c-0.201-0.382-0.366-1.046-0.366-1.476s-0.187-0.898-0.416-1.039c-0.229-0.142-0.314-0.581-0.188-0.976 0.142-0.448-0.014-0.812-0.414-0.966-0.44-0.168-0.602-0.63-0.515-1.463 0.076-0.726-0.096-1.356-0.427-1.56-0.339-0.21-0.464-0.69-0.321-1.236 0.142-0.543-9e-3 -1.136-0.386-1.513-0.429-0.43-0.557-1.083-0.416-2.132 0.129-0.966 0.017-1.667-0.311-1.939-1.51-1.253-1.481-19.694 0.032-20.275 0.389-0.149 0.47-0.686 0.296-1.96-0.19-1.385-0.107-1.806 0.395-1.998 0.455-0.175 0.573-0.563 0.413-1.36-0.124-0.622-0.028-1.235 0.218-1.387 0.242-0.15 0.44-0.624 0.44-1.054s0.159-1.094 0.353-1.476c0.343-0.673 0.588-1.245 1.711-3.995 0.292-0.715 0.768-1.3001 1.057-1.3001 0.29 0 0.412-0.184 0.273-0.409-0.285-0.461 0.636-2.791 1.104-2.791 0.166 0 0.302-0.268 0.302-0.595 0-0.328 0.258-0.913 0.574-1.3 1.242-1.525 3.426-4.522 3.426-4.702 0-0.781 9.779-10.493 12.086-12.003 0.336-0.22 1.705-1.165 3.041-2.1s2.619-1.7 2.851-1.7 0.422-0.18 0.422-0.4 0.36-0.4 0.8-0.4 0.8-0.147 0.8-0.326c0-0.359 3.039-2.074 3.676-2.074 0.22 0 0.923-0.372 1.562-0.827 0.688-0.49 1.469-0.73 1.914-0.588 0.476 0.151 0.84 0.013 0.988-0.373 0.129-0.337 0.601-0.612 1.047-0.612 0.447 0 0.813-0.18 0.813-0.4s0.439-0.4 0.976-0.4 1.088-0.18 1.224-0.4c0.454-0.735 1.988-0.419 2.44 0.503z" clip-rule="evenodd" fill="#FBFBFB" fill-rule="evenodd"/>
</svg>
