<svg width="232" height="206" viewBox="0 0 232 206" fill="none" xmlns="http://www.w3.org/2000/svg">
<mask id="path-1-inside-1_105_619" fill="white">
<path fill-rule="evenodd" clip-rule="evenodd" d="M214.759 1.1734C214.154 1.8024 213.655 2.4594 213.65 2.6334C213.645 2.8074 213.289 3.3994 212.859 3.9494C212.429 4.4994 212.073 5.2704 212.068 5.6624C212.063 6.0544 211.779 6.4824 211.436 6.6134C211.093 6.7444 210.906 7.0934 211.019 7.3884C211.132 7.6834 211.052 8.0304 210.842 8.1604C210.632 8.2904 210.459 8.7464 210.459 9.1734C210.459 9.6004 210.206 9.9494 209.896 9.9494C209.531 9.9494 209.407 10.2294 209.543 10.7494C209.658 11.1894 209.58 11.5494 209.369 11.5494C209.158 11.5494 208.554 12.4044 208.027 13.4494L206.864 15.5494C206.327 16.0724 204.859 18.3574 204.859 18.6694C204.859 19.2344 194.867 29.1494 194.298 29.1494C194.015 29.1494 193.457 29.5094 193.059 29.9494C192.661 30.3894 192.093 30.7494 191.797 30.7494C191.501 30.7494 191.259 30.8994 191.259 31.0814C191.259 31.2634 190.764 31.6694 190.159 31.9814C189.554 32.2934 188.96 32.6814 188.838 32.8444C188.42 33.4044 179.118 37.9494 178.389 37.9494C177.987 37.9494 177.659 38.1294 177.659 38.3494C177.659 38.5694 177.31 38.7494 176.883 38.7494C176.456 38.7494 175.995 38.9294 175.859 39.1494C175.723 39.3694 175.26 39.5494 174.83 39.5494C174.32 39.5688 173.818 39.6887 173.354 39.9024C171.214 40.9914 170.472 41.2074 169.707 40.9644C169.089 40.7684 168.859 40.8654 168.859 41.3224C168.859 41.6764 168.521 41.9494 168.083 41.9494C167.656 41.9494 167.184 42.1464 167.036 42.3874C166.888 42.6284 166.345 42.7444 165.832 42.6464C165.249 42.5344 164.814 42.6894 164.672 43.0594C164.508 43.4874 164.068 43.5904 163.083 43.4304C162.08 43.2684 161.659 43.3724 161.485 43.8254C161.331 44.2284 160.912 44.3764 160.274 44.2544C159.65 44.1354 159.218 44.2804 159.072 44.6584C158.902 45.1034 158.461 45.1884 157.294 45.0014C156.08 44.8074 155.689 44.8934 155.495 45.4004C155.313 45.8734 154.935 45.9844 154.089 45.8154C153.25 45.6474 152.864 45.7584 152.688 46.2174C152.499 46.7114 152.047 46.8074 150.652 46.6494C149.233 46.4894 148.859 46.5734 148.859 47.0494C148.859 47.5254 148.532 47.5994 147.301 47.4024C146.076 47.2064 145.69 47.2924 145.493 47.8044C145.294 48.3244 144.889 48.4074 143.489 48.2154C142.101 48.0254 141.684 48.1084 141.49 48.6134C141.306 49.0914 140.903 49.1964 139.883 49.0304C138.877 48.8674 138.459 48.9714 138.284 49.4294C138.101 49.9064 137.687 49.9924 136.494 49.8014C135.279 49.6074 134.889 49.6934 134.694 50.2014C134.497 50.7164 134.04 50.8114 132.472 50.6604C130.972 50.5164 130.444 50.6124 130.271 51.0614C130.106 51.4914 129.636 51.5984 128.549 51.4524C127.527 51.3154 126.876 51.4404 126.495 51.8494C126.085 52.2884 125.433 52.3864 124.032 52.2204C122.528 52.0424 122.076 52.1274 121.886 52.6224C121.7 53.1074 121.293 53.1934 120.094 53.0014C118.878 52.8074 118.489 52.8934 118.294 53.4024C118.099 53.9114 117.663 54.0084 116.275 53.8524C114.938 53.7014 114.449 53.7994 114.275 54.2524C114.108 54.6884 113.674 54.7914 112.683 54.6304C111.676 54.4674 111.259 54.5714 111.083 55.0304C110.9 55.5084 110.435 55.6054 109.075 55.4524C107.801 55.3084 107.246 55.4064 107.095 55.8014C106.979 56.1024 106.349 56.3494 105.695 56.3494C105.041 56.3494 104.384 56.5464 104.236 56.7874C104.088 57.0284 103.545 57.1444 103.032 57.0464C102.448 56.9344 102.014 57.0894 101.872 57.4604C101.704 57.8974 101.235 57.9974 100.079 57.8424C98.9114 57.6864 98.4544 57.7864 98.2814 58.2364C98.1304 58.6294 97.7064 58.7754 97.0684 58.6534C96.5284 58.5504 96.0254 58.6514 95.9494 58.8794C95.6824 59.6794 94.3584 58.7774 94.5764 57.9444C94.7114 57.4294 94.5864 57.1494 94.2224 57.1494C93.9124 57.1494 93.6594 56.8144 93.6594 56.4054C93.6594 55.7854 92.6354 53.4274 90.8134 49.8544C90.6184 49.4724 90.4594 48.8874 90.4594 48.5544C90.4594 48.2214 90.2794 47.9494 90.0594 47.9494C89.8394 47.9494 89.6594 47.5104 89.6594 46.9734C89.6594 46.4364 89.4674 45.8774 89.2324 45.7324C88.9974 45.5874 88.8954 45.2314 89.0064 44.9424C89.1174 44.6534 88.9504 44.3164 88.6344 44.1954C88.4722 44.1248 88.3327 44.0108 88.2312 43.8659C88.1297 43.721 88.0703 43.5509 88.0594 43.3744C88.0594 43.0444 87.6994 42.1324 87.2594 41.3494C86.8194 40.5664 86.4594 39.6604 86.4594 39.3374C86.4594 39.0144 86.3244 38.7484 86.1594 38.7464C85.9944 38.7444 85.6614 38.3394 85.4194 37.8464C84.1114 35.1754 81.4504 30.1224 81.2614 29.9494C81.1414 29.8394 80.8254 29.2544 80.5594 28.6494C80.2934 28.0444 79.8924 27.5494 79.6684 27.5494C79.4444 27.5494 79.2594 27.3084 79.2594 27.0144C79.2594 26.7204 78.3654 25.5044 77.2734 24.3144C76.1814 23.1244 75.2814 22.0284 75.2734 21.8804C75.2654 21.7324 74.5394 20.9054 73.6594 20.0424C72.7794 19.1794 72.0594 18.2714 72.0594 18.0244C72.0594 17.7774 71.8344 17.6594 71.5594 17.7634C71.2844 17.8674 70.4294 17.4124 69.6594 16.7524C68.8894 16.0924 68.0344 15.5504 67.7594 15.5504C67.4844 15.5504 67.2594 15.4134 67.2594 15.2474C67.2594 15.0814 66.7194 14.7054 66.0594 14.4134C65.3994 14.1214 64.8594 13.6444 64.8594 13.3534C64.8594 13.0314 64.5634 12.9014 64.1044 13.0214C63.6894 13.1304 63.2284 13.0234 63.0814 12.7844C62.9344 12.5454 62.4574 12.3494 62.0234 12.3494C61.5894 12.3494 61.1414 12.1064 61.0264 11.8084C60.9004 11.4794 60.4384 11.3404 59.8444 11.4544C59.1934 11.5794 58.7874 11.4274 58.6224 10.9984C58.4504 10.5494 58.0874 10.4274 57.4214 10.5944C56.7554 10.7614 56.3924 10.6394 56.2164 10.1824C56.0274 9.6894 55.6524 9.5894 54.6744 9.7734C53.8474 9.9284 53.1804 9.8234 52.8214 9.4824C52.0104 8.7124 40.1014 8.7204 39.2894 9.4904C38.9364 9.8264 38.2274 9.9514 37.4214 9.8204C36.4804 9.6684 36.0564 9.7794 35.8864 10.2244C35.7214 10.6544 35.2794 10.7844 34.4174 10.6584C33.6194 10.5404 33.1134 10.6654 32.9794 11.0134C32.8644 11.3134 32.1864 11.5494 31.4404 11.5494C30.7064 11.5494 29.9854 11.7454 29.8374 11.9844C29.6894 12.2234 29.2414 12.3334 28.8404 12.2284C28.4394 12.1234 28.0154 12.2874 27.8974 12.5934C27.7794 12.8994 27.2284 13.1494 26.6724 13.1494C26.1164 13.1494 25.6594 13.3294 25.6594 13.5494C25.6594 13.7694 25.3874 13.9494 25.0544 13.9494C24.4674 13.9494 24.0664 14.1074 22.1594 15.0874C20.1674 16.1104 19.8204 16.2804 18.8594 16.7034C17.7474 17.1934 16.6964 17.8474 15.5784 18.7494C15.1684 19.0794 14.6914 19.3494 14.5174 19.3494C14.3434 19.3494 13.8874 19.6644 13.5024 20.0494C13.1174 20.4344 12.6454 20.7494 12.4534 20.7494C12.2614 20.7494 11.4194 21.3784 10.5814 22.1474C9.74336 22.9164 8.92236 23.5464 8.75536 23.5474C8.58836 23.5484 7.86836 24.1104 7.15536 24.7974C6.17436 25.7203 5.16452 26.6121 4.12736 27.4714C0.440362 30.5084 -1.10964 34.5304 0.859362 35.9494C1.29936 36.2664 1.65936 36.7114 1.66036 36.9374C1.66136 37.1814 2.89736 37.3594 4.69036 37.3744C6.71536 37.3914 7.82636 37.5724 8.04036 37.9184C8.26736 38.2854 8.84036 38.3554 10.0094 38.1584C11.2934 37.9414 11.7094 38.0134 11.8894 38.4844C12.0594 38.9264 12.4884 39.0294 13.4904 38.8664C14.3734 38.7234 14.8594 38.8054 14.8594 39.0974C14.8594 39.3454 15.3094 39.5494 15.8594 39.5494C16.4094 39.5494 16.8594 39.7294 16.8594 39.9494C16.8594 40.1694 17.1314 40.3494 17.4644 40.3494C18.1734 40.3494 19.4894 41.0604 20.6144 42.0494C21.0524 42.4344 21.6464 42.7494 21.9344 42.7494C22.2224 42.7494 22.4594 42.9294 22.4594 43.1494C22.4594 43.3694 22.6954 43.5494 22.9824 43.5494C24.1074 43.5494 31.2594 51.3354 31.2594 52.5594C31.2594 52.7064 31.6364 53.3554 32.0964 54.0014C32.5564 54.6474 32.8384 55.4264 32.7224 55.7304C32.6064 56.0344 32.7684 56.3824 33.0844 56.5034C33.4064 56.6274 33.6594 57.2484 33.6594 57.9134C33.6594 58.5674 33.8564 59.2244 34.0974 59.3724C34.3384 59.5204 34.4544 60.0634 34.3564 60.5764C34.2444 61.1614 34.3994 61.5944 34.7734 61.7374C35.2354 61.9154 35.3164 62.4064 35.1374 63.9234C34.9524 65.4804 35.0344 65.9304 35.5334 66.1224C36.0494 66.3204 36.1134 66.7824 35.8944 68.7174C35.6964 70.4734 35.7594 71.1164 36.1434 71.2444C36.5274 71.3724 36.6594 72.6664 36.6594 76.2824C36.6594 78.9594 36.8184 81.1494 37.0134 81.1494C37.2084 81.1494 37.7844 81.5994 38.2944 82.1494C39.3984 83.3414 40.3304 83.3974 41.5884 82.3484C42.7364 81.3914 43.1714 71.0884 42.1104 69.9724C41.7204 69.5614 41.6224 68.7344 41.7704 67.0994C41.9354 65.2754 41.8534 64.7554 41.3674 64.5694C40.9084 64.3934 40.8084 63.9434 40.9664 62.7694C41.1244 61.5954 41.0234 61.1444 40.5664 60.9694C40.1094 60.7944 40.0084 60.3424 40.1664 59.1694C40.3164 58.0474 40.2174 57.5424 39.8174 57.3884C39.5104 57.2714 39.2594 56.8964 39.2594 56.5564C39.2594 56.2164 39.1004 55.6264 38.9064 55.2444C38.5634 54.5714 38.3184 53.9994 37.1954 51.2494C36.9034 50.5344 36.5284 49.9494 36.3614 49.9494C36.1944 49.9494 36.0594 49.5894 36.0594 49.1494C36.0594 48.7094 35.8794 48.3494 35.6594 48.3494C35.4394 48.3494 35.2594 48.1244 35.2594 47.8494C35.2584 47.0764 30.3724 41.6384 28.3454 40.1544C27.7484 39.7174 27.2594 39.1324 27.2594 38.8544C27.2594 38.5764 26.9414 38.3494 26.5524 38.3494C26.1634 38.3494 25.1824 37.8994 24.3734 37.3494C23.5644 36.7994 22.6224 36.3494 22.2804 36.3494C21.9384 36.3494 21.6594 36.0674 21.6594 35.7224C21.6594 35.2774 21.4274 35.1694 20.8594 35.3494C20.2824 35.5324 20.0594 35.4214 20.0594 34.9494C20.0594 34.4874 19.8344 34.3664 19.2934 34.5384C18.8714 34.6724 18.4114 34.5944 18.2694 34.3654C18.1274 34.1364 17.6604 33.9494 17.2304 33.9494C16.8004 33.9494 16.0914 33.7694 15.6544 33.5494L14.0644 32.7494C13.6274 32.5294 12.5824 32.3494 11.7414 32.3494C8.90636 32.3494 8.40436 31.4794 10.2704 29.7984C11.1444 29.0114 12.0024 28.3634 12.1774 28.3584C12.3524 28.3534 12.9324 27.9124 13.4664 27.3784C14.1329 26.7419 14.8642 26.1768 15.6484 25.6924C16.3144 25.2984 16.8594 24.8354 16.8594 24.6634C16.8594 24.4914 17.2194 24.3494 17.6594 24.3494C18.0994 24.3494 18.4594 24.1994 18.4594 24.0174C18.4594 23.8354 18.9544 23.4294 19.5594 23.1174C20.1644 22.8054 20.7494 22.4604 20.8594 22.3504C21.3354 21.8724 22.8984 21.1494 23.4544 21.1494C23.7874 21.1494 24.0594 21.0134 24.0594 20.8474C24.0594 20.6814 24.6444 20.3074 25.3594 20.0164C26.319 19.6145 27.2655 19.1819 28.1974 18.7194C29.0434 18.2954 29.9884 17.9494 30.2974 17.9494C30.6064 17.9494 30.8594 17.7454 30.8594 17.4974C30.8594 17.2054 31.3454 17.1234 32.2284 17.2664C33.2274 17.4294 33.6594 17.3264 33.8274 16.8874C33.9934 16.4554 34.3824 16.3564 35.2084 16.5384C36.0734 16.7284 36.4224 16.6244 36.6164 16.1164C36.8344 15.5494 37.2294 15.4824 39.0904 15.7014C40.7954 15.9024 41.4434 15.8224 41.9104 15.3554C42.8004 14.4654 49.9804 14.4794 50.3234 15.3714C50.5174 15.8764 50.9664 15.9434 52.7054 15.7264C54.4694 15.5064 54.8934 15.5724 55.0964 16.1014C55.2684 16.5494 55.6314 16.6714 56.2974 16.5044C56.9424 16.3424 57.3264 16.4584 57.4814 16.8624C57.6174 17.2164 58.0204 17.3804 58.4684 17.2634C58.8904 17.1524 59.6994 17.4374 60.2964 17.9074C60.8854 18.3704 61.6134 18.7494 61.9134 18.7494C62.2134 18.7494 62.4594 19.0024 62.4594 19.3124C62.4594 19.6774 62.7394 19.8014 63.2594 19.6654C63.7134 19.5464 64.0594 19.6534 64.0594 19.9114C64.0594 20.1614 64.5544 20.5864 65.1594 20.8554C65.7644 21.1244 67.0154 22.0664 67.9384 22.9474L70.0474 24.9494C71.0464 25.8774 72.7354 27.8454 73.6524 29.1494C74.1944 29.9194 74.9574 30.8984 75.3484 31.3244C75.7394 31.7504 76.0594 32.2584 76.0594 32.4524C76.0594 32.6464 76.5654 33.5574 77.1844 34.4774C78.6374 36.6364 80.6644 40.8184 80.5414 41.4034C80.4884 41.6534 80.7184 41.9634 81.0524 42.0914C81.3864 42.2194 81.6594 42.5834 81.6594 42.8994C81.6594 43.3954 82.2594 44.7814 83.7234 47.6654C83.9234 48.0594 83.9914 48.5354 83.8754 48.7234C83.7594 48.9114 83.9524 49.1764 84.3044 49.3114C84.7594 49.4854 84.8724 49.8444 84.6944 50.5534C84.5064 51.3014 84.6024 51.5494 85.0784 51.5494C85.5314 51.5494 85.6404 51.7784 85.4594 52.3494C85.2764 52.9264 85.3874 53.1494 85.8594 53.1494C86.3314 53.1494 86.4424 53.3724 86.2594 53.9494C86.0734 54.5344 86.1874 54.7494 86.6824 54.7494C87.2214 54.7494 87.3104 54.9944 87.1194 55.9494C86.9354 56.8674 87.0244 57.1494 87.4964 57.1494C87.9314 57.1494 88.0384 57.3854 87.8594 57.9494C87.6804 58.5134 87.7874 58.7494 88.2324 58.7494C88.9584 58.7494 89.0284 59.4534 88.4524 60.9684C88.1554 61.7494 87.8374 61.9844 87.2784 61.8384C86.8194 61.7184 86.4184 61.8794 86.2804 62.2394C86.1294 62.6324 85.7054 62.7744 85.0544 62.6504C84.5074 62.5464 84.0594 62.6024 84.0594 62.7754C84.0594 62.9484 83.0244 63.5694 81.7594 64.1544L78.7594 65.5844L77.2594 66.3494C75.5704 67.1934 74.7044 67.6504 73.4044 68.3804C72.6644 68.7954 72.0534 69.0034 72.0464 68.8424C72.0394 68.6814 71.8144 68.8194 71.5464 69.1494C71.2784 69.4794 70.5644 70.0044 69.9594 70.3174C69.3544 70.6304 68.8594 71.0344 68.8594 71.2174C68.8594 71.4004 68.6304 71.5494 68.3504 71.5494C68.0704 71.5494 66.8554 72.4454 65.6504 73.5394C64.4454 74.6334 63.3094 75.5344 63.1264 75.5394C62.5334 75.5574 54.9424 83.5914 53.1744 86.0724C52.2314 87.3954 51.1894 88.7814 50.8594 89.1514C50.2224 89.8654 49.4794 91.1374 47.5324 94.8494C46.8684 96.1144 46.1764 97.1494 45.9924 97.1494C45.8084 97.1494 45.6594 97.4814 45.6594 97.8884C45.6594 98.7904 44.5214 101.149 44.0854 101.149C43.9124 101.149 43.8564 101.597 43.9604 102.144C44.0894 102.816 43.9424 103.219 43.5084 103.386C43.0744 103.553 42.9384 103.924 43.0924 104.536C43.2424 105.134 43.1134 105.52 42.7114 105.674C42.2604 105.847 42.1624 106.272 42.3324 107.321C42.5054 108.39 42.4074 108.794 41.9274 108.978C41.4584 109.158 41.3574 109.539 41.5384 110.445C41.7024 111.264 41.5974 111.815 41.2214 112.109C40.8284 112.416 40.6594 113.443 40.6594 115.516C40.6594 117.533 40.4994 118.536 40.1594 118.649C39.4464 118.887 39.4464 128.611 40.1594 128.849C40.5064 128.964 40.6594 130.044 40.6594 132.382C40.6594 134.798 40.8184 135.873 41.2214 136.189C41.6064 136.491 41.7104 137.078 41.5514 138.058C41.3784 139.125 41.4744 139.546 41.9334 139.722C42.3684 139.889 42.4994 140.358 42.3844 141.342C42.2804 142.232 42.4074 142.797 42.7414 142.925C43.0264 143.034 43.2594 143.569 43.2594 144.113C43.2594 144.657 43.4394 145.213 43.6594 145.349C43.8794 145.485 44.0594 146.115 44.0594 146.749C44.0594 147.383 44.2554 148.023 44.4944 148.171C44.7334 148.319 44.8434 148.767 44.7384 149.168C44.6334 149.569 44.7974 149.993 45.1034 150.111C45.4094 150.229 45.6594 150.765 45.6594 151.303C45.6594 151.841 45.7944 152.342 45.9594 152.416C46.5554 152.681 48.0224 155.98 47.8004 156.557C47.6694 156.9 47.8024 157.15 48.1164 157.152C48.6134 157.155 49.6594 158.845 49.6594 159.645C49.6594 159.831 50.0194 160.369 50.4594 160.841C50.8994 161.313 51.2594 161.936 51.2594 162.224C51.2594 162.512 51.4394 162.749 51.6594 162.749C51.8794 162.749 52.0594 163.017 52.0594 163.344C52.0594 163.671 52.3194 164.257 52.6374 164.644C52.9554 165.031 54.0774 166.519 55.1314 167.949C56.1854 169.379 57.3664 170.898 57.7544 171.324C58.1424 171.75 58.4594 172.236 58.4594 172.402C58.4594 172.847 69.1064 183.549 69.5484 183.549C69.7544 183.549 70.8324 184.449 71.9444 185.549C73.0564 186.649 74.1324 187.549 74.3374 187.549C74.5424 187.549 75.0574 187.864 75.4844 188.249C75.9114 188.634 76.7544 189.204 77.3594 189.517C77.9644 189.83 78.4594 190.334 78.4594 190.64C78.4594 190.946 78.6474 191.08 78.8774 190.938C79.1074 190.796 79.5114 190.856 79.7774 191.072C80.3094 191.504 82.3974 192.706 85.4594 194.341C90.8054 197.196 92.4364 197.949 93.2734 197.949C93.6794 197.949 94.1234 198.129 94.2594 198.349C94.3954 198.569 94.8564 198.749 95.2834 198.749C95.7104 198.749 96.0594 198.929 96.0594 199.149C96.0594 199.369 96.5884 199.549 97.2354 199.549C97.8824 199.549 98.5234 199.729 98.6594 199.949C98.7954 200.169 99.3354 200.349 99.8594 200.349C100.383 200.349 100.923 200.529 101.059 200.749C101.195 200.969 101.915 201.149 102.659 201.149C103.403 201.149 104.111 201.309 104.232 201.505C104.353 201.701 105.083 201.97 105.855 202.105L108.69 202.596C109.477 202.732 110.208 203.071 110.314 203.348C110.453 203.711 111.211 203.797 113.006 203.652C114.801 203.507 115.667 203.606 116.082 204C116.497 204.394 117.843 204.549 120.826 204.549C123.809 204.549 125.04 204.692 125.159 205.049C125.395 205.756 133.123 205.756 133.359 205.049C133.477 204.694 134.675 204.549 137.492 204.549C140.315 204.549 141.626 204.39 142.039 203.998C142.467 203.59 143.32 203.505 145.306 203.672C147.514 203.857 148.036 203.785 148.233 203.272C148.413 202.804 148.825 202.704 149.866 202.873C150.961 203.05 151.259 202.964 151.259 202.471C151.259 201.972 151.58 201.887 152.832 202.055C154.005 202.212 154.464 202.112 154.636 201.664C154.799 201.241 155.278 201.11 156.252 201.224C157.191 201.334 157.706 201.204 157.853 200.822C157.989 200.466 158.436 200.328 159.061 200.447C159.624 200.555 160.25 200.401 160.505 200.093C160.754 199.794 161.464 199.549 162.084 199.549C162.704 199.549 163.323 199.369 163.459 199.149C163.595 198.929 164.146 198.749 164.683 198.749C165.22 198.749 165.659 198.569 165.659 198.349C165.659 198.129 166.199 197.949 166.859 197.949C167.519 197.949 168.059 197.757 168.059 197.522C168.059 197.287 168.396 197.202 168.812 197.334C169.3 197.489 169.653 197.342 169.817 196.915C169.989 196.467 170.385 196.318 171.064 196.448C171.73 196.575 172.059 196.458 172.059 196.094C172.059 195.794 172.419 195.549 172.859 195.549C173.299 195.549 173.659 195.369 173.659 195.149C173.659 194.929 174.019 194.749 174.459 194.749C174.899 194.749 175.259 194.569 175.259 194.349C175.259 194.129 175.664 193.945 176.159 193.94C176.654 193.935 177.509 193.579 178.059 193.149C178.609 192.719 179.301 192.363 179.597 192.358C179.893 192.353 180.613 192.017 181.197 191.612C181.781 191.207 182.844 190.622 183.559 190.314C184.274 190.006 184.859 189.618 184.859 189.451C184.859 189.284 185.219 189.149 185.659 189.149C186.099 189.149 186.459 188.969 186.459 188.749C186.459 188.529 186.649 188.349 186.881 188.349C187.113 188.349 188.363 187.629 189.659 186.749C190.955 185.869 192.205 185.149 192.437 185.149C192.669 185.149 192.859 184.999 192.859 184.817C192.859 184.635 193.354 184.229 193.959 183.917C194.564 183.605 195.408 183.034 195.834 182.649C196.26 182.264 196.801 181.949 197.036 181.949C197.271 181.949 197.971 181.409 198.594 180.749C199.217 180.089 199.867 179.549 200.037 179.549C200.207 179.549 201.218 178.739 202.281 177.749C203.344 176.759 204.37 175.949 204.561 175.949C205.046 175.949 218.039 162.891 219.42 161.017C220.903 159.004 222.731 157.149 223.233 157.149C223.453 157.149 223.547 156.922 223.44 156.645C223.333 156.368 223.79 155.546 224.453 154.82C225.116 154.094 225.659 153.318 225.659 153.096C225.659 152.543 226.696 151.549 227.273 151.549C227.532 151.549 227.654 151.313 227.543 151.024C227.432 150.735 227.679 150.061 228.092 149.524C228.505 148.987 228.845 148.343 228.85 148.092C228.855 147.841 229.155 147.521 229.516 147.382C229.877 147.243 230.059 147.016 229.92 146.876C229.781 146.736 229.825 146.426 230.02 146.186C232.132 143.579 232.616 140.506 231.159 138.957C230.137 137.871 225.263 137.337 224.95 138.276C224.863 138.536 224.368 138.749 223.849 138.749C223.33 138.749 222.795 138.929 222.659 139.149C222.523 139.369 221.983 139.549 221.459 139.549C220.935 139.549 220.39 139.736 220.249 139.965C220.108 140.194 219.668 140.279 219.273 140.153C218.82 140.01 218.46 140.169 218.3 140.586C218.113 141.073 217.743 141.186 216.889 141.015C216.082 140.854 215.664 140.96 215.508 141.366C215.385 141.687 214.839 141.949 214.295 141.949C213.751 141.949 213.184 142.146 213.036 142.387C212.888 142.628 212.345 142.744 211.832 142.646C211.247 142.534 210.814 142.689 210.671 143.062C210.497 143.516 210.032 143.599 208.689 143.415C207.301 143.225 206.884 143.308 206.69 143.813C206.503 144.3 206.103 144.396 205.006 144.218C203.983 144.052 203.384 144.167 202.933 144.618C202.414 145.137 201.736 145.204 199.162 144.989C196.567 144.773 195.912 144.839 195.378 145.373C194.557 146.194 186.437 146.085 186.159 145.249C186.036 144.881 185.279 144.816 183.282 145.002C180.143 145.293 179.465 144.827 181.216 143.58C181.858 143.123 182.54 142.749 182.732 142.749C182.924 142.749 183.342 142.389 183.659 141.949C183.976 141.509 184.388 141.149 184.575 141.149C184.898 141.149 188.437 138.856 188.859 138.373C188.969 138.247 189.741 137.636 190.574 137.015C192.527 135.559 201.259 126.913 201.259 126.436C201.259 125.861 202.701 124.349 203.249 124.349C203.521 124.349 203.65 124.103 203.535 123.802C203.42 123.501 203.85 122.68 204.492 121.977C205.134 121.274 205.659 120.441 205.659 120.124C205.659 119.807 205.937 119.549 206.277 119.549C206.617 119.549 206.857 119.324 206.812 119.049C206.706 118.397 207.447 116.626 208.126 115.911C208.851 115.147 211.259 110.368 211.259 109.693C211.259 109.394 211.541 109.149 211.886 109.149C212.331 109.149 212.439 108.917 212.259 108.349C212.113 107.89 212.187 107.549 212.432 107.549C212.667 107.549 212.859 107.217 212.859 106.81C212.859 105.908 213.997 103.549 214.433 103.549C214.606 103.549 214.662 103.101 214.558 102.554C214.429 101.882 214.576 101.479 215.01 101.312C215.444 101.145 215.58 100.775 215.424 100.151C215.297 99.6484 215.389 99.1164 215.627 98.9694C215.865 98.8224 216.059 98.3524 216.059 97.9254C216.059 97.4984 216.318 97.1494 216.634 97.1494C217.063 97.1494 217.153 96.8084 216.99 95.8004C216.862 95.0104 216.955 94.3374 217.215 94.1764C217.459 94.0254 217.659 93.3724 217.659 92.7254C217.659 91.9824 217.866 91.5494 218.221 91.5494C218.641 91.5494 218.731 91.1644 218.578 90.0214C218.439 88.9844 218.561 88.3044 218.959 87.9064C219.33 87.5364 219.476 86.8484 219.358 86.0394C219.22 85.1034 219.345 84.6914 219.822 84.5084C220.35 84.3054 220.427 83.8994 220.225 82.3744C220.035 80.9464 220.127 80.3394 220.603 79.8624C221.079 79.3854 221.175 78.7554 220.99 77.2004C220.804 75.6264 220.881 75.1154 221.332 74.9424C221.797 74.7644 221.879 74.0534 221.74 71.4094C221.612 68.9594 221.709 67.9494 222.115 67.5244C222.521 67.0994 222.662 65.5914 222.661 61.6354C222.66 58.5474 222.827 56.2014 223.059 56.0354C223.623 55.6324 223.645 33.4454 223.081 33.0634C222.818 32.8854 222.648 30.4714 222.629 26.6634C222.613 23.3004 222.433 20.1894 222.229 19.7494C222.025 19.3094 221.871 16.6994 221.886 13.9494C221.906 10.1234 221.779 8.8154 221.342 8.3764C220.941 7.9744 220.839 7.2984 221.002 6.1144C221.182 4.7994 221.094 4.3714 220.604 4.1834C220.159 4.0134 220.048 3.6494 220.224 2.9454C220.408 2.2114 220.314 1.9494 219.867 1.9494C219.532 1.9494 219.259 1.7694 219.259 1.5494C219.259 1.3294 219.008 1.1494 218.702 1.1494C218.396 1.1494 218.041 0.8794 217.914 0.5494C217.552 -0.3946 215.964 -0.0806 214.759 1.1734ZM216.269 16.4494C216.429 18.4844 216.533 22.6564 216.502 25.7214C216.46 29.8404 216.577 31.3754 216.952 31.6064C217.689 32.0624 217.692 58.4054 216.954 58.6514C216.567 58.7804 216.51 59.8244 216.71 63.1164C216.922 66.6094 216.862 67.5154 216.388 67.9574C215.975 68.3444 215.855 69.0954 215.976 70.5534C216.102 72.0734 215.98 72.7714 215.505 73.2454C214.995 73.7564 214.916 74.3794 215.118 76.3094C215.332 78.3584 215.267 78.7714 214.698 78.9894C214.155 79.1984 214.073 79.5724 214.276 80.9214C214.46 82.1504 214.369 82.7264 213.933 83.0884C213.514 83.4354 213.402 84.0464 213.551 85.1574C213.716 86.3854 213.616 86.7914 213.101 86.9884C212.586 87.1854 212.498 87.5494 212.694 88.5954C212.894 89.6604 212.816 89.9494 212.329 89.9494C211.842 89.9494 211.759 90.2544 211.935 91.3424C212.107 92.4004 212.006 92.7954 211.513 92.9844C211.059 93.1584 210.937 93.5194 211.104 94.1874C211.269 94.8454 211.15 95.2164 210.719 95.3814C210.275 95.5524 210.158 95.9464 210.317 96.7374C210.441 97.3594 210.345 97.9724 210.099 98.1244C209.853 98.2764 209.659 98.7514 209.659 99.1854C209.659 99.6194 209.379 100.082 209.036 100.213C208.693 100.344 208.51 100.706 208.629 101.016C208.748 101.326 208.598 101.674 208.296 101.79C207.964 101.917 207.833 102.33 207.965 102.835C208.037 103.082 208.029 103.345 207.942 103.587C207.855 103.829 207.694 104.037 207.481 104.182C207.095 104.465 206.898 104.889 207.044 105.125C207.19 105.361 207.048 105.655 206.729 105.778C206.384 105.91 206.23 106.316 206.35 106.775C206.487 107.3 206.348 107.549 205.918 107.549C205.539 107.549 205.371 107.774 205.499 108.109C205.617 108.416 205.521 108.787 205.286 108.932C205.051 109.077 204.859 109.546 204.859 109.973C204.859 110.4 204.713 110.749 204.534 110.749C204.355 110.749 203.954 111.398 203.642 112.192C203.33 112.986 202.698 113.932 202.236 114.296C201.774 114.66 201.451 115.135 201.52 115.353C201.589 115.571 201.108 116.358 200.452 117.103C199.796 117.848 199.259 118.67 199.259 118.93C199.259 119.19 198.269 120.467 197.059 121.767C195.849 123.067 194.859 124.257 194.859 124.412C194.859 125.053 187.368 132.172 184.754 134.015C184.042 134.517 183.11 135.247 182.684 135.638C182.258 136.029 181.672 136.349 181.384 136.349C181.096 136.349 180.859 136.499 180.859 136.681C180.859 136.863 180.364 137.269 179.759 137.581C179.154 137.893 178.569 138.238 178.459 138.348C178.349 138.458 177.539 138.923 176.659 139.379L174.259 140.643C172.373 141.665 170.651 142.289 170.545 141.989C170.482 141.811 169.99 141.75 169.45 141.853C168.822 141.973 168.388 141.829 168.244 141.454C168.1 141.079 167.666 140.935 167.039 141.055C166.472 141.163 166.059 141.054 166.059 140.796C166.059 140.55 165.787 140.349 165.454 140.349C165.121 140.349 164.536 140.181 164.154 139.975C163.772 139.769 162.874 139.366 162.159 139.078C161.444 138.79 160.859 138.33 160.859 138.056C160.859 137.782 160.461 137.601 159.959 137.654C159.429 137.71 159.098 137.549 159.154 137.263C159.212 136.971 158.997 136.875 158.614 137.022C158.264 137.156 157.861 137.104 157.719 136.907C157.577 136.71 156.739 136.175 155.859 135.719C153.254 134.367 152.303 133.784 151.663 133.146C151.331 132.815 150.564 132.289 149.959 131.979C149.354 131.669 148.859 131.264 148.859 131.081C148.859 130.898 148.688 130.749 148.479 130.749C147.417 130.749 140.059 124.482 140.059 123.577C140.059 123.356 139.801 123.273 139.485 123.394C138.932 123.607 127.259 112.262 127.259 111.512C127.259 111.331 126.539 110.426 125.659 109.501C124.779 108.576 124.059 107.706 124.059 107.569C124.059 107.432 123.159 106.36 122.059 105.188C120.959 104.016 120.059 102.848 120.059 102.592C120.059 102.336 119.699 101.866 119.259 101.549C118.819 101.232 118.459 100.787 118.459 100.561C118.459 100.335 117.991 99.6094 117.421 98.9494C116.851 98.2894 116.126 97.2544 115.811 96.6494C115.496 96.0444 115.063 95.5494 114.849 95.5494C114.635 95.5494 114.459 95.2794 114.459 94.9494C114.459 94.6194 114.099 93.9894 113.659 93.5494C113.219 93.1094 112.859 92.6034 112.859 92.4244C112.859 92.2454 112.544 91.7424 112.159 91.3044C111.713 90.7807 111.312 90.2204 110.959 89.6294L109.959 87.8644C109.684 87.3784 109.234 86.7354 108.959 86.4364C108.684 86.1374 108.459 85.5454 108.459 85.1204C108.459 84.6774 108.184 84.3494 107.812 84.3494C107.363 84.3494 107.229 84.1054 107.375 83.5494C107.502 83.0624 107.387 82.7494 107.081 82.7494C106.805 82.7494 105.97 81.5344 105.227 80.0494C104.484 78.5644 103.782 77.2594 103.667 77.1494C103.192 76.6934 102.459 75.1184 102.459 74.5544C102.459 74.2214 102.324 73.9484 102.159 73.9464C101.8 73.9424 100.859 72.0054 100.859 71.2694C100.859 70.9834 100.7 70.7494 100.506 70.7494C100.312 70.7494 100.052 70.4344 99.9304 70.0494C99.8084 69.6644 99.4004 68.8094 99.0234 68.1494C97.2044 64.9624 97.1594 64.1494 98.8234 64.4824C99.6654 64.6504 100.053 64.5414 100.228 64.0864C100.387 63.6714 100.799 63.5214 101.444 63.6444C102.066 63.7634 102.5 63.6184 102.644 63.2444C102.788 62.8704 103.18 62.7404 103.716 62.8804C104.21 63.0094 104.822 62.8434 105.183 62.4824C105.613 62.0524 106.266 61.9254 107.317 62.0664C108.335 62.2034 108.804 62.1184 108.746 61.8094C108.694 61.5334 109.22 61.3494 110.059 61.3494C110.829 61.3494 111.657 61.0964 111.899 60.7864C112.223 60.3734 112.837 60.2924 114.22 60.4824C115.383 60.6414 116.01 60.5934 115.863 60.3564C115.568 59.8784 117.433 59.3774 118.288 59.7054C118.635 59.8384 119.208 59.6574 119.562 59.3034C120.038 58.8274 120.642 58.7204 121.894 58.8924C123.218 59.0734 123.636 58.9854 123.828 58.4844C124.013 58.0024 124.44 57.8954 125.569 58.0464C126.591 58.1834 127.242 58.0584 127.623 57.6494C128.033 57.2104 128.685 57.1124 130.086 57.2784C131.583 57.4554 132.042 57.3704 132.229 56.8834C132.399 56.4394 132.862 56.3094 133.852 56.4244C134.776 56.5324 135.306 56.4034 135.447 56.0374C135.582 55.6854 136.145 55.5304 137.013 55.6044C137.759 55.6694 138.661 55.4794 139.017 55.1834C139.441 54.8324 140.279 54.7154 141.439 54.8464C142.78 54.9974 143.269 54.8994 143.443 54.4464C143.61 54.0104 144.044 53.9074 145.035 54.0684C146.042 54.2314 146.459 54.1274 146.635 53.6684C146.818 53.1904 147.283 53.0934 148.643 53.2464C149.98 53.3974 150.469 53.2994 150.643 52.8464C150.81 52.4104 151.244 52.3074 152.235 52.4684C153.201 52.6244 153.66 52.5234 153.815 52.1194C153.954 51.7584 154.617 51.5494 155.623 51.5494C156.497 51.5494 157.334 51.3514 157.484 51.1094C157.634 50.8674 158.249 50.7674 158.871 50.8914C159.667 51.0514 160.056 50.9334 160.23 50.4814C160.412 50.0074 160.818 49.9034 161.835 50.0684C162.838 50.2304 163.259 50.1264 163.433 49.6734C163.589 49.2664 164.006 49.1224 164.664 49.2484C165.363 49.3814 165.659 49.2614 165.659 48.8444C165.659 48.3964 165.956 48.3084 166.859 48.4894C167.762 48.6704 168.059 48.5814 168.059 48.1394C168.059 47.7534 168.465 47.5494 169.235 47.5494C169.882 47.5494 170.523 47.3694 170.659 47.1494C170.795 46.9294 171.346 46.7494 171.883 46.7494C172.42 46.7494 172.859 46.5464 172.859 46.2994C172.859 46.0124 173.295 45.9364 174.059 46.0894C174.99 46.2754 175.259 46.1864 175.259 45.6924C175.259 45.2574 175.507 45.1204 176.044 45.2614C176.476 45.3744 177.038 45.2154 177.293 44.9084C177.548 44.6014 177.999 44.3494 178.296 44.3494C178.593 44.3494 179.499 43.9764 180.312 43.5194C181.125 43.0624 182.12 42.7764 182.524 42.8824C182.928 42.9884 183.262 42.8664 183.266 42.6124C183.275 42.0114 187.096 40.2014 187.642 40.5384C187.871 40.6804 188.062 40.5614 188.066 40.2734C188.07 39.9854 188.97 39.3254 190.066 38.8074C191.162 38.2894 192.059 37.7034 192.059 37.5074C192.059 37.3114 192.419 37.1494 192.859 37.1494C193.299 37.1494 193.659 36.9994 193.659 36.8174C193.659 36.6354 194.151 36.2294 194.753 35.9174C195.355 35.6054 196.171 35.0794 196.566 34.7494C196.961 34.4194 197.414 34.1494 197.572 34.1494C197.73 34.1494 198.849 33.2064 200.059 32.0534C201.269 30.9004 202.376 29.9554 202.519 29.9534C202.866 29.9484 205.659 27.1434 205.659 26.7994C205.659 26.6514 206.559 25.6004 207.659 24.4654C208.759 23.3304 209.659 22.2314 209.659 22.0244C209.659 21.8174 209.916 21.4344 210.23 21.1734C210.736 20.7534 212.186 18.2514 213.43 15.6524C213.666 15.1594 213.994 14.7544 214.159 14.7524C214.324 14.7504 214.459 14.4194 214.459 14.0164C214.459 13.1614 214.793 12.7494 215.486 12.7494C215.821 12.7494 216.073 13.9384 216.269 16.4494ZM92.2994 67.6524L93.6494 70.3494L94.8474 72.7494C95.1624 73.4084 95.8004 74.6574 96.5324 76.0494L98.5014 79.8434C99.3234 81.4354 100.37 83.2624 100.827 83.9054C101.284 84.5484 101.659 85.2704 101.659 85.5114C101.659 85.7524 101.86 85.9494 102.106 85.9494C102.352 85.9494 102.46 86.3024 102.343 86.7494C102.214 87.2444 102.331 87.5494 102.65 87.5494C102.934 87.5494 103.266 87.8644 103.388 88.2494C103.676 89.1584 104.871 91.1024 105.759 92.1074C106.144 92.5434 106.459 93.1214 106.459 93.3914C106.459 93.6614 106.62 93.9424 106.817 94.0164C107.014 94.0904 107.509 94.7094 107.917 95.3944C109.185 97.5214 112.187 101.742 112.531 101.882C112.712 101.956 112.859 102.226 112.86 102.482C112.861 102.738 113.4 103.579 114.059 104.349C114.718 105.119 115.258 105.902 115.258 106.089C115.258 106.276 115.761 106.905 116.374 107.489C116.987 108.073 117.931 109.179 118.47 109.949C119.115 110.849 119.815 111.707 120.565 112.519C121.177 113.162 121.784 114.107 121.912 114.619C122.04 115.131 122.295 115.549 122.477 115.549C122.96 115.549 136.859 129.502 136.859 129.987C136.859 130.212 137.042 130.283 137.267 130.144C137.621 129.925 140.83 132.276 143.545 134.744C144.032 135.187 144.583 135.549 144.769 135.549C144.955 135.549 145.457 135.864 145.884 136.249C146.311 136.634 147.154 137.204 147.759 137.517C148.364 137.83 148.859 138.234 148.859 138.417C148.859 138.6 149.219 138.749 149.659 138.749C150.099 138.749 150.459 138.901 150.459 139.086C150.459 139.271 151.314 139.854 152.359 140.381C153.404 140.908 154.349 141.431 154.459 141.544C154.569 141.657 155.379 142.123 156.259 142.579L158.659 143.832C159.286 144.158 159.92 144.47 160.559 144.77C161.164 145.053 161.659 145.412 161.659 145.568C161.659 146.057 159.302 146.854 158.488 146.641C158.019 146.518 157.619 146.675 157.481 147.037C157.31 147.481 156.901 147.571 155.901 147.383C154.858 147.188 154.494 147.28 154.298 147.793C154.093 148.325 153.699 148.408 152.289 148.215C150.902 148.025 150.483 148.108 150.29 148.612C150.097 149.116 149.628 149.209 148.072 149.06C146.597 148.918 146.043 149.015 145.878 149.443C145.696 149.917 144.897 149.967 141.259 149.731C138.089 149.526 136.859 149.572 136.859 149.898C136.859 150.19 135.872 150.349 134.059 150.349C132.3 150.349 131.259 150.186 131.259 149.912C131.259 149.606 130.129 149.559 127.515 149.755C124.483 149.982 123.668 149.925 123.226 149.452C122.852 149.052 122.159 148.926 121.028 149.054C119.897 149.182 119.203 149.056 118.828 148.654C118.448 148.247 117.759 148.126 116.577 148.259C115.281 148.405 114.816 148.303 114.635 147.83C114.459 147.371 114.042 147.267 113.035 147.43C112.028 147.593 111.611 147.49 111.435 147.03C111.259 146.57 110.842 146.467 109.835 146.63C108.808 146.797 108.412 146.692 108.224 146.203C108.05 145.749 107.689 145.627 107.021 145.794C106.389 145.953 105.992 145.841 105.847 145.463C105.702 145.085 105.227 144.951 104.444 145.066C103.736 145.17 103.259 145.06 103.259 144.794C103.259 144.549 102.91 144.349 102.483 144.349C102.056 144.349 101.595 144.169 101.459 143.949C101.323 143.729 100.913 143.549 100.547 143.549C99.5434 143.549 96.0744 141.812 96.0664 141.304C96.0624 141.047 95.6394 140.94 95.0594 141.051C94.5094 141.156 94.0594 141.085 94.0594 140.893C94.0594 140.701 93.4744 140.305 92.7594 140.013C90.3154 139.015 89.6594 138.614 89.6594 138.119C89.6594 137.821 89.3414 137.707 88.8594 137.833C88.2964 137.98 88.0594 137.845 88.0594 137.378C88.0594 137.013 87.8344 136.759 87.5594 136.814C86.9004 136.947 84.0594 135.558 84.0594 135.103C84.0594 134.908 83.8164 134.749 83.5184 134.749C83.2204 134.749 82.4134 134.209 81.7224 133.549C81.0314 132.889 80.3194 132.349 80.1384 132.349C79.9574 132.349 79.4614 132.029 79.0344 131.638C78.6074 131.247 77.6294 130.485 76.8594 129.943C76.0894 129.401 74.4694 127.987 73.2594 126.799C69.9144 123.513 68.7614 122.749 67.1484 122.749C65.1204 122.749 63.6804 124.675 64.5094 126.28C65.0764 127.379 69.1124 131.549 69.6094 131.549C69.7634 131.549 70.7324 132.346 71.7644 133.321C72.7964 134.296 74.1844 135.414 74.8494 135.807C75.5144 136.2 76.0594 136.663 76.0594 136.835C76.0594 137.007 76.2954 137.149 76.5844 137.149C76.8734 137.149 77.4574 137.464 77.8844 137.849C78.3114 138.234 79.1544 138.804 79.7594 139.117C80.3644 139.43 80.8594 139.834 80.8594 140.017C80.8594 140.2 81.0954 140.349 81.3844 140.349C81.6734 140.349 82.2574 140.664 82.6844 141.05C83.1114 141.436 84.3144 142.183 85.3594 142.712C86.4044 143.241 87.2594 143.927 87.2594 144.235C87.2594 144.543 87.4434 144.682 87.6684 144.543C88.1294 144.258 90.4594 145.179 90.4594 145.647C90.4594 145.813 90.7314 145.949 91.0644 145.949C91.3974 145.949 92.0274 146.129 92.4644 146.349L94.0544 147.149C94.4914 147.369 95.1214 147.549 95.4544 147.549C95.7874 147.549 96.0594 147.729 96.0594 147.949C96.0594 148.169 96.3244 148.349 96.6474 148.349C96.9704 148.349 97.8764 148.709 98.6594 149.149C99.4424 149.589 100.427 149.949 100.848 149.949C101.269 149.949 101.723 150.129 101.859 150.349C101.995 150.569 102.546 150.749 103.083 150.749C103.62 150.749 104.059 150.929 104.059 151.149C104.059 151.369 104.678 151.549 105.435 151.549C106.192 151.549 106.923 151.729 107.059 151.949C107.195 152.169 107.841 152.349 108.495 152.349C109.149 152.349 109.772 152.578 109.88 152.859C110.007 153.192 110.627 153.316 111.664 153.217C112.755 153.113 113.318 153.238 113.464 153.617C113.61 153.996 114.168 154.122 115.22 154.021C116.07 153.94 116.887 154.071 117.036 154.311C117.185 154.551 118.441 154.749 119.854 154.749C121.349 154.749 122.62 154.956 122.93 155.251C123.736 156.015 145.635 155.982 146.43 155.216C146.832 154.827 147.741 154.712 149.518 154.825C151.435 154.947 152.088 154.85 152.254 154.417C152.415 153.998 152.879 153.914 154.024 154.097C155.24 154.292 155.629 154.205 155.824 153.695C156.017 153.192 156.432 153.094 157.666 153.259C158.922 153.428 159.259 153.343 159.259 152.861C159.259 152.399 159.543 152.306 160.423 152.482C161.236 152.644 161.654 152.539 161.81 152.132C161.937 151.802 162.551 151.549 163.223 151.549C163.877 151.549 164.533 151.353 164.681 151.114C164.829 150.875 165.277 150.765 165.678 150.87C166.079 150.975 166.503 150.811 166.621 150.505C166.739 150.199 167.172 149.949 167.585 149.949C167.998 149.949 168.887 149.674 169.56 149.338C170.933 148.654 173.995 148.916 174.313 149.745C174.437 150.069 175.146 150.166 176.472 150.038C178.005 149.891 178.498 149.986 178.683 150.467C178.871 150.956 179.356 151.04 181.013 150.869C182.494 150.716 183.274 150.814 183.682 151.206C184.513 152.002 197.597 151.998 198.436 151.2C198.843 150.814 199.669 150.711 201.236 150.853C202.879 151.002 203.602 150.901 204.008 150.466C204.386 150.062 205.163 149.921 206.504 150.014C207.883 150.11 208.512 149.989 208.661 149.6C208.803 149.229 209.246 149.126 210.029 149.283C210.864 149.45 211.254 149.34 211.427 148.887C211.595 148.452 212.029 148.313 212.848 148.433C213.591 148.542 214.103 148.41 214.231 148.077C214.345 147.78 215.041 147.549 215.823 147.549C216.587 147.549 217.333 147.353 217.481 147.114C217.629 146.875 218.089 146.768 218.505 146.877C218.94 146.991 219.408 146.812 219.608 146.455C219.835 146.05 220.311 145.904 220.987 146.033C221.636 146.157 222.096 146.03 222.226 145.69C222.459 145.084 223.659 144.942 223.659 145.52C223.659 145.725 223.389 146.162 223.059 146.492C222.729 146.822 222.459 147.193 222.459 147.317C222.459 147.561 220.054 150.853 218.928 152.149C218.546 152.589 217.891 153.489 217.474 154.149C217.057 154.809 216.027 156.031 215.187 156.864C214.347 157.697 213.659 158.527 213.659 158.706C213.659 159.413 202.725 169.983 202.202 169.782C201.903 169.668 201.659 169.745 201.659 169.954C201.659 170.485 199.301 172.851 197.859 173.767C197.199 174.186 196.068 175.074 195.346 175.739C194.624 176.404 193.9 176.949 193.737 176.949C193.574 176.949 193.006 177.354 192.474 177.849C191.942 178.344 191.287 178.749 191.017 178.749C190.747 178.749 190.466 178.894 190.392 179.072C190.236 179.452 187.296 181.49 185.157 182.701L182.359 184.284C181.644 184.688 180.834 184.943 180.559 184.851C180.284 184.759 180.059 184.967 180.059 185.316C180.059 185.682 179.722 185.949 179.259 185.949C178.819 185.949 178.459 186.095 178.459 186.274C178.459 186.453 177.829 186.847 177.059 187.149C176.289 187.451 175.659 187.845 175.659 188.024C175.659 188.203 175.406 188.349 175.097 188.349C174.788 188.349 173.753 188.735 172.797 189.206C171.841 189.677 170.609 190.238 170.059 190.452C169.485 190.678 168.919 190.926 168.364 191.196C167.9 191.41 167.399 191.53 166.888 191.549C166.458 191.549 165.985 191.745 165.837 191.984C165.689 192.223 165.229 192.33 164.814 192.221C164.317 192.091 164.059 192.233 164.059 192.636C164.059 193.099 163.775 193.192 162.895 193.016C162.055 192.848 161.665 192.957 161.491 193.409C161.326 193.84 160.955 193.959 160.297 193.794C159.63 193.627 159.268 193.749 159.095 194.201C158.913 194.673 158.535 194.784 157.689 194.615C156.851 194.447 156.464 194.558 156.289 195.015C156.114 195.472 155.727 195.583 154.889 195.415C154.051 195.247 153.664 195.358 153.491 195.809C153.321 196.252 152.957 196.36 152.239 196.18C151.561 196.01 151.009 196.142 150.571 196.58C150.095 197.056 149.481 197.177 148.329 197.022C147.207 196.872 146.561 196.99 146.125 197.426C145.662 197.888 145.017 197.984 143.541 197.81C142.161 197.646 141.413 197.738 141.034 198.117C140.276 198.875 117.213 198.81 116.959 198.049C116.839 197.689 116.192 197.62 114.634 197.804C112.879 198.01 112.43 197.939 112.233 197.426C112.04 196.923 111.593 196.842 110.033 197.027C108.428 197.217 108.029 197.137 107.817 196.583C107.624 196.081 107.272 195.97 106.446 196.152C105.826 196.288 105.22 196.209 105.073 195.972C104.926 195.735 104.392 195.549 103.878 195.549C103.364 195.549 102.842 195.282 102.717 194.956C102.556 194.538 102.146 194.432 101.323 194.596C100.654 194.73 100.04 194.642 99.8844 194.389C99.7344 194.147 99.2574 193.949 98.8234 193.949C98.3894 193.949 97.9354 193.69 97.8134 193.374C97.6914 193.058 97.3284 192.901 97.0044 193.026C96.6804 193.151 95.6594 192.891 94.7374 192.45C88.7654 189.597 87.4444 188.92 87.3264 188.651C87.2524 188.485 86.8474 188.349 86.4264 188.349C85.9884 188.349 85.6594 188.073 85.6594 187.706C85.6594 187.322 85.4364 187.149 85.1034 187.277C84.7974 187.394 84.2124 187.188 83.8034 186.82C83.2339 186.344 82.6158 185.928 81.9594 185.581C81.3544 185.269 80.8594 184.864 80.8594 184.681C80.8594 184.498 80.6344 184.349 80.3594 184.348C80.0844 184.347 79.2294 183.808 78.4594 183.149C77.6894 182.49 76.9124 181.95 76.7324 181.95C76.2984 181.949 73.6594 179.137 73.6594 178.676C73.6594 178.477 73.4084 178.367 73.1024 178.431C72.4434 178.571 67.4054 173.876 64.8594 170.749C63.8734 169.539 62.6104 168.099 62.0514 167.549C61.4924 166.999 60.4604 165.649 59.7584 164.549C59.0564 163.449 58.2954 162.332 58.0704 162.066C57.8454 161.8 57.6594 161.429 57.6594 161.241C57.6594 161.053 57.2834 160.497 56.8244 160.004C56.3654 159.511 56.0894 158.847 56.2124 158.528C56.3394 158.197 56.2004 157.949 55.8894 157.949C55.3014 157.949 54.6834 156.858 54.8134 156.049C54.8584 155.774 54.7024 155.549 54.4674 155.549C53.9854 155.549 53.0874 153.616 53.2124 152.849C53.2574 152.574 53.1154 152.349 52.8954 152.349C52.6754 152.349 52.2034 151.674 51.8444 150.849C51.4854 150.024 51.0274 149.036 50.8254 148.654C50.6044 148.192 50.4798 147.69 50.4594 147.178C50.4594 146.748 50.2724 146.28 50.0434 146.139C49.8144 145.998 49.7294 145.558 49.8554 145.163C49.9974 144.715 49.8414 144.351 49.4414 144.197C49.0014 144.029 48.8394 143.567 48.9264 142.734C49.0024 142.008 48.8304 141.378 48.4994 141.174C48.1604 140.964 48.0354 140.484 48.1784 139.938C48.3214 139.392 48.1694 138.802 47.7924 138.425C47.3634 137.995 47.2354 137.342 47.3764 136.293C47.5054 135.327 47.3934 134.626 47.0654 134.354C45.5554 133.101 45.5844 114.66 47.0974 114.079C47.4864 113.93 47.5674 113.393 47.3934 112.119C47.2034 110.734 47.2864 110.313 47.7884 110.121C48.2434 109.946 48.3614 109.558 48.2014 108.761C48.0774 108.139 48.1734 107.526 48.4194 107.374C48.6654 107.222 48.8594 106.75 48.8594 106.32C48.8787 105.81 48.9987 105.308 49.2124 104.844C49.5554 104.171 49.8004 103.599 50.9234 100.849C51.2154 100.134 51.6914 99.5494 51.9804 99.5494C52.2694 99.5494 52.3924 99.3654 52.2534 99.1404C51.9684 98.6794 52.8894 96.3494 53.3574 96.3494C53.5234 96.3494 53.6594 96.0814 53.6594 95.7544C53.6594 95.4274 53.9174 94.8414 54.2334 94.4544C55.4754 92.9294 57.6594 89.9324 57.6594 89.7524C57.6594 88.9714 67.4384 79.2594 69.7454 77.7494C70.0814 77.5294 71.4504 76.5844 72.7864 75.6494C74.1224 74.7144 75.4054 73.9494 75.6374 73.9494C75.8694 73.9494 76.0594 73.7694 76.0594 73.5494C76.0594 73.3294 76.4194 73.1494 76.8594 73.1494C77.2994 73.1494 77.6594 73.0024 77.6594 72.8234C77.6594 72.4644 80.6984 70.7494 81.3354 70.7494C81.5554 70.7494 82.2584 70.3774 82.8974 69.9224C83.5854 69.4324 84.3664 69.1924 84.8114 69.3344C85.2874 69.4854 85.6514 69.3474 85.7994 68.9614C85.9284 68.6244 86.4004 68.3494 86.8464 68.3494C87.2924 68.3494 87.6594 68.1694 87.6594 67.9494C87.6594 67.7294 88.0984 67.5494 88.6354 67.5494C89.1724 67.5494 89.7234 67.3694 89.8594 67.1494C90.3134 66.4144 91.8474 66.7304 92.2994 67.6524Z"/>
</mask>
<path fill-rule="evenodd" clip-rule="evenodd" d="M214.759 1.1734C214.154 1.8024 213.655 2.4594 213.65 2.6334C213.645 2.8074 213.289 3.3994 212.859 3.9494C212.429 4.4994 212.073 5.2704 212.068 5.6624C212.063 6.0544 211.779 6.4824 211.436 6.6134C211.093 6.7444 210.906 7.0934 211.019 7.3884C211.132 7.6834 211.052 8.0304 210.842 8.1604C210.632 8.2904 210.459 8.7464 210.459 9.1734C210.459 9.6004 210.206 9.9494 209.896 9.9494C209.531 9.9494 209.407 10.2294 209.543 10.7494C209.658 11.1894 209.58 11.5494 209.369 11.5494C209.158 11.5494 208.554 12.4044 208.027 13.4494L206.864 15.5494C206.327 16.0724 204.859 18.3574 204.859 18.6694C204.859 19.2344 194.867 29.1494 194.298 29.1494C194.015 29.1494 193.457 29.5094 193.059 29.9494C192.661 30.3894 192.093 30.7494 191.797 30.7494C191.501 30.7494 191.259 30.8994 191.259 31.0814C191.259 31.2634 190.764 31.6694 190.159 31.9814C189.554 32.2934 188.96 32.6814 188.838 32.8444C188.42 33.4044 179.118 37.9494 178.389 37.9494C177.987 37.9494 177.659 38.1294 177.659 38.3494C177.659 38.5694 177.31 38.7494 176.883 38.7494C176.456 38.7494 175.995 38.9294 175.859 39.1494C175.723 39.3694 175.26 39.5494 174.83 39.5494C174.32 39.5688 173.818 39.6887 173.354 39.9024C171.214 40.9914 170.472 41.2074 169.707 40.9644C169.089 40.7684 168.859 40.8654 168.859 41.3224C168.859 41.6764 168.521 41.9494 168.083 41.9494C167.656 41.9494 167.184 42.1464 167.036 42.3874C166.888 42.6284 166.345 42.7444 165.832 42.6464C165.249 42.5344 164.814 42.6894 164.672 43.0594C164.508 43.4874 164.068 43.5904 163.083 43.4304C162.08 43.2684 161.659 43.3724 161.485 43.8254C161.331 44.2284 160.912 44.3764 160.274 44.2544C159.65 44.1354 159.218 44.2804 159.072 44.6584C158.902 45.1034 158.461 45.1884 157.294 45.0014C156.08 44.8074 155.689 44.8934 155.495 45.4004C155.313 45.8734 154.935 45.9844 154.089 45.8154C153.25 45.6474 152.864 45.7584 152.688 46.2174C152.499 46.7114 152.047 46.8074 150.652 46.6494C149.233 46.4894 148.859 46.5734 148.859 47.0494C148.859 47.5254 148.532 47.5994 147.301 47.4024C146.076 47.2064 145.69 47.2924 145.493 47.8044C145.294 48.3244 144.889 48.4074 143.489 48.2154C142.101 48.0254 141.684 48.1084 141.49 48.6134C141.306 49.0914 140.903 49.1964 139.883 49.0304C138.877 48.8674 138.459 48.9714 138.284 49.4294C138.101 49.9064 137.687 49.9924 136.494 49.8014C135.279 49.6074 134.889 49.6934 134.694 50.2014C134.497 50.7164 134.04 50.8114 132.472 50.6604C130.972 50.5164 130.444 50.6124 130.271 51.0614C130.106 51.4914 129.636 51.5984 128.549 51.4524C127.527 51.3154 126.876 51.4404 126.495 51.8494C126.085 52.2884 125.433 52.3864 124.032 52.2204C122.528 52.0424 122.076 52.1274 121.886 52.6224C121.7 53.1074 121.293 53.1934 120.094 53.0014C118.878 52.8074 118.489 52.8934 118.294 53.4024C118.099 53.9114 117.663 54.0084 116.275 53.8524C114.938 53.7014 114.449 53.7994 114.275 54.2524C114.108 54.6884 113.674 54.7914 112.683 54.6304C111.676 54.4674 111.259 54.5714 111.083 55.0304C110.9 55.5084 110.435 55.6054 109.075 55.4524C107.801 55.3084 107.246 55.4064 107.095 55.8014C106.979 56.1024 106.349 56.3494 105.695 56.3494C105.041 56.3494 104.384 56.5464 104.236 56.7874C104.088 57.0284 103.545 57.1444 103.032 57.0464C102.448 56.9344 102.014 57.0894 101.872 57.4604C101.704 57.8974 101.235 57.9974 100.079 57.8424C98.9114 57.6864 98.4544 57.7864 98.2814 58.2364C98.1304 58.6294 97.7064 58.7754 97.0684 58.6534C96.5284 58.5504 96.0254 58.6514 95.9494 58.8794C95.6824 59.6794 94.3584 58.7774 94.5764 57.9444C94.7114 57.4294 94.5864 57.1494 94.2224 57.1494C93.9124 57.1494 93.6594 56.8144 93.6594 56.4054C93.6594 55.7854 92.6354 53.4274 90.8134 49.8544C90.6184 49.4724 90.4594 48.8874 90.4594 48.5544C90.4594 48.2214 90.2794 47.9494 90.0594 47.9494C89.8394 47.9494 89.6594 47.5104 89.6594 46.9734C89.6594 46.4364 89.4674 45.8774 89.2324 45.7324C88.9974 45.5874 88.8954 45.2314 89.0064 44.9424C89.1174 44.6534 88.9504 44.3164 88.6344 44.1954C88.4722 44.1248 88.3327 44.0108 88.2312 43.8659C88.1297 43.721 88.0703 43.5509 88.0594 43.3744C88.0594 43.0444 87.6994 42.1324 87.2594 41.3494C86.8194 40.5664 86.4594 39.6604 86.4594 39.3374C86.4594 39.0144 86.3244 38.7484 86.1594 38.7464C85.9944 38.7444 85.6614 38.3394 85.4194 37.8464C84.1114 35.1754 81.4504 30.1224 81.2614 29.9494C81.1414 29.8394 80.8254 29.2544 80.5594 28.6494C80.2934 28.0444 79.8924 27.5494 79.6684 27.5494C79.4444 27.5494 79.2594 27.3084 79.2594 27.0144C79.2594 26.7204 78.3654 25.5044 77.2734 24.3144C76.1814 23.1244 75.2814 22.0284 75.2734 21.8804C75.2654 21.7324 74.5394 20.9054 73.6594 20.0424C72.7794 19.1794 72.0594 18.2714 72.0594 18.0244C72.0594 17.7774 71.8344 17.6594 71.5594 17.7634C71.2844 17.8674 70.4294 17.4124 69.6594 16.7524C68.8894 16.0924 68.0344 15.5504 67.7594 15.5504C67.4844 15.5504 67.2594 15.4134 67.2594 15.2474C67.2594 15.0814 66.7194 14.7054 66.0594 14.4134C65.3994 14.1214 64.8594 13.6444 64.8594 13.3534C64.8594 13.0314 64.5634 12.9014 64.1044 13.0214C63.6894 13.1304 63.2284 13.0234 63.0814 12.7844C62.9344 12.5454 62.4574 12.3494 62.0234 12.3494C61.5894 12.3494 61.1414 12.1064 61.0264 11.8084C60.9004 11.4794 60.4384 11.3404 59.8444 11.4544C59.1934 11.5794 58.7874 11.4274 58.6224 10.9984C58.4504 10.5494 58.0874 10.4274 57.4214 10.5944C56.7554 10.7614 56.3924 10.6394 56.2164 10.1824C56.0274 9.6894 55.6524 9.5894 54.6744 9.7734C53.8474 9.9284 53.1804 9.8234 52.8214 9.4824C52.0104 8.7124 40.1014 8.7204 39.2894 9.4904C38.9364 9.8264 38.2274 9.9514 37.4214 9.8204C36.4804 9.6684 36.0564 9.7794 35.8864 10.2244C35.7214 10.6544 35.2794 10.7844 34.4174 10.6584C33.6194 10.5404 33.1134 10.6654 32.9794 11.0134C32.8644 11.3134 32.1864 11.5494 31.4404 11.5494C30.7064 11.5494 29.9854 11.7454 29.8374 11.9844C29.6894 12.2234 29.2414 12.3334 28.8404 12.2284C28.4394 12.1234 28.0154 12.2874 27.8974 12.5934C27.7794 12.8994 27.2284 13.1494 26.6724 13.1494C26.1164 13.1494 25.6594 13.3294 25.6594 13.5494C25.6594 13.7694 25.3874 13.9494 25.0544 13.9494C24.4674 13.9494 24.0664 14.1074 22.1594 15.0874C20.1674 16.1104 19.8204 16.2804 18.8594 16.7034C17.7474 17.1934 16.6964 17.8474 15.5784 18.7494C15.1684 19.0794 14.6914 19.3494 14.5174 19.3494C14.3434 19.3494 13.8874 19.6644 13.5024 20.0494C13.1174 20.4344 12.6454 20.7494 12.4534 20.7494C12.2614 20.7494 11.4194 21.3784 10.5814 22.1474C9.74336 22.9164 8.92236 23.5464 8.75536 23.5474C8.58836 23.5484 7.86836 24.1104 7.15536 24.7974C6.17436 25.7203 5.16452 26.6121 4.12736 27.4714C0.440362 30.5084 -1.10964 34.5304 0.859362 35.9494C1.29936 36.2664 1.65936 36.7114 1.66036 36.9374C1.66136 37.1814 2.89736 37.3594 4.69036 37.3744C6.71536 37.3914 7.82636 37.5724 8.04036 37.9184C8.26736 38.2854 8.84036 38.3554 10.0094 38.1584C11.2934 37.9414 11.7094 38.0134 11.8894 38.4844C12.0594 38.9264 12.4884 39.0294 13.4904 38.8664C14.3734 38.7234 14.8594 38.8054 14.8594 39.0974C14.8594 39.3454 15.3094 39.5494 15.8594 39.5494C16.4094 39.5494 16.8594 39.7294 16.8594 39.9494C16.8594 40.1694 17.1314 40.3494 17.4644 40.3494C18.1734 40.3494 19.4894 41.0604 20.6144 42.0494C21.0524 42.4344 21.6464 42.7494 21.9344 42.7494C22.2224 42.7494 22.4594 42.9294 22.4594 43.1494C22.4594 43.3694 22.6954 43.5494 22.9824 43.5494C24.1074 43.5494 31.2594 51.3354 31.2594 52.5594C31.2594 52.7064 31.6364 53.3554 32.0964 54.0014C32.5564 54.6474 32.8384 55.4264 32.7224 55.7304C32.6064 56.0344 32.7684 56.3824 33.0844 56.5034C33.4064 56.6274 33.6594 57.2484 33.6594 57.9134C33.6594 58.5674 33.8564 59.2244 34.0974 59.3724C34.3384 59.5204 34.4544 60.0634 34.3564 60.5764C34.2444 61.1614 34.3994 61.5944 34.7734 61.7374C35.2354 61.9154 35.3164 62.4064 35.1374 63.9234C34.9524 65.4804 35.0344 65.9304 35.5334 66.1224C36.0494 66.3204 36.1134 66.7824 35.8944 68.7174C35.6964 70.4734 35.7594 71.1164 36.1434 71.2444C36.5274 71.3724 36.6594 72.6664 36.6594 76.2824C36.6594 78.9594 36.8184 81.1494 37.0134 81.1494C37.2084 81.1494 37.7844 81.5994 38.2944 82.1494C39.3984 83.3414 40.3304 83.3974 41.5884 82.3484C42.7364 81.3914 43.1714 71.0884 42.1104 69.9724C41.7204 69.5614 41.6224 68.7344 41.7704 67.0994C41.9354 65.2754 41.8534 64.7554 41.3674 64.5694C40.9084 64.3934 40.8084 63.9434 40.9664 62.7694C41.1244 61.5954 41.0234 61.1444 40.5664 60.9694C40.1094 60.7944 40.0084 60.3424 40.1664 59.1694C40.3164 58.0474 40.2174 57.5424 39.8174 57.3884C39.5104 57.2714 39.2594 56.8964 39.2594 56.5564C39.2594 56.2164 39.1004 55.6264 38.9064 55.2444C38.5634 54.5714 38.3184 53.9994 37.1954 51.2494C36.9034 50.5344 36.5284 49.9494 36.3614 49.9494C36.1944 49.9494 36.0594 49.5894 36.0594 49.1494C36.0594 48.7094 35.8794 48.3494 35.6594 48.3494C35.4394 48.3494 35.2594 48.1244 35.2594 47.8494C35.2584 47.0764 30.3724 41.6384 28.3454 40.1544C27.7484 39.7174 27.2594 39.1324 27.2594 38.8544C27.2594 38.5764 26.9414 38.3494 26.5524 38.3494C26.1634 38.3494 25.1824 37.8994 24.3734 37.3494C23.5644 36.7994 22.6224 36.3494 22.2804 36.3494C21.9384 36.3494 21.6594 36.0674 21.6594 35.7224C21.6594 35.2774 21.4274 35.1694 20.8594 35.3494C20.2824 35.5324 20.0594 35.4214 20.0594 34.9494C20.0594 34.4874 19.8344 34.3664 19.2934 34.5384C18.8714 34.6724 18.4114 34.5944 18.2694 34.3654C18.1274 34.1364 17.6604 33.9494 17.2304 33.9494C16.8004 33.9494 16.0914 33.7694 15.6544 33.5494L14.0644 32.7494C13.6274 32.5294 12.5824 32.3494 11.7414 32.3494C8.90636 32.3494 8.40436 31.4794 10.2704 29.7984C11.1444 29.0114 12.0024 28.3634 12.1774 28.3584C12.3524 28.3534 12.9324 27.9124 13.4664 27.3784C14.1329 26.7419 14.8642 26.1768 15.6484 25.6924C16.3144 25.2984 16.8594 24.8354 16.8594 24.6634C16.8594 24.4914 17.2194 24.3494 17.6594 24.3494C18.0994 24.3494 18.4594 24.1994 18.4594 24.0174C18.4594 23.8354 18.9544 23.4294 19.5594 23.1174C20.1644 22.8054 20.7494 22.4604 20.8594 22.3504C21.3354 21.8724 22.8984 21.1494 23.4544 21.1494C23.7874 21.1494 24.0594 21.0134 24.0594 20.8474C24.0594 20.6814 24.6444 20.3074 25.3594 20.0164C26.319 19.6145 27.2655 19.1819 28.1974 18.7194C29.0434 18.2954 29.9884 17.9494 30.2974 17.9494C30.6064 17.9494 30.8594 17.7454 30.8594 17.4974C30.8594 17.2054 31.3454 17.1234 32.2284 17.2664C33.2274 17.4294 33.6594 17.3264 33.8274 16.8874C33.9934 16.4554 34.3824 16.3564 35.2084 16.5384C36.0734 16.7284 36.4224 16.6244 36.6164 16.1164C36.8344 15.5494 37.2294 15.4824 39.0904 15.7014C40.7954 15.9024 41.4434 15.8224 41.9104 15.3554C42.8004 14.4654 49.9804 14.4794 50.3234 15.3714C50.5174 15.8764 50.9664 15.9434 52.7054 15.7264C54.4694 15.5064 54.8934 15.5724 55.0964 16.1014C55.2684 16.5494 55.6314 16.6714 56.2974 16.5044C56.9424 16.3424 57.3264 16.4584 57.4814 16.8624C57.6174 17.2164 58.0204 17.3804 58.4684 17.2634C58.8904 17.1524 59.6994 17.4374 60.2964 17.9074C60.8854 18.3704 61.6134 18.7494 61.9134 18.7494C62.2134 18.7494 62.4594 19.0024 62.4594 19.3124C62.4594 19.6774 62.7394 19.8014 63.2594 19.6654C63.7134 19.5464 64.0594 19.6534 64.0594 19.9114C64.0594 20.1614 64.5544 20.5864 65.1594 20.8554C65.7644 21.1244 67.0154 22.0664 67.9384 22.9474L70.0474 24.9494C71.0464 25.8774 72.7354 27.8454 73.6524 29.1494C74.1944 29.9194 74.9574 30.8984 75.3484 31.3244C75.7394 31.7504 76.0594 32.2584 76.0594 32.4524C76.0594 32.6464 76.5654 33.5574 77.1844 34.4774C78.6374 36.6364 80.6644 40.8184 80.5414 41.4034C80.4884 41.6534 80.7184 41.9634 81.0524 42.0914C81.3864 42.2194 81.6594 42.5834 81.6594 42.8994C81.6594 43.3954 82.2594 44.7814 83.7234 47.6654C83.9234 48.0594 83.9914 48.5354 83.8754 48.7234C83.7594 48.9114 83.9524 49.1764 84.3044 49.3114C84.7594 49.4854 84.8724 49.8444 84.6944 50.5534C84.5064 51.3014 84.6024 51.5494 85.0784 51.5494C85.5314 51.5494 85.6404 51.7784 85.4594 52.3494C85.2764 52.9264 85.3874 53.1494 85.8594 53.1494C86.3314 53.1494 86.4424 53.3724 86.2594 53.9494C86.0734 54.5344 86.1874 54.7494 86.6824 54.7494C87.2214 54.7494 87.3104 54.9944 87.1194 55.9494C86.9354 56.8674 87.0244 57.1494 87.4964 57.1494C87.9314 57.1494 88.0384 57.3854 87.8594 57.9494C87.6804 58.5134 87.7874 58.7494 88.2324 58.7494C88.9584 58.7494 89.0284 59.4534 88.4524 60.9684C88.1554 61.7494 87.8374 61.9844 87.2784 61.8384C86.8194 61.7184 86.4184 61.8794 86.2804 62.2394C86.1294 62.6324 85.7054 62.7744 85.0544 62.6504C84.5074 62.5464 84.0594 62.6024 84.0594 62.7754C84.0594 62.9484 83.0244 63.5694 81.7594 64.1544L78.7594 65.5844L77.2594 66.3494C75.5704 67.1934 74.7044 67.6504 73.4044 68.3804C72.6644 68.7954 72.0534 69.0034 72.0464 68.8424C72.0394 68.6814 71.8144 68.8194 71.5464 69.1494C71.2784 69.4794 70.5644 70.0044 69.9594 70.3174C69.3544 70.6304 68.8594 71.0344 68.8594 71.2174C68.8594 71.4004 68.6304 71.5494 68.3504 71.5494C68.0704 71.5494 66.8554 72.4454 65.6504 73.5394C64.4454 74.6334 63.3094 75.5344 63.1264 75.5394C62.5334 75.5574 54.9424 83.5914 53.1744 86.0724C52.2314 87.3954 51.1894 88.7814 50.8594 89.1514C50.2224 89.8654 49.4794 91.1374 47.5324 94.8494C46.8684 96.1144 46.1764 97.1494 45.9924 97.1494C45.8084 97.1494 45.6594 97.4814 45.6594 97.8884C45.6594 98.7904 44.5214 101.149 44.0854 101.149C43.9124 101.149 43.8564 101.597 43.9604 102.144C44.0894 102.816 43.9424 103.219 43.5084 103.386C43.0744 103.553 42.9384 103.924 43.0924 104.536C43.2424 105.134 43.1134 105.52 42.7114 105.674C42.2604 105.847 42.1624 106.272 42.3324 107.321C42.5054 108.39 42.4074 108.794 41.9274 108.978C41.4584 109.158 41.3574 109.539 41.5384 110.445C41.7024 111.264 41.5974 111.815 41.2214 112.109C40.8284 112.416 40.6594 113.443 40.6594 115.516C40.6594 117.533 40.4994 118.536 40.1594 118.649C39.4464 118.887 39.4464 128.611 40.1594 128.849C40.5064 128.964 40.6594 130.044 40.6594 132.382C40.6594 134.798 40.8184 135.873 41.2214 136.189C41.6064 136.491 41.7104 137.078 41.5514 138.058C41.3784 139.125 41.4744 139.546 41.9334 139.722C42.3684 139.889 42.4994 140.358 42.3844 141.342C42.2804 142.232 42.4074 142.797 42.7414 142.925C43.0264 143.034 43.2594 143.569 43.2594 144.113C43.2594 144.657 43.4394 145.213 43.6594 145.349C43.8794 145.485 44.0594 146.115 44.0594 146.749C44.0594 147.383 44.2554 148.023 44.4944 148.171C44.7334 148.319 44.8434 148.767 44.7384 149.168C44.6334 149.569 44.7974 149.993 45.1034 150.111C45.4094 150.229 45.6594 150.765 45.6594 151.303C45.6594 151.841 45.7944 152.342 45.9594 152.416C46.5554 152.681 48.0224 155.98 47.8004 156.557C47.6694 156.9 47.8024 157.15 48.1164 157.152C48.6134 157.155 49.6594 158.845 49.6594 159.645C49.6594 159.831 50.0194 160.369 50.4594 160.841C50.8994 161.313 51.2594 161.936 51.2594 162.224C51.2594 162.512 51.4394 162.749 51.6594 162.749C51.8794 162.749 52.0594 163.017 52.0594 163.344C52.0594 163.671 52.3194 164.257 52.6374 164.644C52.9554 165.031 54.0774 166.519 55.1314 167.949C56.1854 169.379 57.3664 170.898 57.7544 171.324C58.1424 171.75 58.4594 172.236 58.4594 172.402C58.4594 172.847 69.1064 183.549 69.5484 183.549C69.7544 183.549 70.8324 184.449 71.9444 185.549C73.0564 186.649 74.1324 187.549 74.3374 187.549C74.5424 187.549 75.0574 187.864 75.4844 188.249C75.9114 188.634 76.7544 189.204 77.3594 189.517C77.9644 189.83 78.4594 190.334 78.4594 190.64C78.4594 190.946 78.6474 191.08 78.8774 190.938C79.1074 190.796 79.5114 190.856 79.7774 191.072C80.3094 191.504 82.3974 192.706 85.4594 194.341C90.8054 197.196 92.4364 197.949 93.2734 197.949C93.6794 197.949 94.1234 198.129 94.2594 198.349C94.3954 198.569 94.8564 198.749 95.2834 198.749C95.7104 198.749 96.0594 198.929 96.0594 199.149C96.0594 199.369 96.5884 199.549 97.2354 199.549C97.8824 199.549 98.5234 199.729 98.6594 199.949C98.7954 200.169 99.3354 200.349 99.8594 200.349C100.383 200.349 100.923 200.529 101.059 200.749C101.195 200.969 101.915 201.149 102.659 201.149C103.403 201.149 104.111 201.309 104.232 201.505C104.353 201.701 105.083 201.97 105.855 202.105L108.69 202.596C109.477 202.732 110.208 203.071 110.314 203.348C110.453 203.711 111.211 203.797 113.006 203.652C114.801 203.507 115.667 203.606 116.082 204C116.497 204.394 117.843 204.549 120.826 204.549C123.809 204.549 125.04 204.692 125.159 205.049C125.395 205.756 133.123 205.756 133.359 205.049C133.477 204.694 134.675 204.549 137.492 204.549C140.315 204.549 141.626 204.39 142.039 203.998C142.467 203.59 143.32 203.505 145.306 203.672C147.514 203.857 148.036 203.785 148.233 203.272C148.413 202.804 148.825 202.704 149.866 202.873C150.961 203.05 151.259 202.964 151.259 202.471C151.259 201.972 151.58 201.887 152.832 202.055C154.005 202.212 154.464 202.112 154.636 201.664C154.799 201.241 155.278 201.11 156.252 201.224C157.191 201.334 157.706 201.204 157.853 200.822C157.989 200.466 158.436 200.328 159.061 200.447C159.624 200.555 160.25 200.401 160.505 200.093C160.754 199.794 161.464 199.549 162.084 199.549C162.704 199.549 163.323 199.369 163.459 199.149C163.595 198.929 164.146 198.749 164.683 198.749C165.22 198.749 165.659 198.569 165.659 198.349C165.659 198.129 166.199 197.949 166.859 197.949C167.519 197.949 168.059 197.757 168.059 197.522C168.059 197.287 168.396 197.202 168.812 197.334C169.3 197.489 169.653 197.342 169.817 196.915C169.989 196.467 170.385 196.318 171.064 196.448C171.73 196.575 172.059 196.458 172.059 196.094C172.059 195.794 172.419 195.549 172.859 195.549C173.299 195.549 173.659 195.369 173.659 195.149C173.659 194.929 174.019 194.749 174.459 194.749C174.899 194.749 175.259 194.569 175.259 194.349C175.259 194.129 175.664 193.945 176.159 193.94C176.654 193.935 177.509 193.579 178.059 193.149C178.609 192.719 179.301 192.363 179.597 192.358C179.893 192.353 180.613 192.017 181.197 191.612C181.781 191.207 182.844 190.622 183.559 190.314C184.274 190.006 184.859 189.618 184.859 189.451C184.859 189.284 185.219 189.149 185.659 189.149C186.099 189.149 186.459 188.969 186.459 188.749C186.459 188.529 186.649 188.349 186.881 188.349C187.113 188.349 188.363 187.629 189.659 186.749C190.955 185.869 192.205 185.149 192.437 185.149C192.669 185.149 192.859 184.999 192.859 184.817C192.859 184.635 193.354 184.229 193.959 183.917C194.564 183.605 195.408 183.034 195.834 182.649C196.26 182.264 196.801 181.949 197.036 181.949C197.271 181.949 197.971 181.409 198.594 180.749C199.217 180.089 199.867 179.549 200.037 179.549C200.207 179.549 201.218 178.739 202.281 177.749C203.344 176.759 204.37 175.949 204.561 175.949C205.046 175.949 218.039 162.891 219.42 161.017C220.903 159.004 222.731 157.149 223.233 157.149C223.453 157.149 223.547 156.922 223.44 156.645C223.333 156.368 223.79 155.546 224.453 154.82C225.116 154.094 225.659 153.318 225.659 153.096C225.659 152.543 226.696 151.549 227.273 151.549C227.532 151.549 227.654 151.313 227.543 151.024C227.432 150.735 227.679 150.061 228.092 149.524C228.505 148.987 228.845 148.343 228.85 148.092C228.855 147.841 229.155 147.521 229.516 147.382C229.877 147.243 230.059 147.016 229.92 146.876C229.781 146.736 229.825 146.426 230.02 146.186C232.132 143.579 232.616 140.506 231.159 138.957C230.137 137.871 225.263 137.337 224.95 138.276C224.863 138.536 224.368 138.749 223.849 138.749C223.33 138.749 222.795 138.929 222.659 139.149C222.523 139.369 221.983 139.549 221.459 139.549C220.935 139.549 220.39 139.736 220.249 139.965C220.108 140.194 219.668 140.279 219.273 140.153C218.82 140.01 218.46 140.169 218.3 140.586C218.113 141.073 217.743 141.186 216.889 141.015C216.082 140.854 215.664 140.96 215.508 141.366C215.385 141.687 214.839 141.949 214.295 141.949C213.751 141.949 213.184 142.146 213.036 142.387C212.888 142.628 212.345 142.744 211.832 142.646C211.247 142.534 210.814 142.689 210.671 143.062C210.497 143.516 210.032 143.599 208.689 143.415C207.301 143.225 206.884 143.308 206.69 143.813C206.503 144.3 206.103 144.396 205.006 144.218C203.983 144.052 203.384 144.167 202.933 144.618C202.414 145.137 201.736 145.204 199.162 144.989C196.567 144.773 195.912 144.839 195.378 145.373C194.557 146.194 186.437 146.085 186.159 145.249C186.036 144.881 185.279 144.816 183.282 145.002C180.143 145.293 179.465 144.827 181.216 143.58C181.858 143.123 182.54 142.749 182.732 142.749C182.924 142.749 183.342 142.389 183.659 141.949C183.976 141.509 184.388 141.149 184.575 141.149C184.898 141.149 188.437 138.856 188.859 138.373C188.969 138.247 189.741 137.636 190.574 137.015C192.527 135.559 201.259 126.913 201.259 126.436C201.259 125.861 202.701 124.349 203.249 124.349C203.521 124.349 203.65 124.103 203.535 123.802C203.42 123.501 203.85 122.68 204.492 121.977C205.134 121.274 205.659 120.441 205.659 120.124C205.659 119.807 205.937 119.549 206.277 119.549C206.617 119.549 206.857 119.324 206.812 119.049C206.706 118.397 207.447 116.626 208.126 115.911C208.851 115.147 211.259 110.368 211.259 109.693C211.259 109.394 211.541 109.149 211.886 109.149C212.331 109.149 212.439 108.917 212.259 108.349C212.113 107.89 212.187 107.549 212.432 107.549C212.667 107.549 212.859 107.217 212.859 106.81C212.859 105.908 213.997 103.549 214.433 103.549C214.606 103.549 214.662 103.101 214.558 102.554C214.429 101.882 214.576 101.479 215.01 101.312C215.444 101.145 215.58 100.775 215.424 100.151C215.297 99.6484 215.389 99.1164 215.627 98.9694C215.865 98.8224 216.059 98.3524 216.059 97.9254C216.059 97.4984 216.318 97.1494 216.634 97.1494C217.063 97.1494 217.153 96.8084 216.99 95.8004C216.862 95.0104 216.955 94.3374 217.215 94.1764C217.459 94.0254 217.659 93.3724 217.659 92.7254C217.659 91.9824 217.866 91.5494 218.221 91.5494C218.641 91.5494 218.731 91.1644 218.578 90.0214C218.439 88.9844 218.561 88.3044 218.959 87.9064C219.33 87.5364 219.476 86.8484 219.358 86.0394C219.22 85.1034 219.345 84.6914 219.822 84.5084C220.35 84.3054 220.427 83.8994 220.225 82.3744C220.035 80.9464 220.127 80.3394 220.603 79.8624C221.079 79.3854 221.175 78.7554 220.99 77.2004C220.804 75.6264 220.881 75.1154 221.332 74.9424C221.797 74.7644 221.879 74.0534 221.74 71.4094C221.612 68.9594 221.709 67.9494 222.115 67.5244C222.521 67.0994 222.662 65.5914 222.661 61.6354C222.66 58.5474 222.827 56.2014 223.059 56.0354C223.623 55.6324 223.645 33.4454 223.081 33.0634C222.818 32.8854 222.648 30.4714 222.629 26.6634C222.613 23.3004 222.433 20.1894 222.229 19.7494C222.025 19.3094 221.871 16.6994 221.886 13.9494C221.906 10.1234 221.779 8.8154 221.342 8.3764C220.941 7.9744 220.839 7.2984 221.002 6.1144C221.182 4.7994 221.094 4.3714 220.604 4.1834C220.159 4.0134 220.048 3.6494 220.224 2.9454C220.408 2.2114 220.314 1.9494 219.867 1.9494C219.532 1.9494 219.259 1.7694 219.259 1.5494C219.259 1.3294 219.008 1.1494 218.702 1.1494C218.396 1.1494 218.041 0.8794 217.914 0.5494C217.552 -0.3946 215.964 -0.0806 214.759 1.1734ZM216.269 16.4494C216.429 18.4844 216.533 22.6564 216.502 25.7214C216.46 29.8404 216.577 31.3754 216.952 31.6064C217.689 32.0624 217.692 58.4054 216.954 58.6514C216.567 58.7804 216.51 59.8244 216.71 63.1164C216.922 66.6094 216.862 67.5154 216.388 67.9574C215.975 68.3444 215.855 69.0954 215.976 70.5534C216.102 72.0734 215.98 72.7714 215.505 73.2454C214.995 73.7564 214.916 74.3794 215.118 76.3094C215.332 78.3584 215.267 78.7714 214.698 78.9894C214.155 79.1984 214.073 79.5724 214.276 80.9214C214.46 82.1504 214.369 82.7264 213.933 83.0884C213.514 83.4354 213.402 84.0464 213.551 85.1574C213.716 86.3854 213.616 86.7914 213.101 86.9884C212.586 87.1854 212.498 87.5494 212.694 88.5954C212.894 89.6604 212.816 89.9494 212.329 89.9494C211.842 89.9494 211.759 90.2544 211.935 91.3424C212.107 92.4004 212.006 92.7954 211.513 92.9844C211.059 93.1584 210.937 93.5194 211.104 94.1874C211.269 94.8454 211.15 95.2164 210.719 95.3814C210.275 95.5524 210.158 95.9464 210.317 96.7374C210.441 97.3594 210.345 97.9724 210.099 98.1244C209.853 98.2764 209.659 98.7514 209.659 99.1854C209.659 99.6194 209.379 100.082 209.036 100.213C208.693 100.344 208.51 100.706 208.629 101.016C208.748 101.326 208.598 101.674 208.296 101.79C207.964 101.917 207.833 102.33 207.965 102.835C208.037 103.082 208.029 103.345 207.942 103.587C207.855 103.829 207.694 104.037 207.481 104.182C207.095 104.465 206.898 104.889 207.044 105.125C207.19 105.361 207.048 105.655 206.729 105.778C206.384 105.91 206.23 106.316 206.35 106.775C206.487 107.3 206.348 107.549 205.918 107.549C205.539 107.549 205.371 107.774 205.499 108.109C205.617 108.416 205.521 108.787 205.286 108.932C205.051 109.077 204.859 109.546 204.859 109.973C204.859 110.4 204.713 110.749 204.534 110.749C204.355 110.749 203.954 111.398 203.642 112.192C203.33 112.986 202.698 113.932 202.236 114.296C201.774 114.66 201.451 115.135 201.52 115.353C201.589 115.571 201.108 116.358 200.452 117.103C199.796 117.848 199.259 118.67 199.259 118.93C199.259 119.19 198.269 120.467 197.059 121.767C195.849 123.067 194.859 124.257 194.859 124.412C194.859 125.053 187.368 132.172 184.754 134.015C184.042 134.517 183.11 135.247 182.684 135.638C182.258 136.029 181.672 136.349 181.384 136.349C181.096 136.349 180.859 136.499 180.859 136.681C180.859 136.863 180.364 137.269 179.759 137.581C179.154 137.893 178.569 138.238 178.459 138.348C178.349 138.458 177.539 138.923 176.659 139.379L174.259 140.643C172.373 141.665 170.651 142.289 170.545 141.989C170.482 141.811 169.99 141.75 169.45 141.853C168.822 141.973 168.388 141.829 168.244 141.454C168.1 141.079 167.666 140.935 167.039 141.055C166.472 141.163 166.059 141.054 166.059 140.796C166.059 140.55 165.787 140.349 165.454 140.349C165.121 140.349 164.536 140.181 164.154 139.975C163.772 139.769 162.874 139.366 162.159 139.078C161.444 138.79 160.859 138.33 160.859 138.056C160.859 137.782 160.461 137.601 159.959 137.654C159.429 137.71 159.098 137.549 159.154 137.263C159.212 136.971 158.997 136.875 158.614 137.022C158.264 137.156 157.861 137.104 157.719 136.907C157.577 136.71 156.739 136.175 155.859 135.719C153.254 134.367 152.303 133.784 151.663 133.146C151.331 132.815 150.564 132.289 149.959 131.979C149.354 131.669 148.859 131.264 148.859 131.081C148.859 130.898 148.688 130.749 148.479 130.749C147.417 130.749 140.059 124.482 140.059 123.577C140.059 123.356 139.801 123.273 139.485 123.394C138.932 123.607 127.259 112.262 127.259 111.512C127.259 111.331 126.539 110.426 125.659 109.501C124.779 108.576 124.059 107.706 124.059 107.569C124.059 107.432 123.159 106.36 122.059 105.188C120.959 104.016 120.059 102.848 120.059 102.592C120.059 102.336 119.699 101.866 119.259 101.549C118.819 101.232 118.459 100.787 118.459 100.561C118.459 100.335 117.991 99.6094 117.421 98.9494C116.851 98.2894 116.126 97.2544 115.811 96.6494C115.496 96.0444 115.063 95.5494 114.849 95.5494C114.635 95.5494 114.459 95.2794 114.459 94.9494C114.459 94.6194 114.099 93.9894 113.659 93.5494C113.219 93.1094 112.859 92.6034 112.859 92.4244C112.859 92.2454 112.544 91.7424 112.159 91.3044C111.713 90.7807 111.312 90.2204 110.959 89.6294L109.959 87.8644C109.684 87.3784 109.234 86.7354 108.959 86.4364C108.684 86.1374 108.459 85.5454 108.459 85.1204C108.459 84.6774 108.184 84.3494 107.812 84.3494C107.363 84.3494 107.229 84.1054 107.375 83.5494C107.502 83.0624 107.387 82.7494 107.081 82.7494C106.805 82.7494 105.97 81.5344 105.227 80.0494C104.484 78.5644 103.782 77.2594 103.667 77.1494C103.192 76.6934 102.459 75.1184 102.459 74.5544C102.459 74.2214 102.324 73.9484 102.159 73.9464C101.8 73.9424 100.859 72.0054 100.859 71.2694C100.859 70.9834 100.7 70.7494 100.506 70.7494C100.312 70.7494 100.052 70.4344 99.9304 70.0494C99.8084 69.6644 99.4004 68.8094 99.0234 68.1494C97.2044 64.9624 97.1594 64.1494 98.8234 64.4824C99.6654 64.6504 100.053 64.5414 100.228 64.0864C100.387 63.6714 100.799 63.5214 101.444 63.6444C102.066 63.7634 102.5 63.6184 102.644 63.2444C102.788 62.8704 103.18 62.7404 103.716 62.8804C104.21 63.0094 104.822 62.8434 105.183 62.4824C105.613 62.0524 106.266 61.9254 107.317 62.0664C108.335 62.2034 108.804 62.1184 108.746 61.8094C108.694 61.5334 109.22 61.3494 110.059 61.3494C110.829 61.3494 111.657 61.0964 111.899 60.7864C112.223 60.3734 112.837 60.2924 114.22 60.4824C115.383 60.6414 116.01 60.5934 115.863 60.3564C115.568 59.8784 117.433 59.3774 118.288 59.7054C118.635 59.8384 119.208 59.6574 119.562 59.3034C120.038 58.8274 120.642 58.7204 121.894 58.8924C123.218 59.0734 123.636 58.9854 123.828 58.4844C124.013 58.0024 124.44 57.8954 125.569 58.0464C126.591 58.1834 127.242 58.0584 127.623 57.6494C128.033 57.2104 128.685 57.1124 130.086 57.2784C131.583 57.4554 132.042 57.3704 132.229 56.8834C132.399 56.4394 132.862 56.3094 133.852 56.4244C134.776 56.5324 135.306 56.4034 135.447 56.0374C135.582 55.6854 136.145 55.5304 137.013 55.6044C137.759 55.6694 138.661 55.4794 139.017 55.1834C139.441 54.8324 140.279 54.7154 141.439 54.8464C142.78 54.9974 143.269 54.8994 143.443 54.4464C143.61 54.0104 144.044 53.9074 145.035 54.0684C146.042 54.2314 146.459 54.1274 146.635 53.6684C146.818 53.1904 147.283 53.0934 148.643 53.2464C149.98 53.3974 150.469 53.2994 150.643 52.8464C150.81 52.4104 151.244 52.3074 152.235 52.4684C153.201 52.6244 153.66 52.5234 153.815 52.1194C153.954 51.7584 154.617 51.5494 155.623 51.5494C156.497 51.5494 157.334 51.3514 157.484 51.1094C157.634 50.8674 158.249 50.7674 158.871 50.8914C159.667 51.0514 160.056 50.9334 160.23 50.4814C160.412 50.0074 160.818 49.9034 161.835 50.0684C162.838 50.2304 163.259 50.1264 163.433 49.6734C163.589 49.2664 164.006 49.1224 164.664 49.2484C165.363 49.3814 165.659 49.2614 165.659 48.8444C165.659 48.3964 165.956 48.3084 166.859 48.4894C167.762 48.6704 168.059 48.5814 168.059 48.1394C168.059 47.7534 168.465 47.5494 169.235 47.5494C169.882 47.5494 170.523 47.3694 170.659 47.1494C170.795 46.9294 171.346 46.7494 171.883 46.7494C172.42 46.7494 172.859 46.5464 172.859 46.2994C172.859 46.0124 173.295 45.9364 174.059 46.0894C174.99 46.2754 175.259 46.1864 175.259 45.6924C175.259 45.2574 175.507 45.1204 176.044 45.2614C176.476 45.3744 177.038 45.2154 177.293 44.9084C177.548 44.6014 177.999 44.3494 178.296 44.3494C178.593 44.3494 179.499 43.9764 180.312 43.5194C181.125 43.0624 182.12 42.7764 182.524 42.8824C182.928 42.9884 183.262 42.8664 183.266 42.6124C183.275 42.0114 187.096 40.2014 187.642 40.5384C187.871 40.6804 188.062 40.5614 188.066 40.2734C188.07 39.9854 188.97 39.3254 190.066 38.8074C191.162 38.2894 192.059 37.7034 192.059 37.5074C192.059 37.3114 192.419 37.1494 192.859 37.1494C193.299 37.1494 193.659 36.9994 193.659 36.8174C193.659 36.6354 194.151 36.2294 194.753 35.9174C195.355 35.6054 196.171 35.0794 196.566 34.7494C196.961 34.4194 197.414 34.1494 197.572 34.1494C197.73 34.1494 198.849 33.2064 200.059 32.0534C201.269 30.9004 202.376 29.9554 202.519 29.9534C202.866 29.9484 205.659 27.1434 205.659 26.7994C205.659 26.6514 206.559 25.6004 207.659 24.4654C208.759 23.3304 209.659 22.2314 209.659 22.0244C209.659 21.8174 209.916 21.4344 210.23 21.1734C210.736 20.7534 212.186 18.2514 213.43 15.6524C213.666 15.1594 213.994 14.7544 214.159 14.7524C214.324 14.7504 214.459 14.4194 214.459 14.0164C214.459 13.1614 214.793 12.7494 215.486 12.7494C215.821 12.7494 216.073 13.9384 216.269 16.4494ZM92.2994 67.6524L93.6494 70.3494L94.8474 72.7494C95.1624 73.4084 95.8004 74.6574 96.5324 76.0494L98.5014 79.8434C99.3234 81.4354 100.37 83.2624 100.827 83.9054C101.284 84.5484 101.659 85.2704 101.659 85.5114C101.659 85.7524 101.86 85.9494 102.106 85.9494C102.352 85.9494 102.46 86.3024 102.343 86.7494C102.214 87.2444 102.331 87.5494 102.65 87.5494C102.934 87.5494 103.266 87.8644 103.388 88.2494C103.676 89.1584 104.871 91.1024 105.759 92.1074C106.144 92.5434 106.459 93.1214 106.459 93.3914C106.459 93.6614 106.62 93.9424 106.817 94.0164C107.014 94.0904 107.509 94.7094 107.917 95.3944C109.185 97.5214 112.187 101.742 112.531 101.882C112.712 101.956 112.859 102.226 112.86 102.482C112.861 102.738 113.4 103.579 114.059 104.349C114.718 105.119 115.258 105.902 115.258 106.089C115.258 106.276 115.761 106.905 116.374 107.489C116.987 108.073 117.931 109.179 118.47 109.949C119.115 110.849 119.815 111.707 120.565 112.519C121.177 113.162 121.784 114.107 121.912 114.619C122.04 115.131 122.295 115.549 122.477 115.549C122.96 115.549 136.859 129.502 136.859 129.987C136.859 130.212 137.042 130.283 137.267 130.144C137.621 129.925 140.83 132.276 143.545 134.744C144.032 135.187 144.583 135.549 144.769 135.549C144.955 135.549 145.457 135.864 145.884 136.249C146.311 136.634 147.154 137.204 147.759 137.517C148.364 137.83 148.859 138.234 148.859 138.417C148.859 138.6 149.219 138.749 149.659 138.749C150.099 138.749 150.459 138.901 150.459 139.086C150.459 139.271 151.314 139.854 152.359 140.381C153.404 140.908 154.349 141.431 154.459 141.544C154.569 141.657 155.379 142.123 156.259 142.579L158.659 143.832C159.286 144.158 159.92 144.47 160.559 144.77C161.164 145.053 161.659 145.412 161.659 145.568C161.659 146.057 159.302 146.854 158.488 146.641C158.019 146.518 157.619 146.675 157.481 147.037C157.31 147.481 156.901 147.571 155.901 147.383C154.858 147.188 154.494 147.28 154.298 147.793C154.093 148.325 153.699 148.408 152.289 148.215C150.902 148.025 150.483 148.108 150.29 148.612C150.097 149.116 149.628 149.209 148.072 149.06C146.597 148.918 146.043 149.015 145.878 149.443C145.696 149.917 144.897 149.967 141.259 149.731C138.089 149.526 136.859 149.572 136.859 149.898C136.859 150.19 135.872 150.349 134.059 150.349C132.3 150.349 131.259 150.186 131.259 149.912C131.259 149.606 130.129 149.559 127.515 149.755C124.483 149.982 123.668 149.925 123.226 149.452C122.852 149.052 122.159 148.926 121.028 149.054C119.897 149.182 119.203 149.056 118.828 148.654C118.448 148.247 117.759 148.126 116.577 148.259C115.281 148.405 114.816 148.303 114.635 147.83C114.459 147.371 114.042 147.267 113.035 147.43C112.028 147.593 111.611 147.49 111.435 147.03C111.259 146.57 110.842 146.467 109.835 146.63C108.808 146.797 108.412 146.692 108.224 146.203C108.05 145.749 107.689 145.627 107.021 145.794C106.389 145.953 105.992 145.841 105.847 145.463C105.702 145.085 105.227 144.951 104.444 145.066C103.736 145.17 103.259 145.06 103.259 144.794C103.259 144.549 102.91 144.349 102.483 144.349C102.056 144.349 101.595 144.169 101.459 143.949C101.323 143.729 100.913 143.549 100.547 143.549C99.5434 143.549 96.0744 141.812 96.0664 141.304C96.0624 141.047 95.6394 140.94 95.0594 141.051C94.5094 141.156 94.0594 141.085 94.0594 140.893C94.0594 140.701 93.4744 140.305 92.7594 140.013C90.3154 139.015 89.6594 138.614 89.6594 138.119C89.6594 137.821 89.3414 137.707 88.8594 137.833C88.2964 137.98 88.0594 137.845 88.0594 137.378C88.0594 137.013 87.8344 136.759 87.5594 136.814C86.9004 136.947 84.0594 135.558 84.0594 135.103C84.0594 134.908 83.8164 134.749 83.5184 134.749C83.2204 134.749 82.4134 134.209 81.7224 133.549C81.0314 132.889 80.3194 132.349 80.1384 132.349C79.9574 132.349 79.4614 132.029 79.0344 131.638C78.6074 131.247 77.6294 130.485 76.8594 129.943C76.0894 129.401 74.4694 127.987 73.2594 126.799C69.9144 123.513 68.7614 122.749 67.1484 122.749C65.1204 122.749 63.6804 124.675 64.5094 126.28C65.0764 127.379 69.1124 131.549 69.6094 131.549C69.7634 131.549 70.7324 132.346 71.7644 133.321C72.7964 134.296 74.1844 135.414 74.8494 135.807C75.5144 136.2 76.0594 136.663 76.0594 136.835C76.0594 137.007 76.2954 137.149 76.5844 137.149C76.8734 137.149 77.4574 137.464 77.8844 137.849C78.3114 138.234 79.1544 138.804 79.7594 139.117C80.3644 139.43 80.8594 139.834 80.8594 140.017C80.8594 140.2 81.0954 140.349 81.3844 140.349C81.6734 140.349 82.2574 140.664 82.6844 141.05C83.1114 141.436 84.3144 142.183 85.3594 142.712C86.4044 143.241 87.2594 143.927 87.2594 144.235C87.2594 144.543 87.4434 144.682 87.6684 144.543C88.1294 144.258 90.4594 145.179 90.4594 145.647C90.4594 145.813 90.7314 145.949 91.0644 145.949C91.3974 145.949 92.0274 146.129 92.4644 146.349L94.0544 147.149C94.4914 147.369 95.1214 147.549 95.4544 147.549C95.7874 147.549 96.0594 147.729 96.0594 147.949C96.0594 148.169 96.3244 148.349 96.6474 148.349C96.9704 148.349 97.8764 148.709 98.6594 149.149C99.4424 149.589 100.427 149.949 100.848 149.949C101.269 149.949 101.723 150.129 101.859 150.349C101.995 150.569 102.546 150.749 103.083 150.749C103.62 150.749 104.059 150.929 104.059 151.149C104.059 151.369 104.678 151.549 105.435 151.549C106.192 151.549 106.923 151.729 107.059 151.949C107.195 152.169 107.841 152.349 108.495 152.349C109.149 152.349 109.772 152.578 109.88 152.859C110.007 153.192 110.627 153.316 111.664 153.217C112.755 153.113 113.318 153.238 113.464 153.617C113.61 153.996 114.168 154.122 115.22 154.021C116.07 153.94 116.887 154.071 117.036 154.311C117.185 154.551 118.441 154.749 119.854 154.749C121.349 154.749 122.62 154.956 122.93 155.251C123.736 156.015 145.635 155.982 146.43 155.216C146.832 154.827 147.741 154.712 149.518 154.825C151.435 154.947 152.088 154.85 152.254 154.417C152.415 153.998 152.879 153.914 154.024 154.097C155.24 154.292 155.629 154.205 155.824 153.695C156.017 153.192 156.432 153.094 157.666 153.259C158.922 153.428 159.259 153.343 159.259 152.861C159.259 152.399 159.543 152.306 160.423 152.482C161.236 152.644 161.654 152.539 161.81 152.132C161.937 151.802 162.551 151.549 163.223 151.549C163.877 151.549 164.533 151.353 164.681 151.114C164.829 150.875 165.277 150.765 165.678 150.87C166.079 150.975 166.503 150.811 166.621 150.505C166.739 150.199 167.172 149.949 167.585 149.949C167.998 149.949 168.887 149.674 169.56 149.338C170.933 148.654 173.995 148.916 174.313 149.745C174.437 150.069 175.146 150.166 176.472 150.038C178.005 149.891 178.498 149.986 178.683 150.467C178.871 150.956 179.356 151.04 181.013 150.869C182.494 150.716 183.274 150.814 183.682 151.206C184.513 152.002 197.597 151.998 198.436 151.2C198.843 150.814 199.669 150.711 201.236 150.853C202.879 151.002 203.602 150.901 204.008 150.466C204.386 150.062 205.163 149.921 206.504 150.014C207.883 150.11 208.512 149.989 208.661 149.6C208.803 149.229 209.246 149.126 210.029 149.283C210.864 149.45 211.254 149.34 211.427 148.887C211.595 148.452 212.029 148.313 212.848 148.433C213.591 148.542 214.103 148.41 214.231 148.077C214.345 147.78 215.041 147.549 215.823 147.549C216.587 147.549 217.333 147.353 217.481 147.114C217.629 146.875 218.089 146.768 218.505 146.877C218.94 146.991 219.408 146.812 219.608 146.455C219.835 146.05 220.311 145.904 220.987 146.033C221.636 146.157 222.096 146.03 222.226 145.69C222.459 145.084 223.659 144.942 223.659 145.52C223.659 145.725 223.389 146.162 223.059 146.492C222.729 146.822 222.459 147.193 222.459 147.317C222.459 147.561 220.054 150.853 218.928 152.149C218.546 152.589 217.891 153.489 217.474 154.149C217.057 154.809 216.027 156.031 215.187 156.864C214.347 157.697 213.659 158.527 213.659 158.706C213.659 159.413 202.725 169.983 202.202 169.782C201.903 169.668 201.659 169.745 201.659 169.954C201.659 170.485 199.301 172.851 197.859 173.767C197.199 174.186 196.068 175.074 195.346 175.739C194.624 176.404 193.9 176.949 193.737 176.949C193.574 176.949 193.006 177.354 192.474 177.849C191.942 178.344 191.287 178.749 191.017 178.749C190.747 178.749 190.466 178.894 190.392 179.072C190.236 179.452 187.296 181.49 185.157 182.701L182.359 184.284C181.644 184.688 180.834 184.943 180.559 184.851C180.284 184.759 180.059 184.967 180.059 185.316C180.059 185.682 179.722 185.949 179.259 185.949C178.819 185.949 178.459 186.095 178.459 186.274C178.459 186.453 177.829 186.847 177.059 187.149C176.289 187.451 175.659 187.845 175.659 188.024C175.659 188.203 175.406 188.349 175.097 188.349C174.788 188.349 173.753 188.735 172.797 189.206C171.841 189.677 170.609 190.238 170.059 190.452C169.485 190.678 168.919 190.926 168.364 191.196C167.9 191.41 167.399 191.53 166.888 191.549C166.458 191.549 165.985 191.745 165.837 191.984C165.689 192.223 165.229 192.33 164.814 192.221C164.317 192.091 164.059 192.233 164.059 192.636C164.059 193.099 163.775 193.192 162.895 193.016C162.055 192.848 161.665 192.957 161.491 193.409C161.326 193.84 160.955 193.959 160.297 193.794C159.63 193.627 159.268 193.749 159.095 194.201C158.913 194.673 158.535 194.784 157.689 194.615C156.851 194.447 156.464 194.558 156.289 195.015C156.114 195.472 155.727 195.583 154.889 195.415C154.051 195.247 153.664 195.358 153.491 195.809C153.321 196.252 152.957 196.36 152.239 196.18C151.561 196.01 151.009 196.142 150.571 196.58C150.095 197.056 149.481 197.177 148.329 197.022C147.207 196.872 146.561 196.99 146.125 197.426C145.662 197.888 145.017 197.984 143.541 197.81C142.161 197.646 141.413 197.738 141.034 198.117C140.276 198.875 117.213 198.81 116.959 198.049C116.839 197.689 116.192 197.62 114.634 197.804C112.879 198.01 112.43 197.939 112.233 197.426C112.04 196.923 111.593 196.842 110.033 197.027C108.428 197.217 108.029 197.137 107.817 196.583C107.624 196.081 107.272 195.97 106.446 196.152C105.826 196.288 105.22 196.209 105.073 195.972C104.926 195.735 104.392 195.549 103.878 195.549C103.364 195.549 102.842 195.282 102.717 194.956C102.556 194.538 102.146 194.432 101.323 194.596C100.654 194.73 100.04 194.642 99.8844 194.389C99.7344 194.147 99.2574 193.949 98.8234 193.949C98.3894 193.949 97.9354 193.69 97.8134 193.374C97.6914 193.058 97.3284 192.901 97.0044 193.026C96.6804 193.151 95.6594 192.891 94.7374 192.45C88.7654 189.597 87.4444 188.92 87.3264 188.651C87.2524 188.485 86.8474 188.349 86.4264 188.349C85.9884 188.349 85.6594 188.073 85.6594 187.706C85.6594 187.322 85.4364 187.149 85.1034 187.277C84.7974 187.394 84.2124 187.188 83.8034 186.82C83.2339 186.344 82.6158 185.928 81.9594 185.581C81.3544 185.269 80.8594 184.864 80.8594 184.681C80.8594 184.498 80.6344 184.349 80.3594 184.348C80.0844 184.347 79.2294 183.808 78.4594 183.149C77.6894 182.49 76.9124 181.95 76.7324 181.95C76.2984 181.949 73.6594 179.137 73.6594 178.676C73.6594 178.477 73.4084 178.367 73.1024 178.431C72.4434 178.571 67.4054 173.876 64.8594 170.749C63.8734 169.539 62.6104 168.099 62.0514 167.549C61.4924 166.999 60.4604 165.649 59.7584 164.549C59.0564 163.449 58.2954 162.332 58.0704 162.066C57.8454 161.8 57.6594 161.429 57.6594 161.241C57.6594 161.053 57.2834 160.497 56.8244 160.004C56.3654 159.511 56.0894 158.847 56.2124 158.528C56.3394 158.197 56.2004 157.949 55.8894 157.949C55.3014 157.949 54.6834 156.858 54.8134 156.049C54.8584 155.774 54.7024 155.549 54.4674 155.549C53.9854 155.549 53.0874 153.616 53.2124 152.849C53.2574 152.574 53.1154 152.349 52.8954 152.349C52.6754 152.349 52.2034 151.674 51.8444 150.849C51.4854 150.024 51.0274 149.036 50.8254 148.654C50.6044 148.192 50.4798 147.69 50.4594 147.178C50.4594 146.748 50.2724 146.28 50.0434 146.139C49.8144 145.998 49.7294 145.558 49.8554 145.163C49.9974 144.715 49.8414 144.351 49.4414 144.197C49.0014 144.029 48.8394 143.567 48.9264 142.734C49.0024 142.008 48.8304 141.378 48.4994 141.174C48.1604 140.964 48.0354 140.484 48.1784 139.938C48.3214 139.392 48.1694 138.802 47.7924 138.425C47.3634 137.995 47.2354 137.342 47.3764 136.293C47.5054 135.327 47.3934 134.626 47.0654 134.354C45.5554 133.101 45.5844 114.66 47.0974 114.079C47.4864 113.93 47.5674 113.393 47.3934 112.119C47.2034 110.734 47.2864 110.313 47.7884 110.121C48.2434 109.946 48.3614 109.558 48.2014 108.761C48.0774 108.139 48.1734 107.526 48.4194 107.374C48.6654 107.222 48.8594 106.75 48.8594 106.32C48.8787 105.81 48.9987 105.308 49.2124 104.844C49.5554 104.171 49.8004 103.599 50.9234 100.849C51.2154 100.134 51.6914 99.5494 51.9804 99.5494C52.2694 99.5494 52.3924 99.3654 52.2534 99.1404C51.9684 98.6794 52.8894 96.3494 53.3574 96.3494C53.5234 96.3494 53.6594 96.0814 53.6594 95.7544C53.6594 95.4274 53.9174 94.8414 54.2334 94.4544C55.4754 92.9294 57.6594 89.9324 57.6594 89.7524C57.6594 88.9714 67.4384 79.2594 69.7454 77.7494C70.0814 77.5294 71.4504 76.5844 72.7864 75.6494C74.1224 74.7144 75.4054 73.9494 75.6374 73.9494C75.8694 73.9494 76.0594 73.7694 76.0594 73.5494C76.0594 73.3294 76.4194 73.1494 76.8594 73.1494C77.2994 73.1494 77.6594 73.0024 77.6594 72.8234C77.6594 72.4644 80.6984 70.7494 81.3354 70.7494C81.5554 70.7494 82.2584 70.3774 82.8974 69.9224C83.5854 69.4324 84.3664 69.1924 84.8114 69.3344C85.2874 69.4854 85.6514 69.3474 85.7994 68.9614C85.9284 68.6244 86.4004 68.3494 86.8464 68.3494C87.2924 68.3494 87.6594 68.1694 87.6594 67.9494C87.6594 67.7294 88.0984 67.5494 88.6354 67.5494C89.1724 67.5494 89.7234 67.3694 89.8594 67.1494C90.3134 66.4144 91.8474 66.7304 92.2994 67.6524Z" stroke="white" stroke-width="10" mask="url(#path-1-inside-1_105_619)"/>
</svg>
